<ttFont>
    <TTGlyph name=".notdef" xMin="68" yMin="0" xMax="612" yMax="1365">
      <contour>
        <pt x="68" y="0" on="1"/>
        <pt x="68" y="1365" on="1"/>
        <pt x="612" y="1365" on="1"/>
        <pt x="612" y="0" on="1"/>
      </contour>
      <contour>
        <pt x="136" y="68" on="1"/>
        <pt x="544" y="68" on="1"/>
        <pt x="544" y="1297" on="1"/>
        <pt x="136" y="1297" on="1"/>
      </contour>
    </TTGlyph>
    <TTGlyph name="A" xMin="-33" yMin="-7" xMax="1467" yMax="1538">
      <contour>
        <pt x="-33" y="-2" on="0"/>
        <pt x="-33" y="48" on="0"/>
        <pt x="-28" y="60" on="1"/>
        <pt x="1" y="60" on="0"/>
        <pt x="96" y="84" on="0"/>
        <pt x="111" y="104" on="1"/>
        <pt x="143" y="145" on="0"/>
        <pt x="190" y="245" on="0"/>
        <pt x="220" y="322" on="1"/>
        <pt x="527" y="1110" on="0"/>
        <pt x="668" y="1471" on="1"/>
        <pt x="672" y="1479" on="0"/>
        <pt x="695" y="1503" on="0"/>
        <pt x="722" y="1524" on="0"/>
        <pt x="749" y="1538" on="0"/>
        <pt x="756" y="1538" on="1"/>
        <pt x="760" y="1538" on="0"/>
        <pt x="767" y="1532" on="0"/>
        <pt x="770" y="1531" on="1"/>
        <pt x="1244" y="292" on="1"/>
        <pt x="1301" y="140" on="0"/>
        <pt x="1302" y="139" on="1"/>
        <pt x="1312" y="114" on="0"/>
        <pt x="1385" y="75" on="0"/>
        <pt x="1446" y="60" on="0"/>
        <pt x="1459" y="60" on="1"/>
        <pt x="1467" y="50" on="0"/>
        <pt x="1467" y="2" on="0"/>
        <pt x="1464" y="-7" on="1"/>
        <pt x="1435" y="-6" on="0"/>
        <pt x="1334" y="1" on="0"/>
        <pt x="1254" y="5" on="0"/>
        <pt x="1209" y="5" on="1"/>
        <pt x="1161" y="5" on="0"/>
        <pt x="1079" y="1" on="0"/>
        <pt x="977" y="-5" on="0"/>
        <pt x="940" y="-7" on="1"/>
        <pt x="931" y="2" on="0"/>
        <pt x="933" y="51" on="0"/>
        <pt x="942" y="60" on="1"/>
        <pt x="968" y="60" on="0"/>
        <pt x="1058" y="78" on="0"/>
        <pt x="1072" y="90" on="1"/>
        <pt x="1081" y="100" on="0"/>
        <pt x="1081" y="123" on="1"/>
        <pt x="1081" y="154" on="0"/>
        <pt x="1002" y="380" on="0"/>
        <pt x="963" y="478" on="1"/>
        <pt x="923" y="575" on="1"/>
        <pt x="916" y="585" on="0"/>
        <pt x="909" y="585" on="1"/>
        <pt x="879" y="587" on="0"/>
        <pt x="680" y="587" on="1"/>
        <pt x="534" y="587" on="0"/>
        <pt x="429" y="580" on="1"/>
        <pt x="427" y="580" on="0"/>
        <pt x="421" y="577" on="0"/>
        <pt x="419" y="575" on="1"/>
        <pt x="418" y="573" on="1"/>
        <pt x="353" y="401" on="0"/>
        <pt x="313" y="290" on="1"/>
        <pt x="281" y="195" on="0"/>
        <pt x="281" y="125" on="1"/>
        <pt x="281" y="110" on="0"/>
        <pt x="311" y="85" on="0"/>
        <pt x="352" y="72" on="0"/>
        <pt x="401" y="63" on="0"/>
        <pt x="433" y="60" on="0"/>
        <pt x="441" y="60" on="1"/>
        <pt x="446" y="55" on="0"/>
        <pt x="449" y="3" on="0"/>
        <pt x="445" y="-7" on="1"/>
        <pt x="412" y="-5" on="0"/>
        <pt x="333" y="1" on="0"/>
        <pt x="266" y="5" on="0"/>
        <pt x="220" y="5" on="1"/>
        <pt x="173" y="5" on="0"/>
        <pt x="100" y="1" on="0"/>
        <pt x="12" y="-5" on="0"/>
        <pt x="-28" y="-7" on="1"/>
      </contour>
      <contour>
        <pt x="462" y="691" on="1"/>
        <pt x="462" y="682" on="0"/>
        <pt x="466" y="682" on="1"/>
        <pt x="587" y="677" on="0"/>
        <pt x="677" y="677" on="1"/>
        <pt x="764" y="677" on="0"/>
        <pt x="872" y="684" on="1"/>
        <pt x="874" y="684" on="0"/>
        <pt x="878" y="690" on="0"/>
        <pt x="879" y="693" on="1"/>
        <pt x="879" y="696" on="1"/>
        <pt x="675" y="1257" on="1"/>
      </contour>
    </TTGlyph>
    <TTGlyph name="AE" xMin="-38" yMin="-9" xMax="2014" yMax="1540">
      <contour>
        <pt x="-38" y="-2" on="0"/>
        <pt x="-38" y="48" on="0"/>
        <pt x="-32" y="60" on="1"/>
        <pt x="-11" y="60" on="0"/>
        <pt x="76" y="89" on="0"/>
        <pt x="100" y="104" on="1"/>
        <pt x="173" y="151" on="0"/>
        <pt x="274" y="318" on="1"/>
        <pt x="916" y="1355" on="1"/>
        <pt x="933" y="1382" on="0"/>
        <pt x="933" y="1401" on="1"/>
        <pt x="933" y="1420" on="0"/>
        <pt x="891" y="1449" on="0"/>
        <pt x="845" y="1459" on="0"/>
        <pt x="828" y="1459" on="1"/>
        <pt x="821" y="1471" on="0"/>
        <pt x="824" y="1522" on="0"/>
        <pt x="828" y="1527" on="1"/>
        <pt x="942" y="1524" on="0"/>
        <pt x="1097" y="1524" on="1"/>
        <pt x="1202" y="1524" on="0"/>
        <pt x="1711" y="1540" on="0"/>
        <pt x="1842" y="1540" on="1"/>
        <pt x="1852" y="1473" on="0"/>
        <pt x="1904" y="1252" on="0"/>
        <pt x="1909" y="1225" on="1"/>
        <pt x="1898" y="1213" on="0"/>
        <pt x="1868" y="1213" on="1"/>
        <pt x="1838" y="1213" on="0"/>
        <pt x="1835" y="1230" on="1"/>
        <pt x="1817" y="1297" on="0"/>
        <pt x="1763" y="1386" on="0"/>
        <pt x="1691" y="1431" on="0"/>
        <pt x="1617" y="1448" on="0"/>
        <pt x="1566" y="1448" on="1"/>
        <pt x="1366" y="1448" on="1"/>
        <pt x="1350" y="1448" on="0"/>
        <pt x="1309" y="1446" on="0"/>
        <pt x="1250" y="1441" on="0"/>
        <pt x="1209" y="1430" on="0"/>
        <pt x="1206" y="1422" on="1"/>
        <pt x="1195" y="1385" on="0"/>
        <pt x="1195" y="1257" on="1"/>
        <pt x="1195" y="824" on="1"/>
        <pt x="1195" y="810" on="0"/>
        <pt x="1295" y="810" on="1"/>
        <pt x="1418" y="810" on="1"/>
        <pt x="1461" y="810" on="0"/>
        <pt x="1515" y="810" on="0"/>
        <pt x="1567" y="818" on="0"/>
        <pt x="1595" y="823" on="0"/>
        <pt x="1624" y="844" on="0"/>
        <pt x="1636" y="857" on="0"/>
        <pt x="1652" y="898" on="0"/>
        <pt x="1660" y="925" on="0"/>
        <pt x="1668" y="957" on="1"/>
        <pt x="1671" y="970" on="0"/>
        <pt x="1673" y="977" on="1"/>
        <pt x="1676" y="993" on="0"/>
        <pt x="1708" y="993" on="1"/>
        <pt x="1735" y="993" on="0"/>
        <pt x="1747" y="981" on="1"/>
        <pt x="1747" y="543" on="1"/>
        <pt x="1738" y="534" on="0"/>
        <pt x="1710" y="534" on="1"/>
        <pt x="1680" y="534" on="0"/>
        <pt x="1673" y="552" on="1"/>
        <pt x="1656" y="616" on="0"/>
        <pt x="1633" y="680" on="0"/>
        <pt x="1620" y="697" on="0"/>
        <pt x="1608" y="705" on="1"/>
        <pt x="1579" y="724" on="0"/>
        <pt x="1362" y="724" on="1"/>
        <pt x="1195" y="724" on="0"/>
        <pt x="1195" y="703" on="1"/>
        <pt x="1195" y="262" on="1"/>
        <pt x="1195" y="240" on="0"/>
        <pt x="1195" y="205" on="0"/>
        <pt x="1198" y="145" on="0"/>
        <pt x="1204" y="106" on="0"/>
        <pt x="1209" y="102" on="1"/>
        <pt x="1230" y="86" on="0"/>
        <pt x="1291" y="79" on="0"/>
        <pt x="1373" y="79" on="1"/>
        <pt x="1485" y="79" on="1"/>
        <pt x="1568" y="79" on="0"/>
        <pt x="1729" y="113" on="0"/>
        <pt x="1777" y="142" on="1"/>
        <pt x="1799" y="154" on="0"/>
        <pt x="1836" y="194" on="0"/>
        <pt x="1863" y="233" on="0"/>
        <pt x="1892" y="295" on="0"/>
        <pt x="1909" y="338" on="0"/>
        <pt x="1923" y="376" on="1"/>
        <pt x="1927" y="390" on="0"/>
        <pt x="1956" y="390" on="1"/>
        <pt x="1967" y="390" on="0"/>
        <pt x="1992" y="386" on="0"/>
        <pt x="2010" y="379" on="0"/>
        <pt x="2014" y="376" on="1"/>
        <pt x="2003" y="346" on="0"/>
        <pt x="1954" y="213" on="0"/>
        <pt x="1925" y="131" on="0"/>
        <pt x="1894" y="26" on="0"/>
        <pt x="1888" y="-9" on="1"/>
        <pt x="1769" y="-9" on="0"/>
        <pt x="1259" y="0" on="0"/>
        <pt x="1097" y="0" on="1"/>
        <pt x="1028" y="0" on="0"/>
        <pt x="894" y="-3" on="0"/>
        <pt x="861" y="-5" on="1"/>
        <pt x="828" y="-7" on="1"/>
        <pt x="824" y="-2" on="0"/>
        <pt x="822" y="32" on="0"/>
        <pt x="826" y="60" on="0"/>
        <pt x="828" y="60" on="1"/>
        <pt x="856" y="60" on="0"/>
        <pt x="974" y="95" on="0"/>
        <pt x="981" y="114" on="1"/>
        <pt x="998" y="176" on="0"/>
        <pt x="998" y="313" on="1"/>
        <pt x="998" y="592" on="1"/>
        <pt x="914" y="596" on="0"/>
        <pt x="791" y="596" on="1"/>
        <pt x="764" y="596" on="0"/>
        <pt x="719" y="595" on="0"/>
        <pt x="674" y="593" on="0"/>
        <pt x="641" y="591" on="0"/>
        <pt x="579" y="586" on="0"/>
        <pt x="554" y="585" on="1"/>
        <pt x="552" y="585" on="0"/>
        <pt x="547" y="581" on="0"/>
        <pt x="545" y="579" on="1"/>
        <pt x="543" y="578" on="1"/>
        <pt x="445" y="413" on="0"/>
        <pt x="374" y="299" on="1"/>
        <pt x="281" y="155" on="0"/>
        <pt x="281" y="121" on="1"/>
        <pt x="281" y="105" on="0"/>
        <pt x="309" y="81" on="0"/>
        <pt x="346" y="69" on="0"/>
        <pt x="393" y="62" on="0"/>
        <pt x="420" y="60" on="0"/>
        <pt x="429" y="60" on="1"/>
        <pt x="434" y="55" on="0"/>
        <pt x="437" y="3" on="0"/>
        <pt x="434" y="-7" on="1"/>
        <pt x="400" y="-5" on="0"/>
        <pt x="322" y="1" on="0"/>
        <pt x="254" y="5" on="0"/>
        <pt x="209" y="5" on="1"/>
        <pt x="162" y="5" on="0"/>
        <pt x="92" y="1" on="0"/>
        <pt x="7" y="-5" on="0"/>
        <pt x="-32" y="-7" on="1"/>
      </contour>
      <contour>
        <pt x="617" y="696" on="1"/>
        <pt x="615" y="687" on="0"/>
        <pt x="619" y="687" on="1"/>
        <pt x="680" y="684" on="0"/>
        <pt x="803" y="684" on="1"/>
        <pt x="909" y="684" on="0"/>
        <pt x="998" y="689" on="1"/>
        <pt x="998" y="1313" on="1"/>
      </contour>
    </TTGlyph>
    <TTGlyph name="Aacute" xMin="-33" yMin="-7" xMax="1467" yMax="1998">
      <contour>
        <pt x="-33" y="-2" on="0"/>
        <pt x="-33" y="48" on="0"/>
        <pt x="-28" y="60" on="1"/>
        <pt x="1" y="60" on="0"/>
        <pt x="96" y="84" on="0"/>
        <pt x="111" y="104" on="1"/>
        <pt x="143" y="145" on="0"/>
        <pt x="190" y="245" on="0"/>
        <pt x="220" y="322" on="1"/>
        <pt x="527" y="1110" on="0"/>
        <pt x="668" y="1471" on="1"/>
        <pt x="672" y="1479" on="0"/>
        <pt x="695" y="1503" on="0"/>
        <pt x="722" y="1524" on="0"/>
        <pt x="749" y="1538" on="0"/>
        <pt x="756" y="1538" on="1"/>
        <pt x="760" y="1538" on="0"/>
        <pt x="767" y="1532" on="0"/>
        <pt x="770" y="1531" on="1"/>
        <pt x="1244" y="292" on="1"/>
        <pt x="1301" y="140" on="0"/>
        <pt x="1302" y="139" on="1"/>
        <pt x="1312" y="114" on="0"/>
        <pt x="1385" y="75" on="0"/>
        <pt x="1446" y="60" on="0"/>
        <pt x="1459" y="60" on="1"/>
        <pt x="1467" y="50" on="0"/>
        <pt x="1467" y="2" on="0"/>
        <pt x="1464" y="-7" on="1"/>
        <pt x="1435" y="-6" on="0"/>
        <pt x="1334" y="1" on="0"/>
        <pt x="1254" y="5" on="0"/>
        <pt x="1209" y="5" on="1"/>
        <pt x="1161" y="5" on="0"/>
        <pt x="1079" y="1" on="0"/>
        <pt x="977" y="-5" on="0"/>
        <pt x="940" y="-7" on="1"/>
        <pt x="931" y="2" on="0"/>
        <pt x="933" y="51" on="0"/>
        <pt x="942" y="60" on="1"/>
        <pt x="968" y="60" on="0"/>
        <pt x="1058" y="78" on="0"/>
        <pt x="1072" y="90" on="1"/>
        <pt x="1081" y="100" on="0"/>
        <pt x="1081" y="123" on="1"/>
        <pt x="1081" y="154" on="0"/>
        <pt x="1002" y="380" on="0"/>
        <pt x="963" y="478" on="1"/>
        <pt x="923" y="575" on="1"/>
        <pt x="916" y="585" on="0"/>
        <pt x="909" y="585" on="1"/>
        <pt x="879" y="587" on="0"/>
        <pt x="680" y="587" on="1"/>
        <pt x="534" y="587" on="0"/>
        <pt x="429" y="580" on="1"/>
        <pt x="427" y="580" on="0"/>
        <pt x="421" y="577" on="0"/>
        <pt x="419" y="575" on="1"/>
        <pt x="418" y="573" on="1"/>
        <pt x="353" y="401" on="0"/>
        <pt x="313" y="290" on="1"/>
        <pt x="281" y="195" on="0"/>
        <pt x="281" y="125" on="1"/>
        <pt x="281" y="110" on="0"/>
        <pt x="311" y="85" on="0"/>
        <pt x="352" y="72" on="0"/>
        <pt x="401" y="63" on="0"/>
        <pt x="433" y="60" on="0"/>
        <pt x="441" y="60" on="1"/>
        <pt x="446" y="55" on="0"/>
        <pt x="449" y="3" on="0"/>
        <pt x="445" y="-7" on="1"/>
        <pt x="412" y="-5" on="0"/>
        <pt x="333" y="1" on="0"/>
        <pt x="266" y="5" on="0"/>
        <pt x="220" y="5" on="1"/>
        <pt x="173" y="5" on="0"/>
        <pt x="100" y="1" on="0"/>
        <pt x="12" y="-5" on="0"/>
        <pt x="-28" y="-7" on="1"/>
      </contour>
      <contour>
        <pt x="462" y="691" on="1"/>
        <pt x="462" y="682" on="0"/>
        <pt x="466" y="682" on="1"/>
        <pt x="587" y="677" on="0"/>
        <pt x="677" y="677" on="1"/>
        <pt x="764" y="677" on="0"/>
        <pt x="872" y="684" on="1"/>
        <pt x="874" y="684" on="0"/>
        <pt x="878" y="690" on="0"/>
        <pt x="879" y="693" on="1"/>
        <pt x="879" y="696" on="1"/>
        <pt x="675" y="1257" on="1"/>
      </contour>
      <contour>
        <pt x="624" y="1710" on="1"/>
        <pt x="624" y="1723" on="0"/>
        <pt x="846" y="1947" on="0"/>
        <pt x="905" y="1991" on="1"/>
        <pt x="919" y="1998" on="0"/>
        <pt x="947" y="1998" on="1"/>
        <pt x="1007" y="1998" on="0"/>
        <pt x="1053" y="1956" on="0"/>
        <pt x="1053" y="1928" on="1"/>
        <pt x="1053" y="1900" on="0"/>
        <pt x="935" y="1814" on="0"/>
        <pt x="786" y="1742" on="0"/>
        <pt x="654" y="1689" on="0"/>
        <pt x="638" y="1689" on="1"/>
        <pt x="633" y="1689" on="0"/>
        <pt x="624" y="1704" on="0"/>
      </contour>
    </TTGlyph>
    <TTGlyph name="Acircumflex" xMin="-33" yMin="-7" xMax="1467" yMax="1993">
      <contour>
        <pt x="-33" y="-2" on="0"/>
        <pt x="-33" y="48" on="0"/>
        <pt x="-28" y="60" on="1"/>
        <pt x="1" y="60" on="0"/>
        <pt x="96" y="84" on="0"/>
        <pt x="111" y="104" on="1"/>
        <pt x="143" y="145" on="0"/>
        <pt x="190" y="245" on="0"/>
        <pt x="220" y="322" on="1"/>
        <pt x="527" y="1110" on="0"/>
        <pt x="668" y="1471" on="1"/>
        <pt x="672" y="1479" on="0"/>
        <pt x="695" y="1503" on="0"/>
        <pt x="722" y="1524" on="0"/>
        <pt x="749" y="1538" on="0"/>
        <pt x="756" y="1538" on="1"/>
        <pt x="760" y="1538" on="0"/>
        <pt x="767" y="1532" on="0"/>
        <pt x="770" y="1531" on="1"/>
        <pt x="1244" y="292" on="1"/>
        <pt x="1301" y="140" on="0"/>
        <pt x="1302" y="139" on="1"/>
        <pt x="1312" y="114" on="0"/>
        <pt x="1385" y="75" on="0"/>
        <pt x="1446" y="60" on="0"/>
        <pt x="1459" y="60" on="1"/>
        <pt x="1467" y="50" on="0"/>
        <pt x="1467" y="2" on="0"/>
        <pt x="1464" y="-7" on="1"/>
        <pt x="1435" y="-6" on="0"/>
        <pt x="1334" y="1" on="0"/>
        <pt x="1254" y="5" on="0"/>
        <pt x="1209" y="5" on="1"/>
        <pt x="1161" y="5" on="0"/>
        <pt x="1079" y="1" on="0"/>
        <pt x="977" y="-5" on="0"/>
        <pt x="940" y="-7" on="1"/>
        <pt x="931" y="2" on="0"/>
        <pt x="933" y="51" on="0"/>
        <pt x="942" y="60" on="1"/>
        <pt x="968" y="60" on="0"/>
        <pt x="1058" y="78" on="0"/>
        <pt x="1072" y="90" on="1"/>
        <pt x="1081" y="100" on="0"/>
        <pt x="1081" y="123" on="1"/>
        <pt x="1081" y="154" on="0"/>
        <pt x="1002" y="380" on="0"/>
        <pt x="963" y="478" on="1"/>
        <pt x="923" y="575" on="1"/>
        <pt x="916" y="585" on="0"/>
        <pt x="909" y="585" on="1"/>
        <pt x="879" y="587" on="0"/>
        <pt x="680" y="587" on="1"/>
        <pt x="534" y="587" on="0"/>
        <pt x="429" y="580" on="1"/>
        <pt x="427" y="580" on="0"/>
        <pt x="421" y="577" on="0"/>
        <pt x="419" y="575" on="1"/>
        <pt x="418" y="573" on="1"/>
        <pt x="353" y="401" on="0"/>
        <pt x="313" y="290" on="1"/>
        <pt x="281" y="195" on="0"/>
        <pt x="281" y="125" on="1"/>
        <pt x="281" y="110" on="0"/>
        <pt x="311" y="85" on="0"/>
        <pt x="352" y="72" on="0"/>
        <pt x="401" y="63" on="0"/>
        <pt x="433" y="60" on="0"/>
        <pt x="441" y="60" on="1"/>
        <pt x="446" y="55" on="0"/>
        <pt x="449" y="3" on="0"/>
        <pt x="445" y="-7" on="1"/>
        <pt x="412" y="-5" on="0"/>
        <pt x="333" y="1" on="0"/>
        <pt x="266" y="5" on="0"/>
        <pt x="220" y="5" on="1"/>
        <pt x="173" y="5" on="0"/>
        <pt x="100" y="1" on="0"/>
        <pt x="12" y="-5" on="0"/>
        <pt x="-28" y="-7" on="1"/>
      </contour>
      <contour>
        <pt x="462" y="691" on="1"/>
        <pt x="462" y="682" on="0"/>
        <pt x="466" y="682" on="1"/>
        <pt x="587" y="677" on="0"/>
        <pt x="677" y="677" on="1"/>
        <pt x="764" y="677" on="0"/>
        <pt x="872" y="684" on="1"/>
        <pt x="874" y="684" on="0"/>
        <pt x="878" y="690" on="0"/>
        <pt x="879" y="693" on="1"/>
        <pt x="879" y="696" on="1"/>
        <pt x="675" y="1257" on="1"/>
      </contour>
      <contour>
        <pt x="487" y="1726" on="1"/>
        <pt x="518" y="1758" on="0"/>
        <pt x="671" y="1914" on="0"/>
        <pt x="726" y="1974" on="1"/>
        <pt x="745" y="1993" on="0"/>
        <pt x="763" y="1993" on="0"/>
        <pt x="782" y="1974" on="1"/>
        <pt x="829" y="1924" on="0"/>
        <pt x="969" y="1779" on="0"/>
        <pt x="1018" y="1726" on="1"/>
        <pt x="1018" y="1714" on="0"/>
        <pt x="1005" y="1687" on="0"/>
        <pt x="995" y="1687" on="1"/>
        <pt x="754" y="1835" on="1"/>
        <pt x="513" y="1687" on="1"/>
        <pt x="503" y="1687" on="0"/>
        <pt x="487" y="1714" on="0"/>
      </contour>
    </TTGlyph>
    <TTGlyph name="Adieresis" xMin="-33" yMin="-7" xMax="1467" yMax="1921">
      <contour>
        <pt x="-33" y="-2" on="0"/>
        <pt x="-33" y="48" on="0"/>
        <pt x="-28" y="60" on="1"/>
        <pt x="1" y="60" on="0"/>
        <pt x="96" y="84" on="0"/>
        <pt x="111" y="104" on="1"/>
        <pt x="143" y="145" on="0"/>
        <pt x="190" y="245" on="0"/>
        <pt x="220" y="322" on="1"/>
        <pt x="527" y="1110" on="0"/>
        <pt x="668" y="1471" on="1"/>
        <pt x="672" y="1479" on="0"/>
        <pt x="695" y="1503" on="0"/>
        <pt x="722" y="1524" on="0"/>
        <pt x="749" y="1538" on="0"/>
        <pt x="756" y="1538" on="1"/>
        <pt x="760" y="1538" on="0"/>
        <pt x="767" y="1532" on="0"/>
        <pt x="770" y="1531" on="1"/>
        <pt x="1244" y="292" on="1"/>
        <pt x="1301" y="140" on="0"/>
        <pt x="1302" y="139" on="1"/>
        <pt x="1312" y="114" on="0"/>
        <pt x="1385" y="75" on="0"/>
        <pt x="1446" y="60" on="0"/>
        <pt x="1459" y="60" on="1"/>
        <pt x="1467" y="50" on="0"/>
        <pt x="1467" y="2" on="0"/>
        <pt x="1464" y="-7" on="1"/>
        <pt x="1435" y="-6" on="0"/>
        <pt x="1334" y="1" on="0"/>
        <pt x="1254" y="5" on="0"/>
        <pt x="1209" y="5" on="1"/>
        <pt x="1161" y="5" on="0"/>
        <pt x="1079" y="1" on="0"/>
        <pt x="977" y="-5" on="0"/>
        <pt x="940" y="-7" on="1"/>
        <pt x="931" y="2" on="0"/>
        <pt x="933" y="51" on="0"/>
        <pt x="942" y="60" on="1"/>
        <pt x="968" y="60" on="0"/>
        <pt x="1058" y="78" on="0"/>
        <pt x="1072" y="90" on="1"/>
        <pt x="1081" y="100" on="0"/>
        <pt x="1081" y="123" on="1"/>
        <pt x="1081" y="154" on="0"/>
        <pt x="1002" y="380" on="0"/>
        <pt x="963" y="478" on="1"/>
        <pt x="923" y="575" on="1"/>
        <pt x="916" y="585" on="0"/>
        <pt x="909" y="585" on="1"/>
        <pt x="879" y="587" on="0"/>
        <pt x="680" y="587" on="1"/>
        <pt x="534" y="587" on="0"/>
        <pt x="429" y="580" on="1"/>
        <pt x="427" y="580" on="0"/>
        <pt x="421" y="577" on="0"/>
        <pt x="419" y="575" on="1"/>
        <pt x="418" y="573" on="1"/>
        <pt x="353" y="401" on="0"/>
        <pt x="313" y="290" on="1"/>
        <pt x="281" y="195" on="0"/>
        <pt x="281" y="125" on="1"/>
        <pt x="281" y="110" on="0"/>
        <pt x="311" y="85" on="0"/>
        <pt x="352" y="72" on="0"/>
        <pt x="401" y="63" on="0"/>
        <pt x="433" y="60" on="0"/>
        <pt x="441" y="60" on="1"/>
        <pt x="446" y="55" on="0"/>
        <pt x="449" y="3" on="0"/>
        <pt x="445" y="-7" on="1"/>
        <pt x="412" y="-5" on="0"/>
        <pt x="333" y="1" on="0"/>
        <pt x="266" y="5" on="0"/>
        <pt x="220" y="5" on="1"/>
        <pt x="173" y="5" on="0"/>
        <pt x="100" y="1" on="0"/>
        <pt x="12" y="-5" on="0"/>
        <pt x="-28" y="-7" on="1"/>
      </contour>
      <contour>
        <pt x="429" y="1756" on="0"/>
        <pt x="429" y="1854" on="0"/>
        <pt x="496" y="1921" on="0"/>
        <pt x="594" y="1921" on="0"/>
        <pt x="661" y="1854" on="0"/>
        <pt x="661" y="1756" on="0"/>
        <pt x="594" y="1689" on="0"/>
        <pt x="496" y="1689" on="0"/>
      </contour>
      <contour>
        <pt x="462" y="691" on="1"/>
        <pt x="462" y="682" on="0"/>
        <pt x="466" y="682" on="1"/>
        <pt x="587" y="677" on="0"/>
        <pt x="677" y="677" on="1"/>
        <pt x="764" y="677" on="0"/>
        <pt x="872" y="684" on="1"/>
        <pt x="874" y="684" on="0"/>
        <pt x="878" y="690" on="0"/>
        <pt x="879" y="693" on="1"/>
        <pt x="879" y="696" on="1"/>
        <pt x="675" y="1257" on="1"/>
      </contour>
      <contour>
        <pt x="849" y="1756" on="0"/>
        <pt x="849" y="1854" on="0"/>
        <pt x="916" y="1921" on="0"/>
        <pt x="1014" y="1921" on="0"/>
        <pt x="1081" y="1854" on="0"/>
        <pt x="1081" y="1756" on="0"/>
        <pt x="1014" y="1689" on="0"/>
        <pt x="916" y="1689" on="0"/>
      </contour>
    </TTGlyph>
    <TTGlyph name="Agrave" xMin="-33" yMin="-7" xMax="1467" yMax="1998">
      <contour>
        <pt x="-33" y="-2" on="0"/>
        <pt x="-33" y="48" on="0"/>
        <pt x="-28" y="60" on="1"/>
        <pt x="1" y="60" on="0"/>
        <pt x="96" y="84" on="0"/>
        <pt x="111" y="104" on="1"/>
        <pt x="143" y="145" on="0"/>
        <pt x="190" y="245" on="0"/>
        <pt x="220" y="322" on="1"/>
        <pt x="527" y="1110" on="0"/>
        <pt x="668" y="1471" on="1"/>
        <pt x="672" y="1479" on="0"/>
        <pt x="695" y="1503" on="0"/>
        <pt x="722" y="1524" on="0"/>
        <pt x="749" y="1538" on="0"/>
        <pt x="756" y="1538" on="1"/>
        <pt x="760" y="1538" on="0"/>
        <pt x="767" y="1532" on="0"/>
        <pt x="770" y="1531" on="1"/>
        <pt x="1244" y="292" on="1"/>
        <pt x="1301" y="140" on="0"/>
        <pt x="1302" y="139" on="1"/>
        <pt x="1312" y="114" on="0"/>
        <pt x="1385" y="75" on="0"/>
        <pt x="1446" y="60" on="0"/>
        <pt x="1459" y="60" on="1"/>
        <pt x="1467" y="50" on="0"/>
        <pt x="1467" y="2" on="0"/>
        <pt x="1464" y="-7" on="1"/>
        <pt x="1435" y="-6" on="0"/>
        <pt x="1334" y="1" on="0"/>
        <pt x="1254" y="5" on="0"/>
        <pt x="1209" y="5" on="1"/>
        <pt x="1161" y="5" on="0"/>
        <pt x="1079" y="1" on="0"/>
        <pt x="977" y="-5" on="0"/>
        <pt x="940" y="-7" on="1"/>
        <pt x="931" y="2" on="0"/>
        <pt x="933" y="51" on="0"/>
        <pt x="942" y="60" on="1"/>
        <pt x="968" y="60" on="0"/>
        <pt x="1058" y="78" on="0"/>
        <pt x="1072" y="90" on="1"/>
        <pt x="1081" y="100" on="0"/>
        <pt x="1081" y="123" on="1"/>
        <pt x="1081" y="154" on="0"/>
        <pt x="1002" y="380" on="0"/>
        <pt x="963" y="478" on="1"/>
        <pt x="923" y="575" on="1"/>
        <pt x="916" y="585" on="0"/>
        <pt x="909" y="585" on="1"/>
        <pt x="879" y="587" on="0"/>
        <pt x="680" y="587" on="1"/>
        <pt x="534" y="587" on="0"/>
        <pt x="429" y="580" on="1"/>
        <pt x="427" y="580" on="0"/>
        <pt x="421" y="577" on="0"/>
        <pt x="419" y="575" on="1"/>
        <pt x="418" y="573" on="1"/>
        <pt x="353" y="401" on="0"/>
        <pt x="313" y="290" on="1"/>
        <pt x="281" y="195" on="0"/>
        <pt x="281" y="125" on="1"/>
        <pt x="281" y="110" on="0"/>
        <pt x="311" y="85" on="0"/>
        <pt x="352" y="72" on="0"/>
        <pt x="401" y="63" on="0"/>
        <pt x="433" y="60" on="0"/>
        <pt x="441" y="60" on="1"/>
        <pt x="446" y="55" on="0"/>
        <pt x="449" y="3" on="0"/>
        <pt x="445" y="-7" on="1"/>
        <pt x="412" y="-5" on="0"/>
        <pt x="333" y="1" on="0"/>
        <pt x="266" y="5" on="0"/>
        <pt x="220" y="5" on="1"/>
        <pt x="173" y="5" on="0"/>
        <pt x="100" y="1" on="0"/>
        <pt x="12" y="-5" on="0"/>
        <pt x="-28" y="-7" on="1"/>
      </contour>
      <contour>
        <pt x="394" y="1928" on="1"/>
        <pt x="394" y="1956" on="0"/>
        <pt x="441" y="1998" on="0"/>
        <pt x="501" y="1998" on="1"/>
        <pt x="529" y="1998" on="0"/>
        <pt x="543" y="1991" on="1"/>
        <pt x="601" y="1947" on="0"/>
        <pt x="824" y="1723" on="0"/>
        <pt x="824" y="1710" on="1"/>
        <pt x="824" y="1704" on="0"/>
        <pt x="815" y="1689" on="0"/>
        <pt x="810" y="1689" on="1"/>
        <pt x="794" y="1689" on="0"/>
        <pt x="662" y="1742" on="0"/>
        <pt x="513" y="1814" on="0"/>
        <pt x="394" y="1900" on="0"/>
      </contour>
      <contour>
        <pt x="462" y="691" on="1"/>
        <pt x="462" y="682" on="0"/>
        <pt x="466" y="682" on="1"/>
        <pt x="587" y="677" on="0"/>
        <pt x="677" y="677" on="1"/>
        <pt x="764" y="677" on="0"/>
        <pt x="872" y="684" on="1"/>
        <pt x="874" y="684" on="0"/>
        <pt x="878" y="690" on="0"/>
        <pt x="879" y="693" on="1"/>
        <pt x="879" y="696" on="1"/>
        <pt x="675" y="1257" on="1"/>
      </contour>
    </TTGlyph>
    <TTGlyph name="Aring" xMin="-33" yMin="-7" xMax="1467" yMax="1951">
      <contour>
        <pt x="-33" y="-2" on="0"/>
        <pt x="-33" y="48" on="0"/>
        <pt x="-28" y="60" on="1"/>
        <pt x="1" y="60" on="0"/>
        <pt x="96" y="84" on="0"/>
        <pt x="111" y="104" on="1"/>
        <pt x="143" y="145" on="0"/>
        <pt x="190" y="245" on="0"/>
        <pt x="220" y="322" on="1"/>
        <pt x="527" y="1110" on="0"/>
        <pt x="668" y="1471" on="1"/>
        <pt x="672" y="1479" on="0"/>
        <pt x="695" y="1503" on="0"/>
        <pt x="722" y="1524" on="0"/>
        <pt x="749" y="1538" on="0"/>
        <pt x="756" y="1538" on="1"/>
        <pt x="760" y="1538" on="0"/>
        <pt x="767" y="1532" on="0"/>
        <pt x="770" y="1531" on="1"/>
        <pt x="1244" y="292" on="1"/>
        <pt x="1301" y="140" on="0"/>
        <pt x="1302" y="139" on="1"/>
        <pt x="1312" y="114" on="0"/>
        <pt x="1385" y="75" on="0"/>
        <pt x="1446" y="60" on="0"/>
        <pt x="1459" y="60" on="1"/>
        <pt x="1467" y="50" on="0"/>
        <pt x="1467" y="2" on="0"/>
        <pt x="1464" y="-7" on="1"/>
        <pt x="1435" y="-6" on="0"/>
        <pt x="1334" y="1" on="0"/>
        <pt x="1254" y="5" on="0"/>
        <pt x="1209" y="5" on="1"/>
        <pt x="1161" y="5" on="0"/>
        <pt x="1079" y="1" on="0"/>
        <pt x="977" y="-5" on="0"/>
        <pt x="940" y="-7" on="1"/>
        <pt x="931" y="2" on="0"/>
        <pt x="933" y="51" on="0"/>
        <pt x="942" y="60" on="1"/>
        <pt x="968" y="60" on="0"/>
        <pt x="1058" y="78" on="0"/>
        <pt x="1072" y="90" on="1"/>
        <pt x="1081" y="100" on="0"/>
        <pt x="1081" y="123" on="1"/>
        <pt x="1081" y="154" on="0"/>
        <pt x="1002" y="380" on="0"/>
        <pt x="963" y="478" on="1"/>
        <pt x="923" y="575" on="1"/>
        <pt x="916" y="585" on="0"/>
        <pt x="909" y="585" on="1"/>
        <pt x="879" y="587" on="0"/>
        <pt x="680" y="587" on="1"/>
        <pt x="534" y="587" on="0"/>
        <pt x="429" y="580" on="1"/>
        <pt x="427" y="580" on="0"/>
        <pt x="421" y="577" on="0"/>
        <pt x="419" y="575" on="1"/>
        <pt x="418" y="573" on="1"/>
        <pt x="353" y="401" on="0"/>
        <pt x="313" y="290" on="1"/>
        <pt x="281" y="195" on="0"/>
        <pt x="281" y="125" on="1"/>
        <pt x="281" y="110" on="0"/>
        <pt x="311" y="85" on="0"/>
        <pt x="352" y="72" on="0"/>
        <pt x="401" y="63" on="0"/>
        <pt x="433" y="60" on="0"/>
        <pt x="441" y="60" on="1"/>
        <pt x="446" y="55" on="0"/>
        <pt x="449" y="3" on="0"/>
        <pt x="445" y="-7" on="1"/>
        <pt x="412" y="-5" on="0"/>
        <pt x="333" y="1" on="0"/>
        <pt x="266" y="5" on="0"/>
        <pt x="220" y="5" on="1"/>
        <pt x="173" y="5" on="0"/>
        <pt x="100" y="1" on="0"/>
        <pt x="12" y="-5" on="0"/>
        <pt x="-28" y="-7" on="1"/>
      </contour>
      <contour>
        <pt x="462" y="691" on="1"/>
        <pt x="462" y="682" on="0"/>
        <pt x="466" y="682" on="1"/>
        <pt x="587" y="677" on="0"/>
        <pt x="677" y="677" on="1"/>
        <pt x="764" y="677" on="0"/>
        <pt x="872" y="684" on="1"/>
        <pt x="874" y="684" on="0"/>
        <pt x="878" y="690" on="0"/>
        <pt x="879" y="693" on="1"/>
        <pt x="879" y="696" on="1"/>
        <pt x="675" y="1257" on="1"/>
      </contour>
      <contour>
        <pt x="541" y="1745" on="1"/>
        <pt x="541" y="1830" on="0"/>
        <pt x="663" y="1951" on="0"/>
        <pt x="747" y="1951" on="1"/>
        <pt x="831" y="1951" on="0"/>
        <pt x="949" y="1830" on="0"/>
        <pt x="949" y="1745" on="1"/>
        <pt x="949" y="1659" on="0"/>
        <pt x="830" y="1536" on="0"/>
        <pt x="747" y="1536" on="1"/>
        <pt x="663" y="1536" on="0"/>
        <pt x="541" y="1660" on="0"/>
      </contour>
      <contour>
        <pt x="617" y="1745" on="1"/>
        <pt x="617" y="1691" on="0"/>
        <pt x="694" y="1615" on="0"/>
        <pt x="747" y="1615" on="1"/>
        <pt x="799" y="1615" on="0"/>
        <pt x="872" y="1691" on="0"/>
        <pt x="872" y="1745" on="1"/>
        <pt x="872" y="1771" on="0"/>
        <pt x="853" y="1819" on="0"/>
        <pt x="819" y="1852" on="0"/>
        <pt x="773" y="1872" on="0"/>
        <pt x="747" y="1872" on="1"/>
        <pt x="694" y="1872" on="0"/>
        <pt x="617" y="1798" on="0"/>
      </contour>
    </TTGlyph>
    <TTGlyph name="Atilde" xMin="-33" yMin="-7" xMax="1467" yMax="1882">
      <contour>
        <pt x="-33" y="-2" on="0"/>
        <pt x="-33" y="48" on="0"/>
        <pt x="-28" y="60" on="1"/>
        <pt x="1" y="60" on="0"/>
        <pt x="96" y="84" on="0"/>
        <pt x="111" y="104" on="1"/>
        <pt x="143" y="145" on="0"/>
        <pt x="190" y="245" on="0"/>
        <pt x="220" y="322" on="1"/>
        <pt x="527" y="1110" on="0"/>
        <pt x="668" y="1471" on="1"/>
        <pt x="672" y="1479" on="0"/>
        <pt x="695" y="1503" on="0"/>
        <pt x="722" y="1524" on="0"/>
        <pt x="749" y="1538" on="0"/>
        <pt x="756" y="1538" on="1"/>
        <pt x="760" y="1538" on="0"/>
        <pt x="767" y="1532" on="0"/>
        <pt x="770" y="1531" on="1"/>
        <pt x="1244" y="292" on="1"/>
        <pt x="1301" y="140" on="0"/>
        <pt x="1302" y="139" on="1"/>
        <pt x="1312" y="114" on="0"/>
        <pt x="1385" y="75" on="0"/>
        <pt x="1446" y="60" on="0"/>
        <pt x="1459" y="60" on="1"/>
        <pt x="1467" y="50" on="0"/>
        <pt x="1467" y="2" on="0"/>
        <pt x="1464" y="-7" on="1"/>
        <pt x="1435" y="-6" on="0"/>
        <pt x="1334" y="1" on="0"/>
        <pt x="1254" y="5" on="0"/>
        <pt x="1209" y="5" on="1"/>
        <pt x="1161" y="5" on="0"/>
        <pt x="1079" y="1" on="0"/>
        <pt x="977" y="-5" on="0"/>
        <pt x="940" y="-7" on="1"/>
        <pt x="931" y="2" on="0"/>
        <pt x="933" y="51" on="0"/>
        <pt x="942" y="60" on="1"/>
        <pt x="968" y="60" on="0"/>
        <pt x="1058" y="78" on="0"/>
        <pt x="1072" y="90" on="1"/>
        <pt x="1081" y="100" on="0"/>
        <pt x="1081" y="123" on="1"/>
        <pt x="1081" y="154" on="0"/>
        <pt x="1002" y="380" on="0"/>
        <pt x="963" y="478" on="1"/>
        <pt x="923" y="575" on="1"/>
        <pt x="916" y="585" on="0"/>
        <pt x="909" y="585" on="1"/>
        <pt x="879" y="587" on="0"/>
        <pt x="680" y="587" on="1"/>
        <pt x="534" y="587" on="0"/>
        <pt x="429" y="580" on="1"/>
        <pt x="427" y="580" on="0"/>
        <pt x="421" y="577" on="0"/>
        <pt x="419" y="575" on="1"/>
        <pt x="418" y="573" on="1"/>
        <pt x="353" y="401" on="0"/>
        <pt x="313" y="290" on="1"/>
        <pt x="281" y="195" on="0"/>
        <pt x="281" y="125" on="1"/>
        <pt x="281" y="110" on="0"/>
        <pt x="311" y="85" on="0"/>
        <pt x="352" y="72" on="0"/>
        <pt x="401" y="63" on="0"/>
        <pt x="433" y="60" on="0"/>
        <pt x="441" y="60" on="1"/>
        <pt x="446" y="55" on="0"/>
        <pt x="449" y="3" on="0"/>
        <pt x="445" y="-7" on="1"/>
        <pt x="412" y="-5" on="0"/>
        <pt x="333" y="1" on="0"/>
        <pt x="266" y="5" on="0"/>
        <pt x="220" y="5" on="1"/>
        <pt x="173" y="5" on="0"/>
        <pt x="100" y="1" on="0"/>
        <pt x="12" y="-5" on="0"/>
        <pt x="-28" y="-7" on="1"/>
      </contour>
      <contour>
        <pt x="434" y="1717" on="1"/>
        <pt x="434" y="1756" on="0"/>
        <pt x="466" y="1798" on="1"/>
        <pt x="535" y="1882" on="0"/>
        <pt x="626" y="1882" on="1"/>
        <pt x="656" y="1882" on="0"/>
        <pt x="716" y="1865" on="0"/>
        <pt x="751" y="1847" on="0"/>
        <pt x="782" y="1830" on="1"/>
        <pt x="879" y="1775" on="0"/>
        <pt x="923" y="1775" on="1"/>
        <pt x="949" y="1775" on="0"/>
        <pt x="996" y="1791" on="0"/>
        <pt x="1028" y="1816" on="0"/>
        <pt x="1052" y="1840" on="0"/>
        <pt x="1071" y="1861" on="0"/>
        <pt x="1074" y="1863" on="1"/>
        <pt x="1081" y="1863" on="0"/>
        <pt x="1088" y="1848" on="0"/>
        <pt x="1088" y="1840" on="1"/>
        <pt x="1088" y="1800" on="0"/>
        <pt x="1056" y="1759" on="1"/>
        <pt x="985" y="1673" on="0"/>
        <pt x="896" y="1673" on="1"/>
        <pt x="877" y="1673" on="0"/>
        <pt x="841" y="1679" on="0"/>
        <pt x="814" y="1687" on="0"/>
        <pt x="778" y="1703" on="0"/>
        <pt x="759" y="1714" on="0"/>
        <pt x="740" y="1724" on="1"/>
        <pt x="721" y="1735" on="0"/>
        <pt x="700" y="1746" on="0"/>
        <pt x="665" y="1764" on="0"/>
        <pt x="640" y="1773" on="0"/>
        <pt x="610" y="1779" on="0"/>
        <pt x="596" y="1779" on="1"/>
        <pt x="570" y="1779" on="0"/>
        <pt x="524" y="1763" on="0"/>
        <pt x="492" y="1739" on="0"/>
        <pt x="469" y="1714" on="0"/>
        <pt x="451" y="1693" on="0"/>
        <pt x="448" y="1691" on="1"/>
        <pt x="443" y="1691" on="0"/>
        <pt x="437" y="1700" on="0"/>
        <pt x="434" y="1712" on="0"/>
      </contour>
      <contour>
        <pt x="462" y="691" on="1"/>
        <pt x="462" y="682" on="0"/>
        <pt x="466" y="682" on="1"/>
        <pt x="587" y="677" on="0"/>
        <pt x="677" y="677" on="1"/>
        <pt x="764" y="677" on="0"/>
        <pt x="872" y="684" on="1"/>
        <pt x="874" y="684" on="0"/>
        <pt x="878" y="690" on="0"/>
        <pt x="879" y="693" on="1"/>
        <pt x="879" y="696" on="1"/>
        <pt x="675" y="1257" on="1"/>
      </contour>
    </TTGlyph>
    <TTGlyph name="B" xMin="96" yMin="-7" xMax="1281" yMax="1536">
      <contour>
        <pt x="104" y="60" on="1"/>
        <pt x="140" y="60" on="0"/>
        <pt x="260" y="81" on="0"/>
        <pt x="264" y="97" on="1"/>
        <pt x="276" y="135" on="0"/>
        <pt x="276" y="269" on="1"/>
        <pt x="276" y="1260" on="1"/>
        <pt x="276" y="1394" on="0"/>
        <pt x="264" y="1431" on="1"/>
        <pt x="260" y="1448" on="0"/>
        <pt x="140" y="1469" on="0"/>
        <pt x="104" y="1469" on="1"/>
        <pt x="96" y="1478" on="0"/>
        <pt x="96" y="1502" on="1"/>
        <pt x="96" y="1503" on="0"/>
        <pt x="96" y="1505" on="1"/>
        <pt x="96" y="1527" on="0"/>
        <pt x="104" y="1536" on="1"/>
        <pt x="128" y="1535" on="0"/>
        <pt x="253" y="1528" on="0"/>
        <pt x="337" y="1524" on="0"/>
        <pt x="378" y="1524" on="1"/>
        <pt x="418" y="1524" on="0"/>
        <pt x="633" y="1529" on="0"/>
        <pt x="708" y="1529" on="1"/>
        <pt x="763" y="1529" on="0"/>
        <pt x="869" y="1514" on="0"/>
        <pt x="976" y="1483" on="0"/>
        <pt x="1065" y="1428" on="0"/>
        <pt x="1135" y="1354" on="0"/>
        <pt x="1174" y="1247" on="0"/>
        <pt x="1174" y="1183" on="1"/>
        <pt x="1174" y="1120" on="0"/>
        <pt x="1124" y="1001" on="0"/>
        <pt x="1049" y="916" on="0"/>
        <pt x="973" y="859" on="0"/>
        <pt x="940" y="847" on="1"/>
        <pt x="930" y="842" on="0"/>
        <pt x="940" y="835" on="1"/>
        <pt x="969" y="834" on="0"/>
        <pt x="1040" y="809" on="0"/>
        <pt x="1117" y="766" on="0"/>
        <pt x="1189" y="699" on="0"/>
        <pt x="1246" y="620" on="0"/>
        <pt x="1281" y="517" on="0"/>
        <pt x="1281" y="462" on="1"/>
        <pt x="1281" y="248" on="0"/>
        <pt x="1125" y="118" on="1"/>
        <pt x="980" y="-3" on="0"/>
        <pt x="638" y="-7" on="1"/>
        <pt x="104" y="-7" on="1"/>
        <pt x="96" y="1" on="0"/>
        <pt x="96" y="24" on="1"/>
        <pt x="96" y="50" on="0"/>
      </contour>
      <contour>
        <pt x="478" y="267" on="1"/>
        <pt x="478" y="227" on="0"/>
        <pt x="488" y="120" on="0"/>
        <pt x="499" y="109" on="1"/>
        <pt x="511" y="96" on="0"/>
        <pt x="547" y="78" on="0"/>
        <pt x="597" y="70" on="0"/>
        <pt x="646" y="67" on="0"/>
        <pt x="682" y="67" on="1"/>
        <pt x="739" y="67" on="0"/>
        <pt x="836" y="83" on="0"/>
        <pt x="937" y="129" on="0"/>
        <pt x="1007" y="202" on="0"/>
        <pt x="1051" y="327" on="0"/>
        <pt x="1051" y="408" on="1"/>
        <pt x="1051" y="770" on="0"/>
        <pt x="619" y="770" on="1"/>
        <pt x="478" y="770" on="1"/>
      </contour>
      <contour>
        <pt x="478" y="858" on="1"/>
        <pt x="673" y="858" on="1"/>
        <pt x="748" y="858" on="0"/>
        <pt x="863" y="905" on="0"/>
        <pt x="930" y="984" on="0"/>
        <pt x="963" y="1078" on="0"/>
        <pt x="963" y="1130" on="1"/>
        <pt x="963" y="1283" on="0"/>
        <pt x="769" y="1455" on="0"/>
        <pt x="606" y="1455" on="1"/>
        <pt x="500" y="1455" on="0"/>
        <pt x="490" y="1431" on="1"/>
        <pt x="478" y="1404" on="0"/>
        <pt x="478" y="1257" on="1"/>
      </contour>
    </TTGlyph>
    <TTGlyph name="C" xMin="111" yMin="-14" xMax="1466" yMax="1547">
      <contour>
        <pt x="111" y="747" on="1"/>
        <pt x="111" y="839" on="0"/>
        <pt x="150" y="1017" on="0"/>
        <pt x="224" y="1174" on="0"/>
        <pt x="328" y="1314" on="0"/>
        <pt x="463" y="1425" on="0"/>
        <pt x="618" y="1505" on="0"/>
        <pt x="799" y="1547" on="0"/>
        <pt x="896" y="1547" on="1"/>
        <pt x="1162" y="1547" on="0"/>
        <pt x="1387" y="1499" on="1"/>
        <pt x="1441" y="1179" on="0"/>
        <pt x="1441" y="1155" on="1"/>
        <pt x="1442" y="1150" on="0"/>
        <pt x="1432" y="1139" on="0"/>
        <pt x="1417" y="1131" on="0"/>
        <pt x="1398" y="1125" on="0"/>
        <pt x="1390" y="1125" on="1"/>
        <pt x="1372" y="1125" on="0"/>
        <pt x="1362" y="1132" on="1"/>
        <pt x="1358" y="1150" on="0"/>
        <pt x="1352" y="1176" on="0"/>
        <pt x="1334" y="1231" on="0"/>
        <pt x="1313" y="1274" on="0"/>
        <pt x="1275" y="1332" on="0"/>
        <pt x="1229" y="1376" on="0"/>
        <pt x="1160" y="1422" on="0"/>
        <pt x="1079" y="1452" on="0"/>
        <pt x="970" y="1471" on="0"/>
        <pt x="907" y="1471" on="1"/>
        <pt x="807" y="1471" on="0"/>
        <pt x="626" y="1393" on="0"/>
        <pt x="492" y="1260" on="0"/>
        <pt x="392" y="1088" on="0"/>
        <pt x="341" y="893" on="0"/>
        <pt x="341" y="796" on="1"/>
        <pt x="341" y="686" on="0"/>
        <pt x="388" y="475" on="0"/>
        <pt x="487" y="287" on="0"/>
        <pt x="627" y="146" on="0"/>
        <pt x="827" y="63" on="0"/>
        <pt x="944" y="63" on="1"/>
        <pt x="1126" y="63" on="0"/>
        <pt x="1250" y="174" on="1"/>
        <pt x="1355" y="268" on="0"/>
        <pt x="1392" y="443" on="1"/>
        <pt x="1398" y="444" on="0"/>
        <pt x="1404" y="444" on="1"/>
        <pt x="1437" y="444" on="0"/>
        <pt x="1466" y="425" on="1"/>
        <pt x="1466" y="380" on="0"/>
        <pt x="1407" y="109" on="0"/>
        <pt x="1385" y="90" on="1"/>
        <pt x="1200" y="-14" on="0"/>
        <pt x="886" y="-14" on="1"/>
        <pt x="751" y="-14" on="0"/>
        <pt x="508" y="65" on="0"/>
        <pt x="321" y="207" on="0"/>
        <pt x="183" y="396" on="0"/>
        <pt x="111" y="625" on="0"/>
      </contour>
    </TTGlyph>
    <TTGlyph name="Ccedilla" xMin="114" yMin="-404" xMax="1469" yMax="1547">
      <contour>
        <pt x="114" y="747" on="1"/>
        <pt x="114" y="854" on="0"/>
        <pt x="167" y="1059" on="0"/>
        <pt x="264" y="1236" on="0"/>
        <pt x="405" y="1384" on="0"/>
        <pt x="577" y="1489" on="0"/>
        <pt x="786" y="1547" on="0"/>
        <pt x="898" y="1547" on="1"/>
        <pt x="1164" y="1547" on="0"/>
        <pt x="1390" y="1499" on="1"/>
        <pt x="1443" y="1179" on="0"/>
        <pt x="1443" y="1155" on="1"/>
        <pt x="1444" y="1150" on="0"/>
        <pt x="1435" y="1139" on="0"/>
        <pt x="1420" y="1131" on="0"/>
        <pt x="1401" y="1125" on="0"/>
        <pt x="1392" y="1125" on="1"/>
        <pt x="1375" y="1125" on="0"/>
        <pt x="1364" y="1132" on="1"/>
        <pt x="1361" y="1150" on="0"/>
        <pt x="1355" y="1176" on="0"/>
        <pt x="1337" y="1231" on="0"/>
        <pt x="1316" y="1274" on="0"/>
        <pt x="1277" y="1332" on="0"/>
        <pt x="1231" y="1376" on="0"/>
        <pt x="1162" y="1422" on="0"/>
        <pt x="1081" y="1452" on="0"/>
        <pt x="972" y="1471" on="0"/>
        <pt x="909" y="1471" on="1"/>
        <pt x="810" y="1471" on="0"/>
        <pt x="629" y="1393" on="0"/>
        <pt x="494" y="1260" on="0"/>
        <pt x="394" y="1088" on="0"/>
        <pt x="343" y="893" on="0"/>
        <pt x="343" y="796" on="1"/>
        <pt x="343" y="704" on="0"/>
        <pt x="377" y="527" on="0"/>
        <pt x="442" y="363" on="0"/>
        <pt x="545" y="224" on="0"/>
        <pt x="676" y="121" on="0"/>
        <pt x="848" y="63" on="0"/>
        <pt x="947" y="63" on="1"/>
        <pt x="1129" y="63" on="0"/>
        <pt x="1253" y="174" on="1"/>
        <pt x="1357" y="268" on="0"/>
        <pt x="1394" y="443" on="1"/>
        <pt x="1435" y="447" on="0"/>
        <pt x="1469" y="425" on="1"/>
        <pt x="1469" y="400" on="0"/>
        <pt x="1442" y="251" on="0"/>
        <pt x="1402" y="103" on="0"/>
        <pt x="1387" y="90" on="1"/>
        <pt x="1202" y="-14" on="0"/>
        <pt x="889" y="-14" on="1"/>
        <pt x="776" y="-14" on="0"/>
        <pt x="568" y="42" on="0"/>
        <pt x="399" y="142" on="0"/>
        <pt x="259" y="283" on="0"/>
        <pt x="165" y="451" on="0"/>
        <pt x="114" y="645" on="0"/>
      </contour>
      <contour>
        <pt x="712" y="-341" on="1"/>
        <pt x="712" y="-332" on="0"/>
        <pt x="725" y="-315" on="0"/>
        <pt x="744" y="-304" on="0"/>
        <pt x="752" y="-304" on="1"/>
        <pt x="766" y="-304" on="0"/>
        <pt x="828" y="-339" on="0"/>
        <pt x="851" y="-339" on="1"/>
        <pt x="906" y="-339" on="0"/>
        <pt x="970" y="-285" on="0"/>
        <pt x="970" y="-248" on="1"/>
        <pt x="970" y="-204" on="0"/>
        <pt x="917" y="-155" on="0"/>
        <pt x="886" y="-155" on="1"/>
        <pt x="872" y="-155" on="0"/>
        <pt x="846" y="-161" on="0"/>
        <pt x="835" y="-166" on="0"/>
        <pt x="814" y="-174" on="1"/>
        <pt x="809" y="-174" on="0"/>
        <pt x="783" y="-147" on="0"/>
        <pt x="786" y="-139" on="1"/>
        <pt x="794" y="-126" on="0"/>
        <pt x="863" y="-23" on="0"/>
        <pt x="875" y="0" on="1"/>
        <pt x="933" y="0" on="1"/>
        <pt x="882" y="-63" on="1"/>
        <pt x="951" y="-63" on="1"/>
        <pt x="1004" y="-63" on="0"/>
        <pt x="1072" y="-142" on="0"/>
        <pt x="1072" y="-197" on="1"/>
        <pt x="1072" y="-290" on="0"/>
        <pt x="924" y="-404" on="0"/>
        <pt x="814" y="-404" on="1"/>
        <pt x="790" y="-404" on="0"/>
        <pt x="734" y="-389" on="0"/>
        <pt x="722" y="-380" on="1"/>
        <pt x="721" y="-376" on="0"/>
        <pt x="717" y="-365" on="0"/>
        <pt x="715" y="-358" on="0"/>
        <pt x="712" y="-347" on="0"/>
      </contour>
    </TTGlyph>
    <TTGlyph name="D" xMin="96" yMin="-7" xMax="1529" yMax="1536">
      <contour>
        <pt x="104" y="60" on="1"/>
        <pt x="140" y="60" on="0"/>
        <pt x="260" y="81" on="0"/>
        <pt x="264" y="97" on="1"/>
        <pt x="276" y="135" on="0"/>
        <pt x="276" y="269" on="1"/>
        <pt x="276" y="1260" on="1"/>
        <pt x="276" y="1394" on="0"/>
        <pt x="264" y="1431" on="1"/>
        <pt x="260" y="1448" on="0"/>
        <pt x="140" y="1469" on="0"/>
        <pt x="104" y="1469" on="1"/>
        <pt x="96" y="1478" on="0"/>
        <pt x="96" y="1502" on="1"/>
        <pt x="96" y="1503" on="0"/>
        <pt x="96" y="1505" on="1"/>
        <pt x="96" y="1527" on="0"/>
        <pt x="104" y="1536" on="1"/>
        <pt x="128" y="1535" on="0"/>
        <pt x="253" y="1528" on="0"/>
        <pt x="337" y="1524" on="0"/>
        <pt x="378" y="1524" on="1"/>
        <pt x="422" y="1524" on="0"/>
        <pt x="662" y="1527" on="0"/>
        <pt x="715" y="1527" on="1"/>
        <pt x="901" y="1527" on="0"/>
        <pt x="1210" y="1412" on="0"/>
        <pt x="1416" y="1211" on="0"/>
        <pt x="1529" y="935" on="0"/>
        <pt x="1529" y="775" on="1"/>
        <pt x="1529" y="687" on="0"/>
        <pt x="1504" y="527" on="0"/>
        <pt x="1447" y="368" on="0"/>
        <pt x="1359" y="235" on="0"/>
        <pt x="1224" y="119" on="0"/>
        <pt x="1053" y="39" on="0"/>
        <pt x="821" y="-7" on="0"/>
        <pt x="684" y="-7" on="1"/>
        <pt x="104" y="-7" on="1"/>
        <pt x="96" y="1" on="0"/>
        <pt x="96" y="24" on="1"/>
        <pt x="96" y="50" on="0"/>
      </contour>
      <contour>
        <pt x="480" y="267" on="1"/>
        <pt x="480" y="223" on="0"/>
        <pt x="487" y="109" on="0"/>
        <pt x="494" y="100" on="1"/>
        <pt x="518" y="67" on="0"/>
        <pt x="684" y="67" on="1"/>
        <pt x="785" y="67" on="0"/>
        <pt x="965" y="117" on="0"/>
        <pt x="1121" y="222" on="0"/>
        <pt x="1234" y="375" on="0"/>
        <pt x="1299" y="594" on="0"/>
        <pt x="1299" y="726" on="1"/>
        <pt x="1299" y="879" on="0"/>
        <pt x="1228" y="1126" on="0"/>
        <pt x="1107" y="1291" on="0"/>
        <pt x="940" y="1403" on="0"/>
        <pt x="755" y="1452" on="0"/>
        <pt x="652" y="1452" on="1"/>
        <pt x="636" y="1452" on="0"/>
        <pt x="594" y="1451" on="0"/>
        <pt x="536" y="1446" on="0"/>
        <pt x="494" y="1435" on="0"/>
        <pt x="492" y="1427" on="1"/>
        <pt x="480" y="1390" on="0"/>
        <pt x="480" y="1255" on="1"/>
      </contour>
    </TTGlyph>
    <TTGlyph name="E" xMin="96" yMin="-9" xMax="1297" yMax="1540">
      <contour>
        <pt x="104" y="60" on="1"/>
        <pt x="140" y="60" on="0"/>
        <pt x="260" y="81" on="0"/>
        <pt x="264" y="97" on="1"/>
        <pt x="276" y="135" on="0"/>
        <pt x="276" y="269" on="1"/>
        <pt x="276" y="1260" on="1"/>
        <pt x="276" y="1394" on="0"/>
        <pt x="264" y="1431" on="1"/>
        <pt x="260" y="1448" on="0"/>
        <pt x="140" y="1469" on="0"/>
        <pt x="104" y="1469" on="1"/>
        <pt x="96" y="1478" on="0"/>
        <pt x="96" y="1502" on="1"/>
        <pt x="96" y="1503" on="0"/>
        <pt x="96" y="1505" on="1"/>
        <pt x="96" y="1527" on="0"/>
        <pt x="104" y="1536" on="1"/>
        <pt x="128" y="1535" on="0"/>
        <pt x="253" y="1528" on="0"/>
        <pt x="337" y="1524" on="0"/>
        <pt x="378" y="1524" on="1"/>
        <pt x="483" y="1524" on="0"/>
        <pt x="994" y="1540" on="0"/>
        <pt x="1125" y="1540" on="1"/>
        <pt x="1135" y="1473" on="0"/>
        <pt x="1187" y="1252" on="0"/>
        <pt x="1192" y="1225" on="1"/>
        <pt x="1181" y="1213" on="0"/>
        <pt x="1151" y="1213" on="1"/>
        <pt x="1121" y="1213" on="0"/>
        <pt x="1118" y="1230" on="1"/>
        <pt x="1100" y="1297" on="0"/>
        <pt x="1046" y="1386" on="0"/>
        <pt x="974" y="1431" on="0"/>
        <pt x="900" y="1448" on="0"/>
        <pt x="849" y="1448" on="1"/>
        <pt x="650" y="1448" on="1"/>
        <pt x="634" y="1448" on="0"/>
        <pt x="592" y="1446" on="0"/>
        <pt x="533" y="1441" on="0"/>
        <pt x="492" y="1430" on="0"/>
        <pt x="490" y="1422" on="1"/>
        <pt x="478" y="1385" on="0"/>
        <pt x="478" y="1257" on="1"/>
        <pt x="478" y="824" on="1"/>
        <pt x="478" y="810" on="0"/>
        <pt x="578" y="810" on="1"/>
        <pt x="701" y="810" on="1"/>
        <pt x="744" y="810" on="0"/>
        <pt x="798" y="810" on="0"/>
        <pt x="851" y="818" on="0"/>
        <pt x="878" y="823" on="0"/>
        <pt x="907" y="844" on="0"/>
        <pt x="919" y="857" on="0"/>
        <pt x="935" y="898" on="0"/>
        <pt x="943" y="925" on="0"/>
        <pt x="951" y="957" on="1"/>
        <pt x="954" y="970" on="0"/>
        <pt x="956" y="977" on="1"/>
        <pt x="959" y="993" on="0"/>
        <pt x="991" y="993" on="1"/>
        <pt x="1018" y="993" on="0"/>
        <pt x="1030" y="981" on="1"/>
        <pt x="1030" y="543" on="1"/>
        <pt x="1021" y="534" on="0"/>
        <pt x="993" y="534" on="1"/>
        <pt x="963" y="534" on="0"/>
        <pt x="956" y="552" on="1"/>
        <pt x="939" y="616" on="0"/>
        <pt x="916" y="680" on="0"/>
        <pt x="903" y="697" on="0"/>
        <pt x="891" y="705" on="1"/>
        <pt x="862" y="724" on="0"/>
        <pt x="645" y="724" on="1"/>
        <pt x="478" y="724" on="0"/>
        <pt x="478" y="703" on="1"/>
        <pt x="478" y="262" on="1"/>
        <pt x="478" y="240" on="0"/>
        <pt x="478" y="205" on="0"/>
        <pt x="481" y="145" on="0"/>
        <pt x="487" y="106" on="0"/>
        <pt x="492" y="102" on="1"/>
        <pt x="513" y="86" on="0"/>
        <pt x="574" y="79" on="0"/>
        <pt x="657" y="80" on="1"/>
        <pt x="768" y="80" on="1"/>
        <pt x="852" y="80" on="0"/>
        <pt x="1012" y="113" on="0"/>
        <pt x="1060" y="142" on="1"/>
        <pt x="1082" y="154" on="0"/>
        <pt x="1120" y="194" on="0"/>
        <pt x="1146" y="233" on="0"/>
        <pt x="1175" y="295" on="0"/>
        <pt x="1192" y="338" on="0"/>
        <pt x="1206" y="376" on="1"/>
        <pt x="1210" y="390" on="0"/>
        <pt x="1239" y="390" on="1"/>
        <pt x="1250" y="390" on="0"/>
        <pt x="1275" y="386" on="0"/>
        <pt x="1293" y="379" on="0"/>
        <pt x="1297" y="376" on="1"/>
        <pt x="1286" y="346" on="0"/>
        <pt x="1238" y="213" on="0"/>
        <pt x="1208" y="131" on="0"/>
        <pt x="1177" y="26" on="0"/>
        <pt x="1172" y="-9" on="1"/>
        <pt x="1052" y="-9" on="0"/>
        <pt x="542" y="0" on="0"/>
        <pt x="380" y="0" on="1"/>
        <pt x="324" y="0" on="0"/>
        <pt x="147" y="-7" on="0"/>
        <pt x="104" y="-7" on="1"/>
        <pt x="96" y="1" on="0"/>
        <pt x="96" y="24" on="1"/>
        <pt x="96" y="50" on="0"/>
      </contour>
    </TTGlyph>
    <TTGlyph name="Eacute" xMin="96" yMin="-9" xMax="1297" yMax="1998">
      <contour>
        <pt x="96" y="2" on="0"/>
        <pt x="97" y="51" on="0"/>
        <pt x="104" y="60" on="1"/>
        <pt x="140" y="60" on="0"/>
        <pt x="260" y="81" on="0"/>
        <pt x="264" y="97" on="1"/>
        <pt x="276" y="135" on="0"/>
        <pt x="276" y="269" on="1"/>
        <pt x="276" y="1260" on="1"/>
        <pt x="276" y="1394" on="0"/>
        <pt x="264" y="1431" on="1"/>
        <pt x="260" y="1448" on="0"/>
        <pt x="140" y="1469" on="0"/>
        <pt x="104" y="1469" on="1"/>
        <pt x="97" y="1478" on="0"/>
        <pt x="96" y="1527" on="0"/>
        <pt x="104" y="1536" on="1"/>
        <pt x="128" y="1535" on="0"/>
        <pt x="253" y="1528" on="0"/>
        <pt x="337" y="1524" on="0"/>
        <pt x="378" y="1524" on="1"/>
        <pt x="483" y="1524" on="0"/>
        <pt x="994" y="1540" on="0"/>
        <pt x="1125" y="1540" on="1"/>
        <pt x="1135" y="1473" on="0"/>
        <pt x="1187" y="1252" on="0"/>
        <pt x="1192" y="1225" on="1"/>
        <pt x="1181" y="1213" on="0"/>
        <pt x="1151" y="1213" on="1"/>
        <pt x="1121" y="1213" on="0"/>
        <pt x="1118" y="1230" on="1"/>
        <pt x="1100" y="1297" on="0"/>
        <pt x="1046" y="1386" on="0"/>
        <pt x="974" y="1431" on="0"/>
        <pt x="900" y="1448" on="0"/>
        <pt x="849" y="1448" on="1"/>
        <pt x="650" y="1448" on="1"/>
        <pt x="634" y="1448" on="0"/>
        <pt x="592" y="1446" on="0"/>
        <pt x="533" y="1441" on="0"/>
        <pt x="492" y="1430" on="0"/>
        <pt x="490" y="1422" on="1"/>
        <pt x="478" y="1385" on="0"/>
        <pt x="478" y="1257" on="1"/>
        <pt x="478" y="824" on="1"/>
        <pt x="478" y="810" on="0"/>
        <pt x="578" y="810" on="1"/>
        <pt x="701" y="810" on="1"/>
        <pt x="744" y="810" on="0"/>
        <pt x="798" y="810" on="0"/>
        <pt x="851" y="818" on="0"/>
        <pt x="878" y="823" on="0"/>
        <pt x="907" y="844" on="0"/>
        <pt x="919" y="857" on="0"/>
        <pt x="935" y="898" on="0"/>
        <pt x="943" y="925" on="0"/>
        <pt x="951" y="957" on="1"/>
        <pt x="954" y="970" on="0"/>
        <pt x="956" y="977" on="1"/>
        <pt x="959" y="993" on="0"/>
        <pt x="991" y="993" on="1"/>
        <pt x="1018" y="993" on="0"/>
        <pt x="1030" y="981" on="1"/>
        <pt x="1030" y="543" on="1"/>
        <pt x="1021" y="534" on="0"/>
        <pt x="993" y="534" on="1"/>
        <pt x="963" y="534" on="0"/>
        <pt x="956" y="552" on="1"/>
        <pt x="939" y="616" on="0"/>
        <pt x="916" y="680" on="0"/>
        <pt x="903" y="697" on="0"/>
        <pt x="891" y="705" on="1"/>
        <pt x="862" y="724" on="0"/>
        <pt x="645" y="724" on="1"/>
        <pt x="478" y="724" on="0"/>
        <pt x="478" y="703" on="1"/>
        <pt x="478" y="262" on="1"/>
        <pt x="478" y="240" on="0"/>
        <pt x="478" y="205" on="0"/>
        <pt x="481" y="145" on="0"/>
        <pt x="487" y="106" on="0"/>
        <pt x="492" y="102" on="1"/>
        <pt x="513" y="86" on="0"/>
        <pt x="574" y="79" on="0"/>
        <pt x="657" y="79" on="1"/>
        <pt x="768" y="79" on="1"/>
        <pt x="852" y="79" on="0"/>
        <pt x="1012" y="113" on="0"/>
        <pt x="1060" y="142" on="1"/>
        <pt x="1082" y="154" on="0"/>
        <pt x="1120" y="194" on="0"/>
        <pt x="1146" y="233" on="0"/>
        <pt x="1175" y="295" on="0"/>
        <pt x="1192" y="338" on="0"/>
        <pt x="1206" y="376" on="1"/>
        <pt x="1210" y="390" on="0"/>
        <pt x="1239" y="390" on="1"/>
        <pt x="1250" y="390" on="0"/>
        <pt x="1275" y="386" on="0"/>
        <pt x="1293" y="379" on="0"/>
        <pt x="1297" y="376" on="1"/>
        <pt x="1286" y="346" on="0"/>
        <pt x="1238" y="213" on="0"/>
        <pt x="1208" y="131" on="0"/>
        <pt x="1177" y="26" on="0"/>
        <pt x="1172" y="-9" on="1"/>
        <pt x="1052" y="-9" on="0"/>
        <pt x="542" y="0" on="0"/>
        <pt x="380" y="0" on="1"/>
        <pt x="324" y="0" on="0"/>
        <pt x="147" y="-7" on="0"/>
        <pt x="104" y="-7" on="1"/>
      </contour>
      <contour>
        <pt x="594" y="1710" on="1"/>
        <pt x="594" y="1723" on="0"/>
        <pt x="816" y="1947" on="0"/>
        <pt x="875" y="1991" on="1"/>
        <pt x="889" y="1998" on="0"/>
        <pt x="916" y="1998" on="1"/>
        <pt x="977" y="1998" on="0"/>
        <pt x="1023" y="1956" on="0"/>
        <pt x="1023" y="1928" on="1"/>
        <pt x="1023" y="1900" on="0"/>
        <pt x="905" y="1814" on="0"/>
        <pt x="755" y="1742" on="0"/>
        <pt x="624" y="1689" on="0"/>
        <pt x="608" y="1689" on="1"/>
        <pt x="603" y="1689" on="0"/>
        <pt x="594" y="1704" on="0"/>
      </contour>
    </TTGlyph>
    <TTGlyph name="Ecircumflex" xMin="96" yMin="-9" xMax="1297" yMax="1993">
      <contour>
        <pt x="96" y="2" on="0"/>
        <pt x="97" y="51" on="0"/>
        <pt x="104" y="60" on="1"/>
        <pt x="140" y="60" on="0"/>
        <pt x="260" y="81" on="0"/>
        <pt x="264" y="97" on="1"/>
        <pt x="276" y="135" on="0"/>
        <pt x="276" y="269" on="1"/>
        <pt x="276" y="1260" on="1"/>
        <pt x="276" y="1394" on="0"/>
        <pt x="264" y="1431" on="1"/>
        <pt x="260" y="1448" on="0"/>
        <pt x="140" y="1469" on="0"/>
        <pt x="104" y="1469" on="1"/>
        <pt x="97" y="1478" on="0"/>
        <pt x="96" y="1527" on="0"/>
        <pt x="104" y="1536" on="1"/>
        <pt x="128" y="1535" on="0"/>
        <pt x="253" y="1528" on="0"/>
        <pt x="337" y="1524" on="0"/>
        <pt x="378" y="1524" on="1"/>
        <pt x="483" y="1524" on="0"/>
        <pt x="994" y="1540" on="0"/>
        <pt x="1125" y="1540" on="1"/>
        <pt x="1135" y="1473" on="0"/>
        <pt x="1187" y="1252" on="0"/>
        <pt x="1192" y="1225" on="1"/>
        <pt x="1181" y="1213" on="0"/>
        <pt x="1151" y="1213" on="1"/>
        <pt x="1121" y="1213" on="0"/>
        <pt x="1118" y="1230" on="1"/>
        <pt x="1100" y="1297" on="0"/>
        <pt x="1046" y="1386" on="0"/>
        <pt x="974" y="1431" on="0"/>
        <pt x="900" y="1448" on="0"/>
        <pt x="849" y="1448" on="1"/>
        <pt x="650" y="1448" on="1"/>
        <pt x="634" y="1448" on="0"/>
        <pt x="592" y="1446" on="0"/>
        <pt x="533" y="1441" on="0"/>
        <pt x="492" y="1430" on="0"/>
        <pt x="490" y="1422" on="1"/>
        <pt x="478" y="1385" on="0"/>
        <pt x="478" y="1257" on="1"/>
        <pt x="478" y="824" on="1"/>
        <pt x="478" y="810" on="0"/>
        <pt x="578" y="810" on="1"/>
        <pt x="701" y="810" on="1"/>
        <pt x="744" y="810" on="0"/>
        <pt x="798" y="810" on="0"/>
        <pt x="851" y="818" on="0"/>
        <pt x="878" y="823" on="0"/>
        <pt x="907" y="844" on="0"/>
        <pt x="919" y="857" on="0"/>
        <pt x="935" y="898" on="0"/>
        <pt x="943" y="925" on="0"/>
        <pt x="951" y="957" on="1"/>
        <pt x="954" y="970" on="0"/>
        <pt x="956" y="977" on="1"/>
        <pt x="959" y="993" on="0"/>
        <pt x="991" y="993" on="1"/>
        <pt x="1018" y="993" on="0"/>
        <pt x="1030" y="981" on="1"/>
        <pt x="1030" y="543" on="1"/>
        <pt x="1021" y="534" on="0"/>
        <pt x="993" y="534" on="1"/>
        <pt x="963" y="534" on="0"/>
        <pt x="956" y="552" on="1"/>
        <pt x="939" y="616" on="0"/>
        <pt x="916" y="680" on="0"/>
        <pt x="903" y="697" on="0"/>
        <pt x="891" y="705" on="1"/>
        <pt x="862" y="724" on="0"/>
        <pt x="645" y="724" on="1"/>
        <pt x="478" y="724" on="0"/>
        <pt x="478" y="703" on="1"/>
        <pt x="478" y="262" on="1"/>
        <pt x="478" y="240" on="0"/>
        <pt x="478" y="205" on="0"/>
        <pt x="481" y="145" on="0"/>
        <pt x="487" y="106" on="0"/>
        <pt x="492" y="102" on="1"/>
        <pt x="513" y="86" on="0"/>
        <pt x="574" y="79" on="0"/>
        <pt x="657" y="79" on="1"/>
        <pt x="768" y="79" on="1"/>
        <pt x="852" y="79" on="0"/>
        <pt x="1012" y="113" on="0"/>
        <pt x="1060" y="142" on="1"/>
        <pt x="1082" y="154" on="0"/>
        <pt x="1120" y="194" on="0"/>
        <pt x="1146" y="233" on="0"/>
        <pt x="1175" y="295" on="0"/>
        <pt x="1192" y="338" on="0"/>
        <pt x="1206" y="376" on="1"/>
        <pt x="1210" y="390" on="0"/>
        <pt x="1239" y="390" on="1"/>
        <pt x="1250" y="390" on="0"/>
        <pt x="1275" y="386" on="0"/>
        <pt x="1293" y="379" on="0"/>
        <pt x="1297" y="376" on="1"/>
        <pt x="1286" y="346" on="0"/>
        <pt x="1238" y="213" on="0"/>
        <pt x="1208" y="131" on="0"/>
        <pt x="1177" y="26" on="0"/>
        <pt x="1172" y="-9" on="1"/>
        <pt x="1052" y="-9" on="0"/>
        <pt x="542" y="0" on="0"/>
        <pt x="380" y="0" on="1"/>
        <pt x="324" y="0" on="0"/>
        <pt x="147" y="-7" on="0"/>
        <pt x="104" y="-7" on="1"/>
      </contour>
      <contour>
        <pt x="438" y="1726" on="1"/>
        <pt x="476" y="1765" on="0"/>
        <pt x="563" y="1853" on="0"/>
        <pt x="636" y="1928" on="0"/>
        <pt x="677" y="1974" on="1"/>
        <pt x="696" y="1993" on="0"/>
        <pt x="715" y="1993" on="0"/>
        <pt x="733" y="1974" on="1"/>
        <pt x="780" y="1924" on="0"/>
        <pt x="921" y="1779" on="0"/>
        <pt x="970" y="1726" on="1"/>
        <pt x="970" y="1714" on="0"/>
        <pt x="956" y="1687" on="0"/>
        <pt x="947" y="1687" on="1"/>
        <pt x="705" y="1835" on="1"/>
        <pt x="464" y="1687" on="1"/>
        <pt x="454" y="1687" on="0"/>
        <pt x="438" y="1714" on="0"/>
      </contour>
    </TTGlyph>
    <TTGlyph name="Edieresis" xMin="96" yMin="-9" xMax="1297" yMax="1921">
      <contour>
        <pt x="96" y="2" on="0"/>
        <pt x="97" y="51" on="0"/>
        <pt x="104" y="60" on="1"/>
        <pt x="140" y="60" on="0"/>
        <pt x="260" y="81" on="0"/>
        <pt x="264" y="97" on="1"/>
        <pt x="276" y="135" on="0"/>
        <pt x="276" y="269" on="1"/>
        <pt x="276" y="1260" on="1"/>
        <pt x="276" y="1394" on="0"/>
        <pt x="264" y="1431" on="1"/>
        <pt x="260" y="1448" on="0"/>
        <pt x="140" y="1469" on="0"/>
        <pt x="104" y="1469" on="1"/>
        <pt x="97" y="1478" on="0"/>
        <pt x="96" y="1527" on="0"/>
        <pt x="104" y="1536" on="1"/>
        <pt x="128" y="1535" on="0"/>
        <pt x="253" y="1528" on="0"/>
        <pt x="337" y="1524" on="0"/>
        <pt x="378" y="1524" on="1"/>
        <pt x="483" y="1524" on="0"/>
        <pt x="994" y="1540" on="0"/>
        <pt x="1125" y="1540" on="1"/>
        <pt x="1135" y="1473" on="0"/>
        <pt x="1187" y="1252" on="0"/>
        <pt x="1192" y="1225" on="1"/>
        <pt x="1181" y="1213" on="0"/>
        <pt x="1151" y="1213" on="1"/>
        <pt x="1121" y="1213" on="0"/>
        <pt x="1118" y="1230" on="1"/>
        <pt x="1100" y="1297" on="0"/>
        <pt x="1046" y="1386" on="0"/>
        <pt x="974" y="1431" on="0"/>
        <pt x="900" y="1448" on="0"/>
        <pt x="849" y="1448" on="1"/>
        <pt x="650" y="1448" on="1"/>
        <pt x="634" y="1448" on="0"/>
        <pt x="592" y="1446" on="0"/>
        <pt x="533" y="1441" on="0"/>
        <pt x="492" y="1430" on="0"/>
        <pt x="490" y="1422" on="1"/>
        <pt x="478" y="1385" on="0"/>
        <pt x="478" y="1257" on="1"/>
        <pt x="478" y="824" on="1"/>
        <pt x="478" y="810" on="0"/>
        <pt x="578" y="810" on="1"/>
        <pt x="701" y="810" on="1"/>
        <pt x="744" y="810" on="0"/>
        <pt x="798" y="810" on="0"/>
        <pt x="851" y="818" on="0"/>
        <pt x="878" y="823" on="0"/>
        <pt x="907" y="844" on="0"/>
        <pt x="919" y="857" on="0"/>
        <pt x="935" y="898" on="0"/>
        <pt x="943" y="925" on="0"/>
        <pt x="951" y="957" on="1"/>
        <pt x="954" y="970" on="0"/>
        <pt x="956" y="977" on="1"/>
        <pt x="959" y="993" on="0"/>
        <pt x="991" y="993" on="1"/>
        <pt x="1018" y="993" on="0"/>
        <pt x="1030" y="981" on="1"/>
        <pt x="1030" y="543" on="1"/>
        <pt x="1021" y="534" on="0"/>
        <pt x="993" y="534" on="1"/>
        <pt x="963" y="534" on="0"/>
        <pt x="956" y="552" on="1"/>
        <pt x="939" y="616" on="0"/>
        <pt x="916" y="680" on="0"/>
        <pt x="903" y="697" on="0"/>
        <pt x="891" y="705" on="1"/>
        <pt x="862" y="724" on="0"/>
        <pt x="645" y="724" on="1"/>
        <pt x="478" y="724" on="0"/>
        <pt x="478" y="703" on="1"/>
        <pt x="478" y="262" on="1"/>
        <pt x="478" y="240" on="0"/>
        <pt x="478" y="205" on="0"/>
        <pt x="481" y="145" on="0"/>
        <pt x="487" y="106" on="0"/>
        <pt x="492" y="102" on="1"/>
        <pt x="513" y="86" on="0"/>
        <pt x="574" y="79" on="0"/>
        <pt x="657" y="79" on="1"/>
        <pt x="768" y="79" on="1"/>
        <pt x="852" y="79" on="0"/>
        <pt x="1012" y="113" on="0"/>
        <pt x="1060" y="142" on="1"/>
        <pt x="1082" y="154" on="0"/>
        <pt x="1120" y="194" on="0"/>
        <pt x="1146" y="233" on="0"/>
        <pt x="1175" y="295" on="0"/>
        <pt x="1192" y="338" on="0"/>
        <pt x="1206" y="376" on="1"/>
        <pt x="1210" y="390" on="0"/>
        <pt x="1239" y="390" on="1"/>
        <pt x="1250" y="390" on="0"/>
        <pt x="1275" y="386" on="0"/>
        <pt x="1293" y="379" on="0"/>
        <pt x="1297" y="376" on="1"/>
        <pt x="1286" y="346" on="0"/>
        <pt x="1238" y="213" on="0"/>
        <pt x="1208" y="131" on="0"/>
        <pt x="1177" y="26" on="0"/>
        <pt x="1172" y="-9" on="1"/>
        <pt x="1052" y="-9" on="0"/>
        <pt x="542" y="0" on="0"/>
        <pt x="380" y="0" on="1"/>
        <pt x="324" y="0" on="0"/>
        <pt x="147" y="-7" on="0"/>
        <pt x="104" y="-7" on="1"/>
      </contour>
      <contour>
        <pt x="362" y="1756" on="0"/>
        <pt x="362" y="1854" on="0"/>
        <pt x="429" y="1921" on="0"/>
        <pt x="527" y="1921" on="0"/>
        <pt x="594" y="1854" on="0"/>
        <pt x="594" y="1756" on="0"/>
        <pt x="527" y="1689" on="0"/>
        <pt x="429" y="1689" on="0"/>
      </contour>
      <contour>
        <pt x="782" y="1756" on="0"/>
        <pt x="782" y="1854" on="0"/>
        <pt x="849" y="1921" on="0"/>
        <pt x="947" y="1921" on="0"/>
        <pt x="1014" y="1854" on="0"/>
        <pt x="1014" y="1756" on="0"/>
        <pt x="947" y="1689" on="0"/>
        <pt x="849" y="1689" on="0"/>
      </contour>
    </TTGlyph>
    <TTGlyph name="Egrave" xMin="96" yMin="-9" xMax="1297" yMax="1998">
      <contour>
        <pt x="96" y="2" on="0"/>
        <pt x="97" y="51" on="0"/>
        <pt x="104" y="60" on="1"/>
        <pt x="140" y="60" on="0"/>
        <pt x="260" y="81" on="0"/>
        <pt x="264" y="97" on="1"/>
        <pt x="276" y="135" on="0"/>
        <pt x="276" y="269" on="1"/>
        <pt x="276" y="1260" on="1"/>
        <pt x="276" y="1394" on="0"/>
        <pt x="264" y="1431" on="1"/>
        <pt x="260" y="1448" on="0"/>
        <pt x="140" y="1469" on="0"/>
        <pt x="104" y="1469" on="1"/>
        <pt x="97" y="1478" on="0"/>
        <pt x="96" y="1527" on="0"/>
        <pt x="104" y="1536" on="1"/>
        <pt x="128" y="1535" on="0"/>
        <pt x="253" y="1528" on="0"/>
        <pt x="337" y="1524" on="0"/>
        <pt x="378" y="1524" on="1"/>
        <pt x="483" y="1524" on="0"/>
        <pt x="994" y="1540" on="0"/>
        <pt x="1125" y="1540" on="1"/>
        <pt x="1135" y="1473" on="0"/>
        <pt x="1187" y="1252" on="0"/>
        <pt x="1192" y="1225" on="1"/>
        <pt x="1181" y="1213" on="0"/>
        <pt x="1151" y="1213" on="1"/>
        <pt x="1121" y="1213" on="0"/>
        <pt x="1118" y="1230" on="1"/>
        <pt x="1100" y="1297" on="0"/>
        <pt x="1046" y="1386" on="0"/>
        <pt x="974" y="1431" on="0"/>
        <pt x="900" y="1448" on="0"/>
        <pt x="849" y="1448" on="1"/>
        <pt x="650" y="1448" on="1"/>
        <pt x="634" y="1448" on="0"/>
        <pt x="592" y="1446" on="0"/>
        <pt x="533" y="1441" on="0"/>
        <pt x="492" y="1430" on="0"/>
        <pt x="490" y="1422" on="1"/>
        <pt x="478" y="1385" on="0"/>
        <pt x="478" y="1257" on="1"/>
        <pt x="478" y="824" on="1"/>
        <pt x="478" y="810" on="0"/>
        <pt x="578" y="810" on="1"/>
        <pt x="701" y="810" on="1"/>
        <pt x="744" y="810" on="0"/>
        <pt x="798" y="810" on="0"/>
        <pt x="851" y="818" on="0"/>
        <pt x="878" y="823" on="0"/>
        <pt x="907" y="844" on="0"/>
        <pt x="919" y="857" on="0"/>
        <pt x="935" y="898" on="0"/>
        <pt x="943" y="925" on="0"/>
        <pt x="951" y="957" on="1"/>
        <pt x="954" y="970" on="0"/>
        <pt x="956" y="977" on="1"/>
        <pt x="959" y="993" on="0"/>
        <pt x="991" y="993" on="1"/>
        <pt x="1018" y="993" on="0"/>
        <pt x="1030" y="981" on="1"/>
        <pt x="1030" y="543" on="1"/>
        <pt x="1021" y="534" on="0"/>
        <pt x="993" y="534" on="1"/>
        <pt x="963" y="534" on="0"/>
        <pt x="956" y="552" on="1"/>
        <pt x="939" y="616" on="0"/>
        <pt x="916" y="680" on="0"/>
        <pt x="903" y="697" on="0"/>
        <pt x="891" y="705" on="1"/>
        <pt x="862" y="724" on="0"/>
        <pt x="645" y="724" on="1"/>
        <pt x="478" y="724" on="0"/>
        <pt x="478" y="703" on="1"/>
        <pt x="478" y="262" on="1"/>
        <pt x="478" y="240" on="0"/>
        <pt x="478" y="205" on="0"/>
        <pt x="481" y="145" on="0"/>
        <pt x="487" y="106" on="0"/>
        <pt x="492" y="102" on="1"/>
        <pt x="513" y="86" on="0"/>
        <pt x="574" y="79" on="0"/>
        <pt x="657" y="79" on="1"/>
        <pt x="768" y="79" on="1"/>
        <pt x="852" y="79" on="0"/>
        <pt x="1012" y="113" on="0"/>
        <pt x="1060" y="142" on="1"/>
        <pt x="1082" y="154" on="0"/>
        <pt x="1120" y="194" on="0"/>
        <pt x="1146" y="233" on="0"/>
        <pt x="1175" y="295" on="0"/>
        <pt x="1192" y="338" on="0"/>
        <pt x="1206" y="376" on="1"/>
        <pt x="1210" y="390" on="0"/>
        <pt x="1239" y="390" on="1"/>
        <pt x="1250" y="390" on="0"/>
        <pt x="1275" y="386" on="0"/>
        <pt x="1293" y="379" on="0"/>
        <pt x="1297" y="376" on="1"/>
        <pt x="1286" y="346" on="0"/>
        <pt x="1238" y="213" on="0"/>
        <pt x="1208" y="131" on="0"/>
        <pt x="1177" y="26" on="0"/>
        <pt x="1172" y="-9" on="1"/>
        <pt x="1052" y="-9" on="0"/>
        <pt x="542" y="0" on="0"/>
        <pt x="380" y="0" on="1"/>
        <pt x="324" y="0" on="0"/>
        <pt x="147" y="-7" on="0"/>
        <pt x="104" y="-7" on="1"/>
      </contour>
      <contour>
        <pt x="367" y="1928" on="1"/>
        <pt x="367" y="1940" on="0"/>
        <pt x="375" y="1962" on="0"/>
        <pt x="396" y="1984" on="0"/>
        <pt x="441" y="1998" on="0"/>
        <pt x="473" y="1998" on="1"/>
        <pt x="501" y="1998" on="0"/>
        <pt x="515" y="1991" on="1"/>
        <pt x="573" y="1947" on="0"/>
        <pt x="796" y="1723" on="0"/>
        <pt x="796" y="1710" on="1"/>
        <pt x="796" y="1704" on="0"/>
        <pt x="787" y="1689" on="0"/>
        <pt x="782" y="1689" on="1"/>
        <pt x="766" y="1689" on="0"/>
        <pt x="634" y="1742" on="0"/>
        <pt x="485" y="1814" on="0"/>
        <pt x="367" y="1900" on="0"/>
      </contour>
    </TTGlyph>
    <TTGlyph name="Eth" xMin="96" yMin="-7" xMax="1529" yMax="1536">
      <contour>
        <pt x="96" y="2" on="0"/>
        <pt x="97" y="51" on="0"/>
        <pt x="104" y="60" on="1"/>
        <pt x="140" y="60" on="0"/>
        <pt x="260" y="81" on="0"/>
        <pt x="264" y="97" on="1"/>
        <pt x="276" y="135" on="0"/>
        <pt x="276" y="269" on="1"/>
        <pt x="276" y="1260" on="1"/>
        <pt x="276" y="1394" on="0"/>
        <pt x="264" y="1431" on="1"/>
        <pt x="260" y="1448" on="0"/>
        <pt x="140" y="1469" on="0"/>
        <pt x="104" y="1469" on="1"/>
        <pt x="97" y="1478" on="0"/>
        <pt x="96" y="1527" on="0"/>
        <pt x="104" y="1536" on="1"/>
        <pt x="128" y="1535" on="0"/>
        <pt x="253" y="1528" on="0"/>
        <pt x="337" y="1524" on="0"/>
        <pt x="378" y="1524" on="1"/>
        <pt x="422" y="1524" on="0"/>
        <pt x="662" y="1527" on="0"/>
        <pt x="715" y="1527" on="1"/>
        <pt x="901" y="1527" on="0"/>
        <pt x="1210" y="1412" on="0"/>
        <pt x="1416" y="1211" on="0"/>
        <pt x="1529" y="935" on="0"/>
        <pt x="1529" y="775" on="1"/>
        <pt x="1529" y="687" on="0"/>
        <pt x="1504" y="527" on="0"/>
        <pt x="1447" y="368" on="0"/>
        <pt x="1359" y="235" on="0"/>
        <pt x="1224" y="119" on="0"/>
        <pt x="1053" y="39" on="0"/>
        <pt x="821" y="-7" on="0"/>
        <pt x="684" y="-7" on="1"/>
        <pt x="104" y="-7" on="1"/>
      </contour>
      <contour>
        <pt x="109" y="722" on="0"/>
        <pt x="105" y="755" on="0"/>
        <pt x="110" y="798" on="0"/>
        <pt x="116" y="807" on="1"/>
        <pt x="847" y="807" on="1"/>
        <pt x="851" y="807" on="0"/>
        <pt x="855" y="773" on="0"/>
        <pt x="851" y="732" on="0"/>
        <pt x="847" y="722" on="1"/>
        <pt x="114" y="722" on="1"/>
      </contour>
      <contour>
        <pt x="480" y="267" on="1"/>
        <pt x="480" y="223" on="0"/>
        <pt x="487" y="109" on="0"/>
        <pt x="494" y="100" on="1"/>
        <pt x="518" y="67" on="0"/>
        <pt x="684" y="67" on="1"/>
        <pt x="785" y="67" on="0"/>
        <pt x="965" y="117" on="0"/>
        <pt x="1121" y="222" on="0"/>
        <pt x="1234" y="375" on="0"/>
        <pt x="1299" y="594" on="0"/>
        <pt x="1299" y="726" on="1"/>
        <pt x="1299" y="879" on="0"/>
        <pt x="1228" y="1126" on="0"/>
        <pt x="1107" y="1291" on="0"/>
        <pt x="940" y="1403" on="0"/>
        <pt x="755" y="1452" on="0"/>
        <pt x="652" y="1452" on="1"/>
        <pt x="636" y="1452" on="0"/>
        <pt x="594" y="1451" on="0"/>
        <pt x="536" y="1446" on="0"/>
        <pt x="494" y="1435" on="0"/>
        <pt x="492" y="1427" on="1"/>
        <pt x="480" y="1390" on="0"/>
        <pt x="480" y="1255" on="1"/>
      </contour>
    </TTGlyph>
    <TTGlyph name="Euro" xMin="72" yMin="-14" xMax="1513" yMax="1485">
      <contour>
        <pt x="84" y="554" on="1"/>
        <pt x="72" y="554" on="0"/>
        <pt x="84" y="589" on="1"/>
        <pt x="98" y="641" on="0"/>
        <pt x="121" y="666" on="1"/>
        <pt x="213" y="666" on="1"/>
        <pt x="211" y="682" on="0"/>
        <pt x="211" y="752" on="0"/>
        <pt x="216" y="812" on="1"/>
        <pt x="84" y="812" on="1"/>
        <pt x="72" y="812" on="0"/>
        <pt x="84" y="847" on="1"/>
        <pt x="98" y="899" on="0"/>
        <pt x="121" y="923" on="1"/>
        <pt x="237" y="923" on="1"/>
        <pt x="269" y="1043" on="0"/>
        <pt x="403" y="1249" on="0"/>
        <pt x="589" y="1399" on="0"/>
        <pt x="831" y="1485" on="0"/>
        <pt x="965" y="1485" on="1"/>
        <pt x="1216" y="1485" on="0"/>
        <pt x="1436" y="1438" on="1"/>
        <pt x="1487" y="1132" on="0"/>
        <pt x="1487" y="1109" on="1"/>
        <pt x="1487" y="1093" on="0"/>
        <pt x="1460" y="1076" on="0"/>
        <pt x="1441" y="1076" on="1"/>
        <pt x="1417" y="1076" on="0"/>
        <pt x="1411" y="1086" on="1"/>
        <pt x="1407" y="1103" on="0"/>
        <pt x="1401" y="1128" on="0"/>
        <pt x="1384" y="1180" on="0"/>
        <pt x="1364" y="1219" on="0"/>
        <pt x="1327" y="1274" on="0"/>
        <pt x="1282" y="1315" on="0"/>
        <pt x="1216" y="1358" on="0"/>
        <pt x="1139" y="1386" on="0"/>
        <pt x="1034" y="1404" on="0"/>
        <pt x="974" y="1404" on="1"/>
        <pt x="875" y="1404" on="0"/>
        <pt x="697" y="1326" on="0"/>
        <pt x="565" y="1192" on="0"/>
        <pt x="472" y="1020" on="0"/>
        <pt x="450" y="923" on="1"/>
        <pt x="1030" y="923" on="1"/>
        <pt x="1042" y="923" on="0"/>
        <pt x="1030" y="886" on="1"/>
        <pt x="1016" y="838" on="0"/>
        <pt x="993" y="812" on="1"/>
        <pt x="434" y="812" on="1"/>
        <pt x="432" y="796" on="0"/>
        <pt x="432" y="731" on="0"/>
        <pt x="436" y="666" on="1"/>
        <pt x="1030" y="666" on="1"/>
        <pt x="1042" y="666" on="0"/>
        <pt x="1030" y="629" on="1"/>
        <pt x="1016" y="580" on="0"/>
        <pt x="993" y="554" on="1"/>
        <pt x="455" y="554" on="1"/>
        <pt x="479" y="453" on="0"/>
        <pt x="572" y="281" on="0"/>
        <pt x="708" y="146" on="0"/>
        <pt x="899" y="70" on="0"/>
        <pt x="1012" y="70" on="1"/>
        <pt x="1363" y="70" on="0"/>
        <pt x="1441" y="425" on="1"/>
        <pt x="1454" y="425" on="0"/>
        <pt x="1490" y="416" on="0"/>
        <pt x="1501" y="412" on="1"/>
        <pt x="1513" y="408" on="1"/>
        <pt x="1513" y="385" on="0"/>
        <pt x="1486" y="242" on="0"/>
        <pt x="1448" y="99" on="0"/>
        <pt x="1434" y="86" on="1"/>
        <pt x="1258" y="-14" on="0"/>
        <pt x="956" y="-14" on="1"/>
        <pt x="845" y="-14" on="0"/>
        <pt x="640" y="43" on="0"/>
        <pt x="473" y="146" on="0"/>
        <pt x="340" y="286" on="0"/>
        <pt x="251" y="459" on="0"/>
        <pt x="230" y="554" on="1"/>
      </contour>
    </TTGlyph>
    <TTGlyph name="F" xMin="96" yMin="-7" xMax="1192" yMax="1540">
      <contour>
        <pt x="104" y="60" on="1"/>
        <pt x="140" y="60" on="0"/>
        <pt x="260" y="81" on="0"/>
        <pt x="264" y="97" on="1"/>
        <pt x="276" y="135" on="0"/>
        <pt x="276" y="269" on="1"/>
        <pt x="276" y="1260" on="1"/>
        <pt x="276" y="1394" on="0"/>
        <pt x="264" y="1431" on="1"/>
        <pt x="260" y="1448" on="0"/>
        <pt x="140" y="1469" on="0"/>
        <pt x="104" y="1469" on="1"/>
        <pt x="96" y="1478" on="0"/>
        <pt x="96" y="1502" on="1"/>
        <pt x="96" y="1503" on="0"/>
        <pt x="96" y="1505" on="1"/>
        <pt x="96" y="1527" on="0"/>
        <pt x="104" y="1536" on="1"/>
        <pt x="128" y="1535" on="0"/>
        <pt x="253" y="1528" on="0"/>
        <pt x="337" y="1524" on="0"/>
        <pt x="378" y="1524" on="1"/>
        <pt x="483" y="1524" on="0"/>
        <pt x="994" y="1540" on="0"/>
        <pt x="1125" y="1540" on="1"/>
        <pt x="1135" y="1473" on="0"/>
        <pt x="1187" y="1252" on="0"/>
        <pt x="1192" y="1225" on="1"/>
        <pt x="1181" y="1213" on="0"/>
        <pt x="1151" y="1213" on="1"/>
        <pt x="1121" y="1213" on="0"/>
        <pt x="1118" y="1230" on="1"/>
        <pt x="1100" y="1297" on="0"/>
        <pt x="1046" y="1386" on="0"/>
        <pt x="974" y="1431" on="0"/>
        <pt x="900" y="1448" on="0"/>
        <pt x="849" y="1448" on="1"/>
        <pt x="650" y="1448" on="1"/>
        <pt x="634" y="1448" on="0"/>
        <pt x="592" y="1446" on="0"/>
        <pt x="533" y="1441" on="0"/>
        <pt x="492" y="1430" on="0"/>
        <pt x="490" y="1422" on="1"/>
        <pt x="478" y="1385" on="0"/>
        <pt x="478" y="1257" on="1"/>
        <pt x="478" y="824" on="1"/>
        <pt x="478" y="810" on="0"/>
        <pt x="578" y="810" on="1"/>
        <pt x="701" y="810" on="1"/>
        <pt x="744" y="810" on="0"/>
        <pt x="798" y="810" on="0"/>
        <pt x="851" y="818" on="0"/>
        <pt x="878" y="823" on="0"/>
        <pt x="907" y="844" on="0"/>
        <pt x="919" y="857" on="0"/>
        <pt x="935" y="898" on="0"/>
        <pt x="943" y="925" on="0"/>
        <pt x="951" y="957" on="1"/>
        <pt x="954" y="970" on="0"/>
        <pt x="956" y="977" on="1"/>
        <pt x="959" y="993" on="0"/>
        <pt x="991" y="993" on="1"/>
        <pt x="1018" y="993" on="0"/>
        <pt x="1030" y="981" on="1"/>
        <pt x="1030" y="543" on="1"/>
        <pt x="1021" y="534" on="0"/>
        <pt x="993" y="534" on="1"/>
        <pt x="963" y="534" on="0"/>
        <pt x="956" y="552" on="1"/>
        <pt x="939" y="616" on="0"/>
        <pt x="916" y="680" on="0"/>
        <pt x="903" y="697" on="0"/>
        <pt x="891" y="705" on="1"/>
        <pt x="862" y="724" on="0"/>
        <pt x="645" y="724" on="1"/>
        <pt x="478" y="724" on="0"/>
        <pt x="478" y="703" on="1"/>
        <pt x="478" y="269" on="1"/>
        <pt x="478" y="135" on="0"/>
        <pt x="490" y="97" on="1"/>
        <pt x="494" y="81" on="0"/>
        <pt x="635" y="60" on="0"/>
        <pt x="673" y="60" on="1"/>
        <pt x="680" y="51" on="0"/>
        <pt x="681" y="2" on="0"/>
        <pt x="673" y="-7" on="1"/>
        <pt x="435" y="5" on="0"/>
        <pt x="321" y="5" on="0"/>
        <pt x="147" y="-7" on="0"/>
        <pt x="104" y="-7" on="1"/>
        <pt x="96" y="1" on="0"/>
        <pt x="96" y="24" on="1"/>
        <pt x="96" y="50" on="0"/>
      </contour>
    </TTGlyph>
    <TTGlyph name="G" xMin="111" yMin="-14" xMax="1611" yMax="1547">
      <contour>
        <pt x="111" y="747" on="1"/>
        <pt x="111" y="839" on="0"/>
        <pt x="150" y="1017" on="0"/>
        <pt x="224" y="1174" on="0"/>
        <pt x="328" y="1314" on="0"/>
        <pt x="463" y="1425" on="0"/>
        <pt x="618" y="1505" on="0"/>
        <pt x="799" y="1547" on="0"/>
        <pt x="896" y="1547" on="1"/>
        <pt x="1162" y="1547" on="0"/>
        <pt x="1387" y="1499" on="1"/>
        <pt x="1441" y="1179" on="0"/>
        <pt x="1441" y="1155" on="1"/>
        <pt x="1442" y="1150" on="0"/>
        <pt x="1432" y="1139" on="0"/>
        <pt x="1417" y="1131" on="0"/>
        <pt x="1398" y="1125" on="0"/>
        <pt x="1390" y="1125" on="1"/>
        <pt x="1372" y="1125" on="0"/>
        <pt x="1362" y="1132" on="1"/>
        <pt x="1358" y="1150" on="0"/>
        <pt x="1352" y="1176" on="0"/>
        <pt x="1334" y="1231" on="0"/>
        <pt x="1313" y="1274" on="0"/>
        <pt x="1275" y="1332" on="0"/>
        <pt x="1229" y="1376" on="0"/>
        <pt x="1160" y="1422" on="0"/>
        <pt x="1079" y="1452" on="0"/>
        <pt x="970" y="1471" on="0"/>
        <pt x="907" y="1471" on="1"/>
        <pt x="807" y="1471" on="0"/>
        <pt x="626" y="1393" on="0"/>
        <pt x="492" y="1260" on="0"/>
        <pt x="392" y="1088" on="0"/>
        <pt x="341" y="893" on="0"/>
        <pt x="341" y="796" on="1"/>
        <pt x="341" y="718" on="0"/>
        <pt x="365" y="565" on="0"/>
        <pt x="415" y="419" on="0"/>
        <pt x="486" y="291" on="0"/>
        <pt x="587" y="183" on="0"/>
        <pt x="707" y="106" on="0"/>
        <pt x="859" y="63" on="0"/>
        <pt x="944" y="63" on="1"/>
        <pt x="1025" y="63" on="0"/>
        <pt x="1158" y="103" on="0"/>
        <pt x="1225" y="137" on="1"/>
        <pt x="1241" y="145" on="0"/>
        <pt x="1241" y="172" on="1"/>
        <pt x="1241" y="406" on="1"/>
        <pt x="1241" y="541" on="0"/>
        <pt x="1230" y="578" on="1"/>
        <pt x="1225" y="594" on="0"/>
        <pt x="1107" y="615" on="0"/>
        <pt x="1072" y="615" on="1"/>
        <pt x="1065" y="624" on="0"/>
        <pt x="1063" y="673" on="0"/>
        <pt x="1072" y="682" on="1"/>
        <pt x="1097" y="681" on="0"/>
        <pt x="1219" y="674" on="0"/>
        <pt x="1303" y="670" on="0"/>
        <pt x="1384" y="670" on="0"/>
        <pt x="1464" y="674" on="0"/>
        <pt x="1574" y="681" on="0"/>
        <pt x="1603" y="682" on="1"/>
        <pt x="1611" y="674" on="0"/>
        <pt x="1611" y="651" on="1"/>
        <pt x="1611" y="625" on="0"/>
        <pt x="1603" y="615" on="1"/>
        <pt x="1569" y="615" on="0"/>
        <pt x="1457" y="594" on="0"/>
        <pt x="1452" y="578" on="1"/>
        <pt x="1441" y="541" on="0"/>
        <pt x="1441" y="406" on="1"/>
        <pt x="1441" y="241" on="1"/>
        <pt x="1441" y="220" on="0"/>
        <pt x="1452" y="184" on="0"/>
        <pt x="1464" y="157" on="0"/>
        <pt x="1464" y="148" on="1"/>
        <pt x="1464" y="141" on="0"/>
        <pt x="1457" y="131" on="0"/>
        <pt x="1438" y="117" on="0"/>
        <pt x="1418" y="107" on="1"/>
        <pt x="1376" y="85" on="0"/>
        <pt x="1328" y="61" on="0"/>
        <pt x="1225" y="23" on="0"/>
        <pt x="1127" y="2" on="0"/>
        <pt x="974" y="-14" on="0"/>
        <pt x="886" y="-14" on="1"/>
        <pt x="751" y="-14" on="0"/>
        <pt x="508" y="65" on="0"/>
        <pt x="321" y="207" on="0"/>
        <pt x="183" y="396" on="0"/>
        <pt x="111" y="625" on="0"/>
      </contour>
    </TTGlyph>
    <TTGlyph name="H" xMin="96" yMin="-7" xMax="1588" yMax="1536">
      <contour>
        <pt x="104" y="67" on="1"/>
        <pt x="140" y="67" on="0"/>
        <pt x="260" y="88" on="0"/>
        <pt x="264" y="104" on="1"/>
        <pt x="276" y="142" on="0"/>
        <pt x="276" y="276" on="1"/>
        <pt x="276" y="1253" on="1"/>
        <pt x="276" y="1387" on="0"/>
        <pt x="264" y="1424" on="1"/>
        <pt x="260" y="1441" on="0"/>
        <pt x="140" y="1462" on="0"/>
        <pt x="104" y="1462" on="1"/>
        <pt x="96" y="1471" on="0"/>
        <pt x="96" y="1499" on="1"/>
        <pt x="96" y="1501" on="0"/>
        <pt x="96" y="1502" on="1"/>
        <pt x="96" y="1527" on="0"/>
        <pt x="104" y="1536" on="1"/>
        <pt x="128" y="1535" on="0"/>
        <pt x="253" y="1528" on="0"/>
        <pt x="337" y="1524" on="0"/>
        <pt x="378" y="1524" on="1"/>
        <pt x="410" y="1524" on="0"/>
        <pt x="483" y="1527" on="0"/>
        <pt x="539" y="1530" on="0"/>
        <pt x="623" y="1535" on="0"/>
        <pt x="650" y="1536" on="1"/>
        <pt x="658" y="1527" on="0"/>
        <pt x="657" y="1471" on="0"/>
        <pt x="650" y="1462" on="1"/>
        <pt x="614" y="1462" on="0"/>
        <pt x="494" y="1441" on="0"/>
        <pt x="490" y="1424" on="1"/>
        <pt x="478" y="1387" on="0"/>
        <pt x="478" y="1253" on="1"/>
        <pt x="478" y="847" on="1"/>
        <pt x="478" y="845" on="0"/>
        <pt x="480" y="841" on="0"/>
        <pt x="481" y="841" on="1"/>
        <pt x="483" y="840" on="1"/>
        <pt x="824" y="833" on="0"/>
        <pt x="847" y="833" on="1"/>
        <pt x="889" y="833" on="0"/>
        <pt x="1202" y="840" on="1"/>
        <pt x="1206" y="844" on="0"/>
        <pt x="1206" y="849" on="1"/>
        <pt x="1206" y="1253" on="1"/>
        <pt x="1206" y="1387" on="0"/>
        <pt x="1195" y="1424" on="1"/>
        <pt x="1190" y="1441" on="0"/>
        <pt x="1070" y="1462" on="0"/>
        <pt x="1035" y="1462" on="1"/>
        <pt x="1027" y="1471" on="0"/>
        <pt x="1026" y="1527" on="0"/>
        <pt x="1035" y="1536" on="1"/>
        <pt x="1058" y="1535" on="0"/>
        <pt x="1183" y="1528" on="0"/>
        <pt x="1268" y="1524" on="0"/>
        <pt x="1308" y="1524" on="1"/>
        <pt x="1340" y="1524" on="0"/>
        <pt x="1414" y="1527" on="0"/>
        <pt x="1469" y="1530" on="0"/>
        <pt x="1554" y="1535" on="0"/>
        <pt x="1580" y="1536" on="1"/>
        <pt x="1588" y="1528" on="0"/>
        <pt x="1588" y="1502" on="1"/>
        <pt x="1588" y="1500" on="0"/>
        <pt x="1588" y="1499" on="1"/>
        <pt x="1588" y="1471" on="0"/>
        <pt x="1580" y="1462" on="1"/>
        <pt x="1545" y="1462" on="0"/>
        <pt x="1424" y="1441" on="0"/>
        <pt x="1420" y="1424" on="1"/>
        <pt x="1408" y="1387" on="0"/>
        <pt x="1408" y="1253" on="1"/>
        <pt x="1408" y="276" on="1"/>
        <pt x="1408" y="142" on="0"/>
        <pt x="1420" y="104" on="1"/>
        <pt x="1424" y="88" on="0"/>
        <pt x="1545" y="67" on="0"/>
        <pt x="1580" y="67" on="1"/>
        <pt x="1588" y="58" on="0"/>
        <pt x="1588" y="30" on="1"/>
        <pt x="1588" y="28" on="0"/>
        <pt x="1588" y="27" on="1"/>
        <pt x="1588" y="2" on="0"/>
        <pt x="1580" y="-7" on="1"/>
        <pt x="1555" y="-6" on="0"/>
        <pt x="1433" y="1" on="0"/>
        <pt x="1349" y="5" on="0"/>
        <pt x="1268" y="5" on="0"/>
        <pt x="1183" y="1" on="0"/>
        <pt x="1058" y="-6" on="0"/>
        <pt x="1035" y="-7" on="1"/>
        <pt x="1026" y="2" on="0"/>
        <pt x="1027" y="58" on="0"/>
        <pt x="1035" y="67" on="1"/>
        <pt x="1053" y="67" on="0"/>
        <pt x="1121" y="75" on="0"/>
        <pt x="1192" y="93" on="0"/>
        <pt x="1195" y="104" on="1"/>
        <pt x="1206" y="142" on="0"/>
        <pt x="1206" y="276" on="1"/>
        <pt x="1206" y="735" on="1"/>
        <pt x="1206" y="738" on="0"/>
        <pt x="1204" y="742" on="0"/>
        <pt x="1203" y="743" on="1"/>
        <pt x="1202" y="745" on="1"/>
        <pt x="1174" y="745" on="0"/>
        <pt x="916" y="754" on="0"/>
        <pt x="847" y="754" on="1"/>
        <pt x="508" y="754" on="0"/>
        <pt x="480" y="740" on="1"/>
        <pt x="478" y="735" on="1"/>
        <pt x="478" y="276" on="1"/>
        <pt x="478" y="142" on="0"/>
        <pt x="490" y="104" on="1"/>
        <pt x="494" y="88" on="0"/>
        <pt x="614" y="67" on="0"/>
        <pt x="650" y="67" on="1"/>
        <pt x="657" y="58" on="0"/>
        <pt x="658" y="2" on="0"/>
        <pt x="650" y="-7" on="1"/>
        <pt x="625" y="-6" on="0"/>
        <pt x="503" y="1" on="0"/>
        <pt x="419" y="5" on="0"/>
        <pt x="337" y="5" on="0"/>
        <pt x="253" y="1" on="0"/>
        <pt x="128" y="-6" on="0"/>
        <pt x="104" y="-7" on="1"/>
        <pt x="96" y="1" on="0"/>
        <pt x="96" y="27" on="1"/>
        <pt x="96" y="57" on="0"/>
      </contour>
    </TTGlyph>
    <TTGlyph name="I" xMin="96" yMin="-7" xMax="658" yMax="1536">
      <contour>
        <pt x="104" y="60" on="1"/>
        <pt x="140" y="60" on="0"/>
        <pt x="260" y="81" on="0"/>
        <pt x="264" y="97" on="1"/>
        <pt x="276" y="135" on="0"/>
        <pt x="276" y="269" on="1"/>
        <pt x="276" y="1260" on="1"/>
        <pt x="276" y="1394" on="0"/>
        <pt x="264" y="1431" on="1"/>
        <pt x="260" y="1448" on="0"/>
        <pt x="140" y="1469" on="0"/>
        <pt x="104" y="1469" on="1"/>
        <pt x="96" y="1478" on="0"/>
        <pt x="96" y="1502" on="1"/>
        <pt x="96" y="1503" on="0"/>
        <pt x="96" y="1505" on="1"/>
        <pt x="96" y="1527" on="0"/>
        <pt x="104" y="1536" on="1"/>
        <pt x="128" y="1535" on="0"/>
        <pt x="253" y="1528" on="0"/>
        <pt x="337" y="1524" on="0"/>
        <pt x="378" y="1524" on="1"/>
        <pt x="410" y="1524" on="0"/>
        <pt x="483" y="1527" on="0"/>
        <pt x="539" y="1530" on="0"/>
        <pt x="623" y="1535" on="0"/>
        <pt x="650" y="1536" on="1"/>
        <pt x="658" y="1528" on="0"/>
        <pt x="658" y="1505" on="1"/>
        <pt x="658" y="1504" on="0"/>
        <pt x="658" y="1502" on="1"/>
        <pt x="658" y="1478" on="0"/>
        <pt x="650" y="1469" on="1"/>
        <pt x="614" y="1469" on="0"/>
        <pt x="494" y="1448" on="0"/>
        <pt x="490" y="1431" on="1"/>
        <pt x="478" y="1394" on="0"/>
        <pt x="478" y="1260" on="1"/>
        <pt x="478" y="269" on="1"/>
        <pt x="478" y="135" on="0"/>
        <pt x="490" y="97" on="1"/>
        <pt x="494" y="81" on="0"/>
        <pt x="614" y="60" on="0"/>
        <pt x="650" y="60" on="1"/>
        <pt x="658" y="50" on="0"/>
        <pt x="658" y="26" on="1"/>
        <pt x="658" y="25" on="0"/>
        <pt x="658" y="24" on="1"/>
        <pt x="658" y="2" on="0"/>
        <pt x="650" y="-7" on="1"/>
        <pt x="625" y="-6" on="0"/>
        <pt x="503" y="1" on="0"/>
        <pt x="419" y="5" on="0"/>
        <pt x="337" y="5" on="0"/>
        <pt x="253" y="1" on="0"/>
        <pt x="128" y="-6" on="0"/>
        <pt x="104" y="-7" on="1"/>
        <pt x="96" y="1" on="0"/>
        <pt x="96" y="24" on="1"/>
        <pt x="96" y="50" on="0"/>
      </contour>
    </TTGlyph>
    <TTGlyph name="Iacute" xMin="96" yMin="-7" xMax="696" yMax="1998">
      <contour>
        <pt x="96" y="2" on="0"/>
        <pt x="97" y="51" on="0"/>
        <pt x="104" y="60" on="1"/>
        <pt x="140" y="60" on="0"/>
        <pt x="260" y="81" on="0"/>
        <pt x="264" y="97" on="1"/>
        <pt x="276" y="135" on="0"/>
        <pt x="276" y="269" on="1"/>
        <pt x="276" y="1260" on="1"/>
        <pt x="276" y="1394" on="0"/>
        <pt x="264" y="1431" on="1"/>
        <pt x="260" y="1448" on="0"/>
        <pt x="140" y="1469" on="0"/>
        <pt x="104" y="1469" on="1"/>
        <pt x="97" y="1478" on="0"/>
        <pt x="96" y="1527" on="0"/>
        <pt x="104" y="1536" on="1"/>
        <pt x="128" y="1535" on="0"/>
        <pt x="253" y="1528" on="0"/>
        <pt x="337" y="1524" on="0"/>
        <pt x="378" y="1524" on="1"/>
        <pt x="410" y="1524" on="0"/>
        <pt x="483" y="1527" on="0"/>
        <pt x="539" y="1530" on="0"/>
        <pt x="623" y="1535" on="0"/>
        <pt x="650" y="1536" on="1"/>
        <pt x="658" y="1527" on="0"/>
        <pt x="657" y="1478" on="0"/>
        <pt x="650" y="1469" on="1"/>
        <pt x="614" y="1469" on="0"/>
        <pt x="494" y="1448" on="0"/>
        <pt x="490" y="1431" on="1"/>
        <pt x="478" y="1394" on="0"/>
        <pt x="478" y="1260" on="1"/>
        <pt x="478" y="269" on="1"/>
        <pt x="478" y="135" on="0"/>
        <pt x="490" y="97" on="1"/>
        <pt x="494" y="81" on="0"/>
        <pt x="614" y="60" on="0"/>
        <pt x="650" y="60" on="1"/>
        <pt x="657" y="51" on="0"/>
        <pt x="658" y="2" on="0"/>
        <pt x="650" y="-7" on="1"/>
        <pt x="625" y="-6" on="0"/>
        <pt x="503" y="1" on="0"/>
        <pt x="419" y="5" on="0"/>
        <pt x="337" y="5" on="0"/>
        <pt x="253" y="1" on="0"/>
        <pt x="128" y="-6" on="0"/>
        <pt x="104" y="-7" on="1"/>
      </contour>
      <contour>
        <pt x="267" y="1710" on="1"/>
        <pt x="267" y="1723" on="0"/>
        <pt x="489" y="1947" on="0"/>
        <pt x="548" y="1991" on="1"/>
        <pt x="561" y="1998" on="0"/>
        <pt x="589" y="1998" on="1"/>
        <pt x="650" y="1998" on="0"/>
        <pt x="696" y="1956" on="0"/>
        <pt x="696" y="1928" on="1"/>
        <pt x="696" y="1900" on="0"/>
        <pt x="578" y="1814" on="0"/>
        <pt x="428" y="1742" on="0"/>
        <pt x="296" y="1689" on="0"/>
        <pt x="281" y="1689" on="1"/>
        <pt x="276" y="1689" on="0"/>
        <pt x="267" y="1704" on="0"/>
      </contour>
    </TTGlyph>
    <TTGlyph name="Icircumflex" xMin="96" yMin="-7" xMax="661" yMax="1940">
      <contour>
        <pt x="96" y="2" on="0"/>
        <pt x="97" y="51" on="0"/>
        <pt x="104" y="60" on="1"/>
        <pt x="140" y="60" on="0"/>
        <pt x="260" y="81" on="0"/>
        <pt x="264" y="97" on="1"/>
        <pt x="276" y="135" on="0"/>
        <pt x="276" y="269" on="1"/>
        <pt x="276" y="1260" on="1"/>
        <pt x="276" y="1394" on="0"/>
        <pt x="264" y="1431" on="1"/>
        <pt x="260" y="1448" on="0"/>
        <pt x="140" y="1469" on="0"/>
        <pt x="104" y="1469" on="1"/>
        <pt x="97" y="1478" on="0"/>
        <pt x="96" y="1527" on="0"/>
        <pt x="104" y="1536" on="1"/>
        <pt x="128" y="1535" on="0"/>
        <pt x="253" y="1528" on="0"/>
        <pt x="337" y="1524" on="0"/>
        <pt x="378" y="1524" on="1"/>
        <pt x="410" y="1524" on="0"/>
        <pt x="483" y="1527" on="0"/>
        <pt x="539" y="1530" on="0"/>
        <pt x="623" y="1535" on="0"/>
        <pt x="650" y="1536" on="1"/>
        <pt x="658" y="1527" on="0"/>
        <pt x="657" y="1478" on="0"/>
        <pt x="650" y="1469" on="1"/>
        <pt x="614" y="1469" on="0"/>
        <pt x="494" y="1448" on="0"/>
        <pt x="490" y="1431" on="1"/>
        <pt x="478" y="1394" on="0"/>
        <pt x="478" y="1260" on="1"/>
        <pt x="478" y="269" on="1"/>
        <pt x="478" y="135" on="0"/>
        <pt x="490" y="97" on="1"/>
        <pt x="494" y="81" on="0"/>
        <pt x="614" y="60" on="0"/>
        <pt x="650" y="60" on="1"/>
        <pt x="657" y="51" on="0"/>
        <pt x="658" y="2" on="0"/>
        <pt x="650" y="-7" on="1"/>
        <pt x="625" y="-6" on="0"/>
        <pt x="503" y="1" on="0"/>
        <pt x="419" y="5" on="0"/>
        <pt x="337" y="5" on="0"/>
        <pt x="253" y="1" on="0"/>
        <pt x="128" y="-6" on="0"/>
        <pt x="104" y="-7" on="1"/>
      </contour>
      <contour>
        <pt x="130" y="1673" on="1"/>
        <pt x="160" y="1704" on="0"/>
        <pt x="314" y="1861" on="0"/>
        <pt x="369" y="1921" on="1"/>
        <pt x="387" y="1940" on="0"/>
        <pt x="406" y="1940" on="0"/>
        <pt x="425" y="1921" on="1"/>
        <pt x="472" y="1870" on="0"/>
        <pt x="612" y="1725" on="0"/>
        <pt x="661" y="1673" on="1"/>
        <pt x="661" y="1661" on="0"/>
        <pt x="648" y="1633" on="0"/>
        <pt x="638" y="1633" on="1"/>
        <pt x="397" y="1782" on="1"/>
        <pt x="155" y="1633" on="1"/>
        <pt x="146" y="1633" on="0"/>
        <pt x="130" y="1661" on="0"/>
      </contour>
    </TTGlyph>
    <TTGlyph name="Idieresis" xMin="65" yMin="-7" xMax="717" yMax="1921">
      <contour>
        <pt x="65" y="1756" on="0"/>
        <pt x="65" y="1854" on="0"/>
        <pt x="132" y="1921" on="0"/>
        <pt x="230" y="1921" on="0"/>
        <pt x="297" y="1854" on="0"/>
        <pt x="297" y="1756" on="0"/>
        <pt x="230" y="1689" on="0"/>
        <pt x="132" y="1689" on="0"/>
      </contour>
      <contour>
        <pt x="98" y="2" on="0"/>
        <pt x="99" y="51" on="0"/>
        <pt x="107" y="60" on="1"/>
        <pt x="142" y="60" on="0"/>
        <pt x="262" y="81" on="0"/>
        <pt x="267" y="97" on="1"/>
        <pt x="278" y="135" on="0"/>
        <pt x="278" y="269" on="1"/>
        <pt x="278" y="1260" on="1"/>
        <pt x="278" y="1394" on="0"/>
        <pt x="267" y="1431" on="1"/>
        <pt x="262" y="1448" on="0"/>
        <pt x="142" y="1469" on="0"/>
        <pt x="107" y="1469" on="1"/>
        <pt x="99" y="1478" on="0"/>
        <pt x="98" y="1527" on="0"/>
        <pt x="107" y="1536" on="1"/>
        <pt x="130" y="1535" on="0"/>
        <pt x="255" y="1528" on="0"/>
        <pt x="340" y="1524" on="0"/>
        <pt x="380" y="1524" on="1"/>
        <pt x="412" y="1524" on="0"/>
        <pt x="486" y="1527" on="0"/>
        <pt x="541" y="1530" on="0"/>
        <pt x="626" y="1535" on="0"/>
        <pt x="652" y="1536" on="1"/>
        <pt x="660" y="1527" on="0"/>
        <pt x="659" y="1478" on="0"/>
        <pt x="652" y="1469" on="1"/>
        <pt x="617" y="1469" on="0"/>
        <pt x="496" y="1448" on="0"/>
        <pt x="492" y="1431" on="1"/>
        <pt x="480" y="1394" on="0"/>
        <pt x="480" y="1260" on="1"/>
        <pt x="480" y="269" on="1"/>
        <pt x="480" y="135" on="0"/>
        <pt x="492" y="97" on="1"/>
        <pt x="496" y="81" on="0"/>
        <pt x="617" y="60" on="0"/>
        <pt x="652" y="60" on="1"/>
        <pt x="659" y="51" on="0"/>
        <pt x="660" y="2" on="0"/>
        <pt x="652" y="-7" on="1"/>
        <pt x="627" y="-6" on="0"/>
        <pt x="505" y="1" on="0"/>
        <pt x="421" y="5" on="0"/>
        <pt x="340" y="5" on="0"/>
        <pt x="255" y="1" on="0"/>
        <pt x="130" y="-6" on="0"/>
        <pt x="107" y="-7" on="1"/>
      </contour>
      <contour>
        <pt x="485" y="1756" on="0"/>
        <pt x="485" y="1854" on="0"/>
        <pt x="552" y="1921" on="0"/>
        <pt x="650" y="1921" on="0"/>
        <pt x="717" y="1854" on="0"/>
        <pt x="717" y="1756" on="0"/>
        <pt x="650" y="1689" on="0"/>
        <pt x="552" y="1689" on="0"/>
      </contour>
    </TTGlyph>
    <TTGlyph name="Igrave" xMin="86" yMin="-7" xMax="658" yMax="1998">
      <contour>
        <pt x="86" y="1928" on="1"/>
        <pt x="86" y="1956" on="0"/>
        <pt x="132" y="1998" on="0"/>
        <pt x="193" y="1998" on="1"/>
        <pt x="220" y="1998" on="0"/>
        <pt x="234" y="1991" on="1"/>
        <pt x="293" y="1947" on="0"/>
        <pt x="515" y="1723" on="0"/>
        <pt x="515" y="1710" on="1"/>
        <pt x="515" y="1706" on="0"/>
        <pt x="511" y="1697" on="0"/>
        <pt x="504" y="1689" on="0"/>
        <pt x="501" y="1689" on="1"/>
        <pt x="485" y="1689" on="0"/>
        <pt x="353" y="1742" on="0"/>
        <pt x="204" y="1814" on="0"/>
        <pt x="86" y="1900" on="0"/>
      </contour>
      <contour>
        <pt x="96" y="2" on="0"/>
        <pt x="97" y="51" on="0"/>
        <pt x="104" y="60" on="1"/>
        <pt x="140" y="60" on="0"/>
        <pt x="260" y="81" on="0"/>
        <pt x="264" y="97" on="1"/>
        <pt x="276" y="135" on="0"/>
        <pt x="276" y="269" on="1"/>
        <pt x="276" y="1260" on="1"/>
        <pt x="276" y="1394" on="0"/>
        <pt x="264" y="1431" on="1"/>
        <pt x="260" y="1448" on="0"/>
        <pt x="140" y="1469" on="0"/>
        <pt x="104" y="1469" on="1"/>
        <pt x="97" y="1478" on="0"/>
        <pt x="96" y="1527" on="0"/>
        <pt x="104" y="1536" on="1"/>
        <pt x="128" y="1535" on="0"/>
        <pt x="253" y="1528" on="0"/>
        <pt x="337" y="1524" on="0"/>
        <pt x="378" y="1524" on="1"/>
        <pt x="410" y="1524" on="0"/>
        <pt x="483" y="1527" on="0"/>
        <pt x="539" y="1530" on="0"/>
        <pt x="623" y="1535" on="0"/>
        <pt x="650" y="1536" on="1"/>
        <pt x="658" y="1527" on="0"/>
        <pt x="657" y="1478" on="0"/>
        <pt x="650" y="1469" on="1"/>
        <pt x="614" y="1469" on="0"/>
        <pt x="494" y="1448" on="0"/>
        <pt x="490" y="1431" on="1"/>
        <pt x="478" y="1394" on="0"/>
        <pt x="478" y="1260" on="1"/>
        <pt x="478" y="269" on="1"/>
        <pt x="478" y="135" on="0"/>
        <pt x="490" y="97" on="1"/>
        <pt x="494" y="81" on="0"/>
        <pt x="614" y="60" on="0"/>
        <pt x="650" y="60" on="1"/>
        <pt x="657" y="51" on="0"/>
        <pt x="658" y="2" on="0"/>
        <pt x="650" y="-7" on="1"/>
        <pt x="625" y="-6" on="0"/>
        <pt x="503" y="1" on="0"/>
        <pt x="419" y="5" on="0"/>
        <pt x="337" y="5" on="0"/>
        <pt x="253" y="1" on="0"/>
        <pt x="128" y="-6" on="0"/>
        <pt x="104" y="-7" on="1"/>
      </contour>
    </TTGlyph>
    <TTGlyph name="J" xMin="-241" yMin="-527" xMax="646" yMax="1536">
      <contour>
        <pt x="-241" y="-432" on="1"/>
        <pt x="-241" y="-375" on="0"/>
        <pt x="-183" y="-302" on="0"/>
        <pt x="-130" y="-302" on="1"/>
        <pt x="-111" y="-302" on="0"/>
        <pt x="-65" y="-327" on="0"/>
        <pt x="-44" y="-345" on="0"/>
        <pt x="-19" y="-369" on="1"/>
        <pt x="35" y="-418" on="0"/>
        <pt x="86" y="-418" on="1"/>
        <pt x="117" y="-418" on="0"/>
        <pt x="167" y="-383" on="0"/>
        <pt x="214" y="-291" on="0"/>
        <pt x="246" y="-140" on="0"/>
        <pt x="264" y="105" on="0"/>
        <pt x="264" y="269" on="1"/>
        <pt x="264" y="1260" on="1"/>
        <pt x="264" y="1394" on="0"/>
        <pt x="253" y="1431" on="1"/>
        <pt x="248" y="1448" on="0"/>
        <pt x="128" y="1469" on="0"/>
        <pt x="93" y="1469" on="1"/>
        <pt x="85" y="1478" on="0"/>
        <pt x="84" y="1527" on="0"/>
        <pt x="93" y="1536" on="1"/>
        <pt x="116" y="1535" on="0"/>
        <pt x="241" y="1528" on="0"/>
        <pt x="326" y="1524" on="0"/>
        <pt x="407" y="1524" on="0"/>
        <pt x="491" y="1528" on="0"/>
        <pt x="613" y="1535" on="0"/>
        <pt x="638" y="1536" on="1"/>
        <pt x="646" y="1528" on="0"/>
        <pt x="646" y="1505" on="1"/>
        <pt x="646" y="1479" on="0"/>
        <pt x="638" y="1469" on="1"/>
        <pt x="603" y="1469" on="0"/>
        <pt x="482" y="1448" on="0"/>
        <pt x="478" y="1431" on="1"/>
        <pt x="466" y="1394" on="0"/>
        <pt x="466" y="1260" on="1"/>
        <pt x="466" y="281" on="1"/>
        <pt x="466" y="110" on="0"/>
        <pt x="413" y="-161" on="0"/>
        <pt x="318" y="-347" on="0"/>
        <pt x="181" y="-471" on="0"/>
        <pt x="19" y="-527" on="0"/>
        <pt x="-77" y="-527" on="1"/>
        <pt x="-104" y="-527" on="0"/>
        <pt x="-203" y="-500" on="0"/>
        <pt x="-223" y="-485" on="1"/>
        <pt x="-231" y="-477" on="0"/>
        <pt x="-241" y="-445" on="0"/>
      </contour>
    </TTGlyph>
    <TTGlyph name="K" xMin="96" yMin="-7" xMax="1536" yMax="1536">
      <contour>
        <pt x="104" y="67" on="1"/>
        <pt x="140" y="67" on="0"/>
        <pt x="260" y="88" on="0"/>
        <pt x="264" y="104" on="1"/>
        <pt x="276" y="142" on="0"/>
        <pt x="276" y="276" on="1"/>
        <pt x="276" y="1253" on="1"/>
        <pt x="276" y="1387" on="0"/>
        <pt x="264" y="1424" on="1"/>
        <pt x="260" y="1441" on="0"/>
        <pt x="140" y="1462" on="0"/>
        <pt x="104" y="1462" on="1"/>
        <pt x="96" y="1471" on="0"/>
        <pt x="96" y="1499" on="1"/>
        <pt x="96" y="1501" on="0"/>
        <pt x="96" y="1502" on="1"/>
        <pt x="96" y="1527" on="0"/>
        <pt x="104" y="1536" on="1"/>
        <pt x="128" y="1535" on="0"/>
        <pt x="253" y="1528" on="0"/>
        <pt x="337" y="1524" on="0"/>
        <pt x="378" y="1524" on="1"/>
        <pt x="410" y="1524" on="0"/>
        <pt x="483" y="1527" on="0"/>
        <pt x="539" y="1530" on="0"/>
        <pt x="623" y="1535" on="0"/>
        <pt x="650" y="1536" on="1"/>
        <pt x="658" y="1527" on="0"/>
        <pt x="657" y="1471" on="0"/>
        <pt x="650" y="1462" on="1"/>
        <pt x="614" y="1462" on="0"/>
        <pt x="494" y="1441" on="0"/>
        <pt x="490" y="1424" on="1"/>
        <pt x="478" y="1387" on="0"/>
        <pt x="478" y="1253" on="1"/>
        <pt x="478" y="791" on="1"/>
        <pt x="538" y="828" on="0"/>
        <pt x="740" y="1025" on="1"/>
        <pt x="878" y="1162" on="0"/>
        <pt x="983" y="1274" on="0"/>
        <pt x="1035" y="1341" on="1"/>
        <pt x="1067" y="1384" on="0"/>
        <pt x="1067" y="1413" on="1"/>
        <pt x="1067" y="1422" on="0"/>
        <pt x="1060" y="1438" on="0"/>
        <pt x="1046" y="1448" on="0"/>
        <pt x="1031" y="1456" on="0"/>
        <pt x="1009" y="1460" on="0"/>
        <pt x="992" y="1463" on="0"/>
        <pt x="968" y="1464" on="0"/>
        <pt x="956" y="1464" on="0"/>
        <pt x="938" y="1464" on="0"/>
        <pt x="937" y="1464" on="1"/>
        <pt x="932" y="1474" on="0"/>
        <pt x="932" y="1520" on="0"/>
        <pt x="937" y="1536" on="1"/>
        <pt x="964" y="1534" on="0"/>
        <pt x="1076" y="1527" on="0"/>
        <pt x="1166" y="1522" on="0"/>
        <pt x="1204" y="1522" on="1"/>
        <pt x="1249" y="1522" on="0"/>
        <pt x="1330" y="1527" on="0"/>
        <pt x="1421" y="1534" on="0"/>
        <pt x="1455" y="1536" on="1"/>
        <pt x="1459" y="1525" on="0"/>
        <pt x="1458" y="1464" on="0"/>
        <pt x="1450" y="1464" on="1"/>
        <pt x="1450" y="1464" on="0"/>
        <pt x="1432" y="1462" on="1"/>
        <pt x="1413" y="1461" on="0"/>
        <pt x="1383" y="1458" on="0"/>
        <pt x="1331" y="1446" on="0"/>
        <pt x="1288" y="1430" on="0"/>
        <pt x="1239" y="1398" on="0"/>
        <pt x="1220" y="1378" on="1"/>
        <pt x="1150" y="1301" on="0"/>
        <pt x="1002" y="1150" on="0"/>
        <pt x="914" y="1064" on="0"/>
        <pt x="727" y="886" on="0"/>
        <pt x="684" y="844" on="1"/>
        <pt x="678" y="835" on="0"/>
        <pt x="684" y="826" on="1"/>
        <pt x="697" y="812" on="0"/>
        <pt x="853" y="629" on="0"/>
        <pt x="889" y="587" on="0"/>
        <pt x="1015" y="442" on="0"/>
        <pt x="1070" y="383" on="0"/>
        <pt x="1167" y="277" on="0"/>
        <pt x="1241" y="202" on="0"/>
        <pt x="1278" y="167" on="1"/>
        <pt x="1329" y="121" on="0"/>
        <pt x="1443" y="67" on="0"/>
        <pt x="1531" y="60" on="1"/>
        <pt x="1536" y="52" on="0"/>
        <pt x="1536" y="37" on="1"/>
        <pt x="1536" y="31" on="0"/>
        <pt x="1535" y="24" on="1"/>
        <pt x="1532" y="0" on="0"/>
        <pt x="1529" y="-7" on="1"/>
        <pt x="1272" y="-7" on="0"/>
        <pt x="1199" y="19" on="1"/>
        <pt x="1109" y="51" on="0"/>
        <pt x="1042" y="118" on="1"/>
        <pt x="978" y="182" on="0"/>
        <pt x="520" y="705" on="1"/>
        <pt x="515" y="712" on="0"/>
        <pt x="499" y="712" on="1"/>
        <pt x="487" y="712" on="0"/>
        <pt x="478" y="708" on="1"/>
        <pt x="478" y="276" on="1"/>
        <pt x="478" y="142" on="0"/>
        <pt x="490" y="104" on="1"/>
        <pt x="494" y="88" on="0"/>
        <pt x="614" y="67" on="0"/>
        <pt x="650" y="67" on="1"/>
        <pt x="657" y="58" on="0"/>
        <pt x="658" y="2" on="0"/>
        <pt x="650" y="-7" on="1"/>
        <pt x="625" y="-6" on="0"/>
        <pt x="503" y="1" on="0"/>
        <pt x="419" y="5" on="0"/>
        <pt x="337" y="5" on="0"/>
        <pt x="253" y="1" on="0"/>
        <pt x="128" y="-6" on="0"/>
        <pt x="104" y="-7" on="1"/>
        <pt x="96" y="1" on="0"/>
        <pt x="96" y="27" on="1"/>
        <pt x="96" y="57" on="0"/>
      </contour>
    </TTGlyph>
    <TTGlyph name="L" xMin="96" yMin="-9" xMax="1297" yMax="1536">
      <contour>
        <pt x="104" y="60" on="1"/>
        <pt x="140" y="60" on="0"/>
        <pt x="260" y="81" on="0"/>
        <pt x="264" y="97" on="1"/>
        <pt x="276" y="135" on="0"/>
        <pt x="276" y="269" on="1"/>
        <pt x="276" y="1260" on="1"/>
        <pt x="276" y="1394" on="0"/>
        <pt x="264" y="1431" on="1"/>
        <pt x="260" y="1448" on="0"/>
        <pt x="140" y="1469" on="0"/>
        <pt x="104" y="1469" on="1"/>
        <pt x="96" y="1478" on="0"/>
        <pt x="96" y="1502" on="1"/>
        <pt x="96" y="1503" on="0"/>
        <pt x="96" y="1505" on="1"/>
        <pt x="96" y="1527" on="0"/>
        <pt x="104" y="1536" on="1"/>
        <pt x="128" y="1535" on="0"/>
        <pt x="253" y="1528" on="0"/>
        <pt x="337" y="1524" on="0"/>
        <pt x="378" y="1524" on="1"/>
        <pt x="410" y="1524" on="0"/>
        <pt x="483" y="1527" on="0"/>
        <pt x="539" y="1530" on="0"/>
        <pt x="623" y="1535" on="0"/>
        <pt x="650" y="1536" on="1"/>
        <pt x="658" y="1527" on="0"/>
        <pt x="657" y="1478" on="0"/>
        <pt x="650" y="1469" on="1"/>
        <pt x="614" y="1469" on="0"/>
        <pt x="494" y="1448" on="0"/>
        <pt x="490" y="1431" on="1"/>
        <pt x="478" y="1394" on="0"/>
        <pt x="478" y="1260" on="1"/>
        <pt x="478" y="269" on="1"/>
        <pt x="478" y="246" on="0"/>
        <pt x="478" y="210" on="0"/>
        <pt x="481" y="147" on="0"/>
        <pt x="487" y="106" on="0"/>
        <pt x="492" y="102" on="1"/>
        <pt x="513" y="86" on="0"/>
        <pt x="574" y="79" on="0"/>
        <pt x="657" y="80" on="1"/>
        <pt x="789" y="80" on="1"/>
        <pt x="862" y="80" on="0"/>
        <pt x="1015" y="111" on="0"/>
        <pt x="1060" y="142" on="1"/>
        <pt x="1155" y="206" on="0"/>
        <pt x="1206" y="376" on="1"/>
        <pt x="1210" y="390" on="0"/>
        <pt x="1239" y="390" on="1"/>
        <pt x="1250" y="390" on="0"/>
        <pt x="1275" y="386" on="0"/>
        <pt x="1293" y="379" on="0"/>
        <pt x="1297" y="376" on="1"/>
        <pt x="1286" y="346" on="0"/>
        <pt x="1238" y="213" on="0"/>
        <pt x="1208" y="131" on="0"/>
        <pt x="1177" y="26" on="0"/>
        <pt x="1172" y="-9" on="1"/>
        <pt x="1052" y="-9" on="0"/>
        <pt x="542" y="0" on="0"/>
        <pt x="380" y="0" on="1"/>
        <pt x="324" y="0" on="0"/>
        <pt x="147" y="-7" on="0"/>
        <pt x="104" y="-7" on="1"/>
        <pt x="96" y="1" on="0"/>
        <pt x="96" y="24" on="1"/>
        <pt x="96" y="50" on="0"/>
      </contour>
    </TTGlyph>
    <TTGlyph name="M" xMin="55" yMin="-7" xMax="2028" yMax="1536">
      <contour>
        <pt x="55" y="22" on="1"/>
        <pt x="55" y="26" on="0"/>
        <pt x="55" y="28" on="1"/>
        <pt x="55" y="48" on="0"/>
        <pt x="60" y="60" on="1"/>
        <pt x="98" y="60" on="0"/>
        <pt x="235" y="83" on="0"/>
        <pt x="248" y="102" on="1"/>
        <pt x="272" y="137" on="0"/>
        <pt x="276" y="218" on="1"/>
        <pt x="286" y="470" on="0"/>
        <pt x="302" y="1003" on="0"/>
        <pt x="309" y="1300" on="0"/>
        <pt x="309" y="1327" on="1"/>
        <pt x="309" y="1394" on="0"/>
        <pt x="299" y="1420" on="1"/>
        <pt x="293" y="1438" on="0"/>
        <pt x="168" y="1469" on="0"/>
        <pt x="137" y="1469" on="1"/>
        <pt x="133" y="1469" on="0"/>
        <pt x="133" y="1532" on="0"/>
        <pt x="137" y="1536" on="1"/>
        <pt x="169" y="1534" on="0"/>
        <pt x="314" y="1524" on="0"/>
        <pt x="376" y="1524" on="1"/>
        <pt x="436" y="1524" on="0"/>
        <pt x="564" y="1536" on="1"/>
        <pt x="584" y="1473" on="0"/>
        <pt x="754" y="1065" on="0"/>
        <pt x="990" y="503" on="0"/>
        <pt x="1056" y="339" on="1"/>
        <pt x="1058" y="334" on="0"/>
        <pt x="1065" y="334" on="1"/>
        <pt x="1073" y="334" on="0"/>
        <pt x="1076" y="343" on="1"/>
        <pt x="1415" y="1217" on="0"/>
        <pt x="1431" y="1257" on="1"/>
        <pt x="1450" y="1305" on="0"/>
        <pt x="1501" y="1444" on="0"/>
        <pt x="1517" y="1490" on="1"/>
        <pt x="1534" y="1536" on="1"/>
        <pt x="1682" y="1527" on="0"/>
        <pt x="1717" y="1527" on="1"/>
        <pt x="1861" y="1527" on="0"/>
        <pt x="1977" y="1536" on="1"/>
        <pt x="1984" y="1469" on="1"/>
        <pt x="1951" y="1469" on="0"/>
        <pt x="1827" y="1442" on="0"/>
        <pt x="1819" y="1427" on="1"/>
        <pt x="1807" y="1401" on="0"/>
        <pt x="1807" y="1339" on="1"/>
        <pt x="1809" y="1268" on="0"/>
        <pt x="1818" y="910" on="0"/>
        <pt x="1828" y="429" on="0"/>
        <pt x="1830" y="325" on="1"/>
        <pt x="1835" y="163" on="0"/>
        <pt x="1858" y="100" on="1"/>
        <pt x="1866" y="79" on="0"/>
        <pt x="1985" y="60" on="0"/>
        <pt x="2021" y="60" on="1"/>
        <pt x="2028" y="47" on="0"/>
        <pt x="2028" y="2" on="0"/>
        <pt x="2025" y="-7" on="1"/>
        <pt x="2004" y="-6" on="0"/>
        <pt x="1881" y="1" on="0"/>
        <pt x="1795" y="5" on="0"/>
        <pt x="1749" y="5" on="1"/>
        <pt x="1702" y="5" on="0"/>
        <pt x="1616" y="1" on="0"/>
        <pt x="1507" y="-5" on="0"/>
        <pt x="1471" y="-7" on="1"/>
        <pt x="1467" y="-3" on="0"/>
        <pt x="1465" y="46" on="0"/>
        <pt x="1471" y="60" on="1"/>
        <pt x="1499" y="60" on="0"/>
        <pt x="1603" y="75" on="0"/>
        <pt x="1622" y="86" on="1"/>
        <pt x="1643" y="98" on="0"/>
        <pt x="1643" y="183" on="1"/>
        <pt x="1643" y="199" on="0"/>
        <pt x="1638" y="300" on="0"/>
        <pt x="1638" y="318" on="1"/>
        <pt x="1618" y="1032" on="0"/>
        <pt x="1608" y="1311" on="1"/>
        <pt x="1608" y="1323" on="0"/>
        <pt x="1597" y="1357" on="0"/>
        <pt x="1587" y="1357" on="1"/>
        <pt x="1582" y="1357" on="0"/>
        <pt x="1575" y="1341" on="1"/>
        <pt x="1522" y="1208" on="0"/>
        <pt x="1086" y="114" on="1"/>
        <pt x="1074" y="88" on="0"/>
        <pt x="1014" y="-2" on="0"/>
        <pt x="998" y="-5" on="1"/>
        <pt x="994" y="-6" on="0"/>
        <pt x="977" y="0" on="1"/>
        <pt x="411" y="1355" on="1"/>
        <pt x="408" y="1214" on="0"/>
        <pt x="400" y="870" on="0"/>
        <pt x="392" y="581" on="0"/>
        <pt x="384" y="331" on="0"/>
        <pt x="380" y="180" on="0"/>
        <pt x="380" y="174" on="1"/>
        <pt x="380" y="127" on="0"/>
        <pt x="390" y="102" on="1"/>
        <pt x="399" y="80" on="0"/>
        <pt x="533" y="60" on="0"/>
        <pt x="573" y="60" on="1"/>
        <pt x="581" y="51" on="0"/>
        <pt x="581" y="2" on="0"/>
        <pt x="578" y="-7" on="1"/>
        <pt x="547" y="-5" on="0"/>
        <pt x="453" y="1" on="0"/>
        <pt x="377" y="5" on="0"/>
        <pt x="332" y="5" on="1"/>
        <pt x="284" y="5" on="0"/>
        <pt x="201" y="1" on="0"/>
        <pt x="97" y="-5" on="0"/>
        <pt x="60" y="-7" on="1"/>
        <pt x="56" y="-2" on="0"/>
      </contour>
    </TTGlyph>
    <TTGlyph name="N" xMin="88" yMin="-12" xMax="1735" yMax="1543">
      <contour>
        <pt x="88" y="26" on="1"/>
        <pt x="88" y="43" on="0"/>
        <pt x="95" y="60" on="1"/>
        <pt x="128" y="60" on="0"/>
        <pt x="265" y="89" on="0"/>
        <pt x="276" y="107" on="1"/>
        <pt x="291" y="132" on="0"/>
        <pt x="299" y="194" on="0"/>
        <pt x="299" y="264" on="1"/>
        <pt x="299" y="1271" on="1"/>
        <pt x="299" y="1320" on="0"/>
        <pt x="296" y="1370" on="0"/>
        <pt x="286" y="1412" on="0"/>
        <pt x="276" y="1429" on="1"/>
        <pt x="269" y="1442" on="0"/>
        <pt x="189" y="1465" on="0"/>
        <pt x="112" y="1476" on="0"/>
        <pt x="95" y="1476" on="1"/>
        <pt x="88" y="1494" on="0"/>
        <pt x="88" y="1510" on="1"/>
        <pt x="88" y="1512" on="0"/>
        <pt x="88" y="1514" on="1"/>
        <pt x="89" y="1532" on="0"/>
        <pt x="95" y="1543" on="1"/>
        <pt x="132" y="1541" on="0"/>
        <pt x="288" y="1531" on="0"/>
        <pt x="332" y="1531" on="1"/>
        <pt x="443" y="1531" on="0"/>
        <pt x="508" y="1536" on="1"/>
        <pt x="557" y="1459" on="0"/>
        <pt x="899" y="1040" on="0"/>
        <pt x="1310" y="536" on="0"/>
        <pt x="1418" y="385" on="1"/>
        <pt x="1418" y="520" on="1"/>
        <pt x="1418" y="1264" on="1"/>
        <pt x="1418" y="1315" on="0"/>
        <pt x="1416" y="1359" on="0"/>
        <pt x="1406" y="1407" on="0"/>
        <pt x="1394" y="1424" on="1"/>
        <pt x="1385" y="1440" on="0"/>
        <pt x="1252" y="1471" on="0"/>
        <pt x="1218" y="1471" on="1"/>
        <pt x="1210" y="1482" on="0"/>
        <pt x="1209" y="1529" on="0"/>
        <pt x="1213" y="1538" on="1"/>
        <pt x="1239" y="1537" on="0"/>
        <pt x="1351" y="1530" on="0"/>
        <pt x="1434" y="1528" on="0"/>
        <pt x="1480" y="1527" on="1"/>
        <pt x="1527" y="1527" on="0"/>
        <pt x="1600" y="1530" on="0"/>
        <pt x="1689" y="1536" on="0"/>
        <pt x="1728" y="1538" on="1"/>
        <pt x="1734" y="1528" on="0"/>
        <pt x="1735" y="1510" on="1"/>
        <pt x="1735" y="1508" on="0"/>
        <pt x="1735" y="1505" on="1"/>
        <pt x="1735" y="1488" on="0"/>
        <pt x="1728" y="1471" on="1"/>
        <pt x="1696" y="1471" on="0"/>
        <pt x="1558" y="1443" on="0"/>
        <pt x="1547" y="1424" on="1"/>
        <pt x="1533" y="1400" on="0"/>
        <pt x="1524" y="1337" on="0"/>
        <pt x="1524" y="1267" on="1"/>
        <pt x="1524" y="322" on="1"/>
        <pt x="1524" y="123" on="0"/>
        <pt x="1529" y="2" on="1"/>
        <pt x="1526" y="-12" on="0"/>
        <pt x="1499" y="-12" on="1"/>
        <pt x="1486" y="-12" on="0"/>
        <pt x="1439" y="14" on="0"/>
        <pt x="1418" y="42" on="1"/>
        <pt x="406" y="1320" on="1"/>
        <pt x="406" y="267" on="1"/>
        <pt x="406" y="216" on="0"/>
        <pt x="408" y="172" on="0"/>
        <pt x="418" y="125" on="0"/>
        <pt x="429" y="107" on="1"/>
        <pt x="436" y="96" on="0"/>
        <pt x="507" y="73" on="0"/>
        <pt x="583" y="60" on="0"/>
        <pt x="603" y="60" on="1"/>
        <pt x="611" y="49" on="0"/>
        <pt x="612" y="2" on="0"/>
        <pt x="608" y="-7" on="1"/>
        <pt x="582" y="-6" on="0"/>
        <pt x="472" y="1" on="0"/>
        <pt x="389" y="5" on="0"/>
        <pt x="343" y="5" on="1"/>
        <pt x="296" y="5" on="0"/>
        <pt x="223" y="1" on="0"/>
        <pt x="135" y="-5" on="0"/>
        <pt x="95" y="-7" on="1"/>
        <pt x="88" y="5" on="0"/>
      </contour>
    </TTGlyph>
    <TTGlyph name="Ntilde" xMin="87" yMin="-12" xMax="1736" yMax="1882">
      <contour>
        <pt x="89" y="3" on="0"/>
        <pt x="87" y="40" on="0"/>
        <pt x="95" y="60" on="1"/>
        <pt x="128" y="60" on="0"/>
        <pt x="265" y="89" on="0"/>
        <pt x="276" y="107" on="1"/>
        <pt x="291" y="132" on="0"/>
        <pt x="299" y="194" on="0"/>
        <pt x="299" y="264" on="1"/>
        <pt x="299" y="1271" on="1"/>
        <pt x="299" y="1320" on="0"/>
        <pt x="296" y="1370" on="0"/>
        <pt x="286" y="1412" on="0"/>
        <pt x="276" y="1429" on="1"/>
        <pt x="269" y="1442" on="0"/>
        <pt x="189" y="1465" on="0"/>
        <pt x="112" y="1476" on="0"/>
        <pt x="95" y="1476" on="1"/>
        <pt x="87" y="1496" on="0"/>
        <pt x="89" y="1533" on="0"/>
        <pt x="95" y="1543" on="1"/>
        <pt x="132" y="1541" on="0"/>
        <pt x="288" y="1531" on="0"/>
        <pt x="332" y="1531" on="1"/>
        <pt x="443" y="1531" on="0"/>
        <pt x="508" y="1536" on="1"/>
        <pt x="557" y="1459" on="0"/>
        <pt x="899" y="1040" on="0"/>
        <pt x="1310" y="536" on="0"/>
        <pt x="1418" y="385" on="1"/>
        <pt x="1418" y="520" on="1"/>
        <pt x="1418" y="1264" on="1"/>
        <pt x="1418" y="1315" on="0"/>
        <pt x="1416" y="1359" on="0"/>
        <pt x="1406" y="1407" on="0"/>
        <pt x="1394" y="1424" on="1"/>
        <pt x="1385" y="1440" on="0"/>
        <pt x="1252" y="1471" on="0"/>
        <pt x="1218" y="1471" on="1"/>
        <pt x="1210" y="1482" on="0"/>
        <pt x="1209" y="1529" on="0"/>
        <pt x="1213" y="1538" on="1"/>
        <pt x="1239" y="1537" on="0"/>
        <pt x="1351" y="1530" on="0"/>
        <pt x="1434" y="1527" on="0"/>
        <pt x="1480" y="1527" on="1"/>
        <pt x="1527" y="1527" on="0"/>
        <pt x="1600" y="1530" on="0"/>
        <pt x="1689" y="1536" on="0"/>
        <pt x="1728" y="1538" on="1"/>
        <pt x="1734" y="1528" on="0"/>
        <pt x="1736" y="1491" on="0"/>
        <pt x="1728" y="1471" on="1"/>
        <pt x="1696" y="1471" on="0"/>
        <pt x="1558" y="1443" on="0"/>
        <pt x="1547" y="1424" on="1"/>
        <pt x="1533" y="1400" on="0"/>
        <pt x="1524" y="1337" on="0"/>
        <pt x="1524" y="1267" on="1"/>
        <pt x="1524" y="322" on="1"/>
        <pt x="1524" y="123" on="0"/>
        <pt x="1529" y="2" on="1"/>
        <pt x="1526" y="-12" on="0"/>
        <pt x="1499" y="-12" on="1"/>
        <pt x="1486" y="-12" on="0"/>
        <pt x="1439" y="14" on="0"/>
        <pt x="1418" y="42" on="1"/>
        <pt x="406" y="1320" on="1"/>
        <pt x="406" y="267" on="1"/>
        <pt x="406" y="216" on="0"/>
        <pt x="408" y="172" on="0"/>
        <pt x="418" y="125" on="0"/>
        <pt x="429" y="107" on="1"/>
        <pt x="436" y="96" on="0"/>
        <pt x="507" y="73" on="0"/>
        <pt x="583" y="60" on="0"/>
        <pt x="603" y="60" on="1"/>
        <pt x="611" y="49" on="0"/>
        <pt x="612" y="2" on="0"/>
        <pt x="608" y="-7" on="1"/>
        <pt x="582" y="-6" on="0"/>
        <pt x="472" y="1" on="0"/>
        <pt x="389" y="5" on="0"/>
        <pt x="343" y="5" on="1"/>
        <pt x="296" y="5" on="0"/>
        <pt x="223" y="1" on="0"/>
        <pt x="135" y="-5" on="0"/>
        <pt x="95" y="-7" on="1"/>
      </contour>
      <contour>
        <pt x="534" y="1717" on="1"/>
        <pt x="534" y="1756" on="0"/>
        <pt x="566" y="1798" on="1"/>
        <pt x="635" y="1882" on="0"/>
        <pt x="726" y="1882" on="1"/>
        <pt x="755" y="1882" on="0"/>
        <pt x="816" y="1865" on="0"/>
        <pt x="851" y="1847" on="0"/>
        <pt x="882" y="1830" on="1"/>
        <pt x="979" y="1775" on="0"/>
        <pt x="1023" y="1775" on="1"/>
        <pt x="1049" y="1775" on="0"/>
        <pt x="1096" y="1791" on="0"/>
        <pt x="1128" y="1816" on="0"/>
        <pt x="1152" y="1840" on="0"/>
        <pt x="1170" y="1861" on="0"/>
        <pt x="1174" y="1863" on="1"/>
        <pt x="1180" y="1863" on="0"/>
        <pt x="1188" y="1848" on="0"/>
        <pt x="1188" y="1840" on="1"/>
        <pt x="1188" y="1800" on="0"/>
        <pt x="1155" y="1759" on="1"/>
        <pt x="1084" y="1673" on="0"/>
        <pt x="995" y="1673" on="1"/>
        <pt x="966" y="1673" on="0"/>
        <pt x="906" y="1690" on="0"/>
        <pt x="871" y="1707" on="0"/>
        <pt x="840" y="1724" on="1"/>
        <pt x="815" y="1738" on="0"/>
        <pt x="789" y="1752" on="0"/>
        <pt x="748" y="1771" on="0"/>
        <pt x="713" y="1779" on="0"/>
        <pt x="696" y="1779" on="1"/>
        <pt x="670" y="1779" on="0"/>
        <pt x="624" y="1763" on="0"/>
        <pt x="592" y="1739" on="0"/>
        <pt x="569" y="1714" on="0"/>
        <pt x="551" y="1693" on="0"/>
        <pt x="548" y="1691" on="1"/>
        <pt x="544" y="1691" on="0"/>
        <pt x="539" y="1697" on="0"/>
        <pt x="535" y="1705" on="0"/>
        <pt x="534" y="1713" on="0"/>
      </contour>
    </TTGlyph>
    <TTGlyph name="O" xMin="114" yMin="-23" xMax="1622" yMax="1547">
      <contour>
        <pt x="114" y="761" on="1"/>
        <pt x="114" y="920" on="0"/>
        <pt x="235" y="1212" on="0"/>
        <pt x="437" y="1423" on="0"/>
        <pt x="715" y="1547" on="0"/>
        <pt x="865" y="1547" on="1"/>
        <pt x="952" y="1547" on="0"/>
        <pt x="1119" y="1509" on="0"/>
        <pt x="1269" y="1435" on="0"/>
        <pt x="1400" y="1332" on="0"/>
        <pt x="1505" y="1197" on="0"/>
        <pt x="1581" y="1041" on="0"/>
        <pt x="1622" y="858" on="0"/>
        <pt x="1622" y="761" on="1"/>
        <pt x="1622" y="602" on="0"/>
        <pt x="1499" y="310" on="0"/>
        <pt x="1295" y="101" on="0"/>
        <pt x="1016" y="-23" on="0"/>
        <pt x="865" y="-23" on="1"/>
        <pt x="714" y="-23" on="0"/>
        <pt x="438" y="94" on="0"/>
        <pt x="234" y="298" on="0"/>
        <pt x="114" y="593" on="0"/>
      </contour>
      <contour>
        <pt x="343" y="812" on="1"/>
        <pt x="343" y="703" on="0"/>
        <pt x="390" y="488" on="0"/>
        <pt x="484" y="293" on="0"/>
        <pt x="615" y="144" on="0"/>
        <pt x="798" y="56" on="0"/>
        <pt x="902" y="56" on="1"/>
        <pt x="1003" y="56" on="0"/>
        <pt x="1170" y="133" on="0"/>
        <pt x="1281" y="263" on="0"/>
        <pt x="1358" y="435" on="0"/>
        <pt x="1392" y="620" on="0"/>
        <pt x="1392" y="717" on="1"/>
        <pt x="1392" y="826" on="0"/>
        <pt x="1345" y="1040" on="0"/>
        <pt x="1250" y="1233" on="0"/>
        <pt x="1118" y="1381" on="0"/>
        <pt x="935" y="1469" on="0"/>
        <pt x="831" y="1469" on="1"/>
        <pt x="730" y="1469" on="0"/>
        <pt x="564" y="1391" on="0"/>
        <pt x="453" y="1263" on="0"/>
        <pt x="377" y="1091" on="0"/>
        <pt x="343" y="908" on="0"/>
      </contour>
    </TTGlyph>
    <TTGlyph name="OE" xMin="114" yMin="-16" xMax="2294" yMax="1547">
      <contour>
        <pt x="114" y="761" on="1"/>
        <pt x="114" y="867" on="0"/>
        <pt x="169" y="1072" on="0"/>
        <pt x="267" y="1244" on="0"/>
        <pt x="406" y="1390" on="0"/>
        <pt x="569" y="1491" on="0"/>
        <pt x="757" y="1547" on="0"/>
        <pt x="854" y="1547" on="1"/>
        <pt x="866" y="1547" on="0"/>
        <pt x="1287" y="1523" on="0"/>
        <pt x="1376" y="1524" on="1"/>
        <pt x="1480" y="1524" on="0"/>
        <pt x="1992" y="1540" on="0"/>
        <pt x="2123" y="1540" on="1"/>
        <pt x="2132" y="1473" on="0"/>
        <pt x="2185" y="1252" on="0"/>
        <pt x="2190" y="1225" on="1"/>
        <pt x="2178" y="1213" on="0"/>
        <pt x="2148" y="1213" on="1"/>
        <pt x="2119" y="1213" on="0"/>
        <pt x="2116" y="1230" on="1"/>
        <pt x="2097" y="1297" on="0"/>
        <pt x="2043" y="1386" on="0"/>
        <pt x="1971" y="1431" on="0"/>
        <pt x="1897" y="1448" on="0"/>
        <pt x="1847" y="1448" on="1"/>
        <pt x="1647" y="1448" on="1"/>
        <pt x="1631" y="1448" on="0"/>
        <pt x="1590" y="1446" on="0"/>
        <pt x="1531" y="1441" on="0"/>
        <pt x="1490" y="1430" on="0"/>
        <pt x="1487" y="1422" on="1"/>
        <pt x="1476" y="1385" on="0"/>
        <pt x="1476" y="1257" on="1"/>
        <pt x="1476" y="824" on="1"/>
        <pt x="1476" y="810" on="0"/>
        <pt x="1575" y="810" on="1"/>
        <pt x="1698" y="810" on="1"/>
        <pt x="1741" y="810" on="0"/>
        <pt x="1796" y="810" on="0"/>
        <pt x="1848" y="818" on="0"/>
        <pt x="1876" y="823" on="0"/>
        <pt x="1904" y="844" on="0"/>
        <pt x="1916" y="857" on="0"/>
        <pt x="1933" y="898" on="0"/>
        <pt x="1940" y="925" on="0"/>
        <pt x="1948" y="957" on="1"/>
        <pt x="1952" y="970" on="0"/>
        <pt x="1953" y="977" on="1"/>
        <pt x="1957" y="993" on="0"/>
        <pt x="1988" y="993" on="1"/>
        <pt x="2016" y="993" on="0"/>
        <pt x="2028" y="981" on="1"/>
        <pt x="2028" y="543" on="1"/>
        <pt x="2018" y="534" on="0"/>
        <pt x="1991" y="534" on="1"/>
        <pt x="1961" y="534" on="0"/>
        <pt x="1953" y="552" on="1"/>
        <pt x="1937" y="616" on="0"/>
        <pt x="1914" y="680" on="0"/>
        <pt x="1901" y="697" on="0"/>
        <pt x="1888" y="705" on="1"/>
        <pt x="1859" y="724" on="0"/>
        <pt x="1643" y="724" on="1"/>
        <pt x="1476" y="724" on="0"/>
        <pt x="1476" y="703" on="1"/>
        <pt x="1476" y="262" on="1"/>
        <pt x="1476" y="254" on="0"/>
        <pt x="1476" y="244" on="0"/>
        <pt x="1476" y="222" on="0"/>
        <pt x="1476" y="206" on="0"/>
        <pt x="1477" y="182" on="0"/>
        <pt x="1478" y="164" on="0"/>
        <pt x="1479" y="143" on="0"/>
        <pt x="1481" y="127" on="0"/>
        <pt x="1484" y="113" on="0"/>
        <pt x="1487" y="104" on="0"/>
        <pt x="1489" y="102" on="1"/>
        <pt x="1510" y="86" on="0"/>
        <pt x="1572" y="79" on="0"/>
        <pt x="1654" y="79" on="1"/>
        <pt x="1766" y="79" on="1"/>
        <pt x="1849" y="79" on="0"/>
        <pt x="2010" y="113" on="0"/>
        <pt x="2058" y="142" on="1"/>
        <pt x="2084" y="157" on="0"/>
        <pt x="2127" y="204" on="0"/>
        <pt x="2164" y="275" on="0"/>
        <pt x="2186" y="328" on="0"/>
        <pt x="2204" y="376" on="1"/>
        <pt x="2207" y="390" on="0"/>
        <pt x="2236" y="390" on="1"/>
        <pt x="2248" y="390" on="0"/>
        <pt x="2272" y="386" on="0"/>
        <pt x="2291" y="379" on="0"/>
        <pt x="2294" y="376" on="1"/>
        <pt x="2284" y="346" on="0"/>
        <pt x="2235" y="213" on="0"/>
        <pt x="2206" y="131" on="0"/>
        <pt x="2175" y="26" on="0"/>
        <pt x="2169" y="-9" on="1"/>
        <pt x="2050" y="-9" on="0"/>
        <pt x="1539" y="0" on="0"/>
        <pt x="1378" y="0" on="1"/>
        <pt x="1205" y="0" on="0"/>
        <pt x="1104" y="-7" on="1"/>
        <pt x="965" y="-16" on="0"/>
        <pt x="842" y="-16" on="1"/>
        <pt x="692" y="-16" on="0"/>
        <pt x="421" y="106" on="0"/>
        <pt x="227" y="313" on="0"/>
        <pt x="114" y="601" on="0"/>
      </contour>
      <contour>
        <pt x="343" y="812" on="1"/>
        <pt x="343" y="722" on="0"/>
        <pt x="376" y="541" on="0"/>
        <pt x="439" y="372" on="0"/>
        <pt x="536" y="226" on="0"/>
        <pt x="656" y="118" on="0"/>
        <pt x="813" y="56" on="0"/>
        <pt x="900" y="56" on="1"/>
        <pt x="956" y="56" on="0"/>
        <pt x="1039" y="62" on="0"/>
        <pt x="1132" y="79" on="0"/>
        <pt x="1199" y="117" on="0"/>
        <pt x="1218" y="146" on="1"/>
        <pt x="1238" y="177" on="0"/>
        <pt x="1262" y="236" on="0"/>
        <pt x="1272" y="317" on="0"/>
        <pt x="1274" y="374" on="0"/>
        <pt x="1274" y="434" on="1"/>
        <pt x="1274" y="1148" on="1"/>
        <pt x="1274" y="1193" on="0"/>
        <pt x="1262" y="1264" on="0"/>
        <pt x="1225" y="1343" on="0"/>
        <pt x="1192" y="1376" on="1"/>
        <pt x="1140" y="1432" on="0"/>
        <pt x="968" y="1469" on="0"/>
        <pt x="828" y="1469" on="1"/>
        <pt x="747" y="1469" on="0"/>
        <pt x="605" y="1415" on="0"/>
        <pt x="501" y="1320" on="0"/>
        <pt x="419" y="1194" on="0"/>
        <pt x="369" y="1046" on="0"/>
        <pt x="343" y="891" on="0"/>
      </contour>
    </TTGlyph>
    <TTGlyph name="Oacute" xMin="114" yMin="-23" xMax="1622" yMax="1998">
      <contour>
        <pt x="114" y="761" on="1"/>
        <pt x="114" y="920" on="0"/>
        <pt x="235" y="1212" on="0"/>
        <pt x="437" y="1423" on="0"/>
        <pt x="715" y="1547" on="0"/>
        <pt x="865" y="1547" on="1"/>
        <pt x="952" y="1547" on="0"/>
        <pt x="1119" y="1509" on="0"/>
        <pt x="1269" y="1435" on="0"/>
        <pt x="1400" y="1332" on="0"/>
        <pt x="1505" y="1197" on="0"/>
        <pt x="1581" y="1041" on="0"/>
        <pt x="1622" y="858" on="0"/>
        <pt x="1622" y="761" on="1"/>
        <pt x="1622" y="602" on="0"/>
        <pt x="1499" y="310" on="0"/>
        <pt x="1295" y="101" on="0"/>
        <pt x="1016" y="-23" on="0"/>
        <pt x="865" y="-23" on="1"/>
        <pt x="714" y="-23" on="0"/>
        <pt x="438" y="94" on="0"/>
        <pt x="234" y="298" on="0"/>
        <pt x="114" y="593" on="0"/>
      </contour>
      <contour>
        <pt x="343" y="812" on="1"/>
        <pt x="343" y="703" on="0"/>
        <pt x="390" y="488" on="0"/>
        <pt x="484" y="293" on="0"/>
        <pt x="615" y="144" on="0"/>
        <pt x="798" y="56" on="0"/>
        <pt x="902" y="56" on="1"/>
        <pt x="1003" y="56" on="0"/>
        <pt x="1170" y="133" on="0"/>
        <pt x="1281" y="263" on="0"/>
        <pt x="1358" y="435" on="0"/>
        <pt x="1392" y="620" on="0"/>
        <pt x="1392" y="717" on="1"/>
        <pt x="1392" y="826" on="0"/>
        <pt x="1345" y="1040" on="0"/>
        <pt x="1250" y="1233" on="0"/>
        <pt x="1118" y="1381" on="0"/>
        <pt x="935" y="1469" on="0"/>
        <pt x="831" y="1469" on="1"/>
        <pt x="730" y="1469" on="0"/>
        <pt x="564" y="1391" on="0"/>
        <pt x="453" y="1263" on="0"/>
        <pt x="377" y="1091" on="0"/>
        <pt x="343" y="908" on="0"/>
      </contour>
      <contour>
        <pt x="724" y="1710" on="1"/>
        <pt x="724" y="1723" on="0"/>
        <pt x="946" y="1947" on="0"/>
        <pt x="1005" y="1991" on="1"/>
        <pt x="1018" y="1998" on="0"/>
        <pt x="1046" y="1998" on="1"/>
        <pt x="1107" y="1998" on="0"/>
        <pt x="1153" y="1956" on="0"/>
        <pt x="1153" y="1928" on="1"/>
        <pt x="1153" y="1900" on="0"/>
        <pt x="1035" y="1814" on="0"/>
        <pt x="885" y="1742" on="0"/>
        <pt x="753" y="1689" on="0"/>
        <pt x="738" y="1689" on="1"/>
        <pt x="733" y="1689" on="0"/>
        <pt x="724" y="1704" on="0"/>
      </contour>
    </TTGlyph>
    <TTGlyph name="Ocircumflex" xMin="114" yMin="-23" xMax="1622" yMax="1993">
      <contour>
        <pt x="114" y="761" on="1"/>
        <pt x="114" y="920" on="0"/>
        <pt x="235" y="1212" on="0"/>
        <pt x="437" y="1423" on="0"/>
        <pt x="715" y="1547" on="0"/>
        <pt x="865" y="1547" on="1"/>
        <pt x="952" y="1547" on="0"/>
        <pt x="1119" y="1509" on="0"/>
        <pt x="1269" y="1435" on="0"/>
        <pt x="1400" y="1332" on="0"/>
        <pt x="1505" y="1197" on="0"/>
        <pt x="1581" y="1041" on="0"/>
        <pt x="1622" y="858" on="0"/>
        <pt x="1622" y="761" on="1"/>
        <pt x="1622" y="602" on="0"/>
        <pt x="1499" y="310" on="0"/>
        <pt x="1295" y="101" on="0"/>
        <pt x="1016" y="-23" on="0"/>
        <pt x="865" y="-23" on="1"/>
        <pt x="714" y="-23" on="0"/>
        <pt x="438" y="94" on="0"/>
        <pt x="234" y="298" on="0"/>
        <pt x="114" y="593" on="0"/>
      </contour>
      <contour>
        <pt x="343" y="812" on="1"/>
        <pt x="343" y="703" on="0"/>
        <pt x="390" y="488" on="0"/>
        <pt x="484" y="293" on="0"/>
        <pt x="615" y="144" on="0"/>
        <pt x="798" y="56" on="0"/>
        <pt x="902" y="56" on="1"/>
        <pt x="1003" y="56" on="0"/>
        <pt x="1170" y="133" on="0"/>
        <pt x="1281" y="263" on="0"/>
        <pt x="1358" y="435" on="0"/>
        <pt x="1392" y="620" on="0"/>
        <pt x="1392" y="717" on="1"/>
        <pt x="1392" y="826" on="0"/>
        <pt x="1345" y="1040" on="0"/>
        <pt x="1250" y="1233" on="0"/>
        <pt x="1118" y="1381" on="0"/>
        <pt x="935" y="1469" on="0"/>
        <pt x="831" y="1469" on="1"/>
        <pt x="730" y="1469" on="0"/>
        <pt x="564" y="1391" on="0"/>
        <pt x="453" y="1263" on="0"/>
        <pt x="377" y="1091" on="0"/>
        <pt x="343" y="908" on="0"/>
      </contour>
      <contour>
        <pt x="606" y="1726" on="1"/>
        <pt x="643" y="1765" on="0"/>
        <pt x="730" y="1853" on="0"/>
        <pt x="803" y="1928" on="0"/>
        <pt x="844" y="1974" on="1"/>
        <pt x="863" y="1993" on="0"/>
        <pt x="882" y="1993" on="0"/>
        <pt x="900" y="1974" on="1"/>
        <pt x="939" y="1933" on="0"/>
        <pt x="1015" y="1854" on="0"/>
        <pt x="1095" y="1770" on="0"/>
        <pt x="1137" y="1726" on="1"/>
        <pt x="1137" y="1714" on="0"/>
        <pt x="1123" y="1687" on="0"/>
        <pt x="1114" y="1687" on="1"/>
        <pt x="872" y="1835" on="1"/>
        <pt x="631" y="1687" on="1"/>
        <pt x="621" y="1687" on="0"/>
        <pt x="606" y="1714" on="0"/>
      </contour>
    </TTGlyph>
    <TTGlyph name="Odieresis" xMin="114" yMin="-23" xMax="1622" yMax="1921">
      <contour>
        <pt x="114" y="761" on="1"/>
        <pt x="114" y="920" on="0"/>
        <pt x="235" y="1212" on="0"/>
        <pt x="437" y="1423" on="0"/>
        <pt x="715" y="1547" on="0"/>
        <pt x="865" y="1547" on="1"/>
        <pt x="952" y="1547" on="0"/>
        <pt x="1119" y="1509" on="0"/>
        <pt x="1269" y="1435" on="0"/>
        <pt x="1400" y="1332" on="0"/>
        <pt x="1505" y="1197" on="0"/>
        <pt x="1581" y="1041" on="0"/>
        <pt x="1622" y="858" on="0"/>
        <pt x="1622" y="761" on="1"/>
        <pt x="1622" y="602" on="0"/>
        <pt x="1499" y="310" on="0"/>
        <pt x="1295" y="101" on="0"/>
        <pt x="1016" y="-23" on="0"/>
        <pt x="865" y="-23" on="1"/>
        <pt x="714" y="-23" on="0"/>
        <pt x="438" y="94" on="0"/>
        <pt x="234" y="298" on="0"/>
        <pt x="114" y="593" on="0"/>
      </contour>
      <contour>
        <pt x="343" y="812" on="1"/>
        <pt x="343" y="703" on="0"/>
        <pt x="390" y="488" on="0"/>
        <pt x="484" y="293" on="0"/>
        <pt x="615" y="144" on="0"/>
        <pt x="798" y="56" on="0"/>
        <pt x="902" y="56" on="1"/>
        <pt x="1003" y="56" on="0"/>
        <pt x="1170" y="133" on="0"/>
        <pt x="1281" y="263" on="0"/>
        <pt x="1358" y="435" on="0"/>
        <pt x="1392" y="620" on="0"/>
        <pt x="1392" y="717" on="1"/>
        <pt x="1392" y="826" on="0"/>
        <pt x="1345" y="1040" on="0"/>
        <pt x="1250" y="1233" on="0"/>
        <pt x="1118" y="1381" on="0"/>
        <pt x="935" y="1469" on="0"/>
        <pt x="831" y="1469" on="1"/>
        <pt x="730" y="1469" on="0"/>
        <pt x="564" y="1391" on="0"/>
        <pt x="453" y="1263" on="0"/>
        <pt x="377" y="1091" on="0"/>
        <pt x="343" y="908" on="0"/>
      </contour>
      <contour>
        <pt x="543" y="1756" on="0"/>
        <pt x="543" y="1854" on="0"/>
        <pt x="610" y="1921" on="0"/>
        <pt x="708" y="1921" on="0"/>
        <pt x="775" y="1854" on="0"/>
        <pt x="775" y="1756" on="0"/>
        <pt x="708" y="1689" on="0"/>
        <pt x="610" y="1689" on="0"/>
      </contour>
      <contour>
        <pt x="963" y="1756" on="0"/>
        <pt x="963" y="1854" on="0"/>
        <pt x="1030" y="1921" on="0"/>
        <pt x="1128" y="1921" on="0"/>
        <pt x="1195" y="1854" on="0"/>
        <pt x="1195" y="1756" on="0"/>
        <pt x="1128" y="1689" on="0"/>
        <pt x="1030" y="1689" on="0"/>
      </contour>
    </TTGlyph>
    <TTGlyph name="Ograve" xMin="114" yMin="-23" xMax="1622" yMax="1998">
      <contour>
        <pt x="114" y="761" on="1"/>
        <pt x="114" y="920" on="0"/>
        <pt x="235" y="1212" on="0"/>
        <pt x="437" y="1423" on="0"/>
        <pt x="715" y="1547" on="0"/>
        <pt x="865" y="1547" on="1"/>
        <pt x="952" y="1547" on="0"/>
        <pt x="1119" y="1509" on="0"/>
        <pt x="1269" y="1435" on="0"/>
        <pt x="1400" y="1332" on="0"/>
        <pt x="1505" y="1197" on="0"/>
        <pt x="1581" y="1041" on="0"/>
        <pt x="1622" y="858" on="0"/>
        <pt x="1622" y="761" on="1"/>
        <pt x="1622" y="602" on="0"/>
        <pt x="1499" y="310" on="0"/>
        <pt x="1295" y="101" on="0"/>
        <pt x="1016" y="-23" on="0"/>
        <pt x="865" y="-23" on="1"/>
        <pt x="714" y="-23" on="0"/>
        <pt x="438" y="94" on="0"/>
        <pt x="234" y="298" on="0"/>
        <pt x="114" y="593" on="0"/>
      </contour>
      <contour>
        <pt x="343" y="812" on="1"/>
        <pt x="343" y="703" on="0"/>
        <pt x="390" y="488" on="0"/>
        <pt x="484" y="293" on="0"/>
        <pt x="615" y="144" on="0"/>
        <pt x="798" y="56" on="0"/>
        <pt x="902" y="56" on="1"/>
        <pt x="1003" y="56" on="0"/>
        <pt x="1170" y="133" on="0"/>
        <pt x="1281" y="263" on="0"/>
        <pt x="1358" y="435" on="0"/>
        <pt x="1392" y="620" on="0"/>
        <pt x="1392" y="717" on="1"/>
        <pt x="1392" y="826" on="0"/>
        <pt x="1345" y="1040" on="0"/>
        <pt x="1250" y="1233" on="0"/>
        <pt x="1118" y="1381" on="0"/>
        <pt x="935" y="1469" on="0"/>
        <pt x="831" y="1469" on="1"/>
        <pt x="730" y="1469" on="0"/>
        <pt x="564" y="1391" on="0"/>
        <pt x="453" y="1263" on="0"/>
        <pt x="377" y="1091" on="0"/>
        <pt x="343" y="908" on="0"/>
      </contour>
      <contour>
        <pt x="541" y="1928" on="1"/>
        <pt x="541" y="1940" on="0"/>
        <pt x="549" y="1962" on="0"/>
        <pt x="570" y="1984" on="0"/>
        <pt x="615" y="1998" on="0"/>
        <pt x="647" y="1998" on="1"/>
        <pt x="675" y="1998" on="0"/>
        <pt x="689" y="1991" on="1"/>
        <pt x="747" y="1947" on="0"/>
        <pt x="970" y="1723" on="0"/>
        <pt x="970" y="1710" on="1"/>
        <pt x="970" y="1704" on="0"/>
        <pt x="961" y="1689" on="0"/>
        <pt x="956" y="1689" on="1"/>
        <pt x="940" y="1689" on="0"/>
        <pt x="808" y="1742" on="0"/>
        <pt x="659" y="1814" on="0"/>
        <pt x="541" y="1900" on="0"/>
      </contour>
    </TTGlyph>
    <TTGlyph name="Oslash" xMin="114" yMin="-30" xMax="1622" yMax="1547">
      <contour>
        <pt x="114" y="761" on="1"/>
        <pt x="114" y="920" on="0"/>
        <pt x="235" y="1212" on="0"/>
        <pt x="437" y="1423" on="0"/>
        <pt x="715" y="1547" on="0"/>
        <pt x="865" y="1547" on="1"/>
        <pt x="952" y="1547" on="0"/>
        <pt x="1119" y="1509" on="0"/>
        <pt x="1269" y="1435" on="0"/>
        <pt x="1400" y="1332" on="0"/>
        <pt x="1505" y="1197" on="0"/>
        <pt x="1581" y="1041" on="0"/>
        <pt x="1622" y="858" on="0"/>
        <pt x="1622" y="761" on="1"/>
        <pt x="1622" y="602" on="0"/>
        <pt x="1499" y="310" on="0"/>
        <pt x="1295" y="101" on="0"/>
        <pt x="1016" y="-23" on="0"/>
        <pt x="865" y="-23" on="1"/>
        <pt x="714" y="-23" on="0"/>
        <pt x="438" y="94" on="0"/>
        <pt x="234" y="298" on="0"/>
        <pt x="114" y="593" on="0"/>
      </contour>
      <contour>
        <pt x="341" y="23" on="1"/>
        <pt x="1311" y="1547" on="1"/>
        <pt x="1329" y="1543" on="0"/>
        <pt x="1384" y="1506" on="0"/>
        <pt x="1378" y="1496" on="1"/>
        <pt x="408" y="-30" on="1"/>
        <pt x="388" y="-23" on="0"/>
        <pt x="335" y="14" on="0"/>
      </contour>
      <contour>
        <pt x="343" y="812" on="1"/>
        <pt x="343" y="703" on="0"/>
        <pt x="390" y="488" on="0"/>
        <pt x="484" y="293" on="0"/>
        <pt x="615" y="144" on="0"/>
        <pt x="798" y="56" on="0"/>
        <pt x="902" y="56" on="1"/>
        <pt x="1003" y="56" on="0"/>
        <pt x="1170" y="133" on="0"/>
        <pt x="1281" y="263" on="0"/>
        <pt x="1358" y="435" on="0"/>
        <pt x="1392" y="620" on="0"/>
        <pt x="1392" y="717" on="1"/>
        <pt x="1392" y="826" on="0"/>
        <pt x="1345" y="1040" on="0"/>
        <pt x="1250" y="1233" on="0"/>
        <pt x="1118" y="1381" on="0"/>
        <pt x="935" y="1469" on="0"/>
        <pt x="831" y="1469" on="1"/>
        <pt x="730" y="1469" on="0"/>
        <pt x="564" y="1391" on="0"/>
        <pt x="453" y="1263" on="0"/>
        <pt x="377" y="1091" on="0"/>
        <pt x="343" y="908" on="0"/>
      </contour>
    </TTGlyph>
    <TTGlyph name="Otilde" xMin="114" yMin="-23" xMax="1622" yMax="1879">
      <contour>
        <pt x="114" y="761" on="1"/>
        <pt x="114" y="920" on="0"/>
        <pt x="235" y="1212" on="0"/>
        <pt x="437" y="1423" on="0"/>
        <pt x="715" y="1547" on="0"/>
        <pt x="865" y="1547" on="1"/>
        <pt x="952" y="1547" on="0"/>
        <pt x="1119" y="1509" on="0"/>
        <pt x="1269" y="1435" on="0"/>
        <pt x="1400" y="1332" on="0"/>
        <pt x="1505" y="1197" on="0"/>
        <pt x="1581" y="1041" on="0"/>
        <pt x="1622" y="858" on="0"/>
        <pt x="1622" y="761" on="1"/>
        <pt x="1622" y="602" on="0"/>
        <pt x="1499" y="310" on="0"/>
        <pt x="1295" y="101" on="0"/>
        <pt x="1016" y="-23" on="0"/>
        <pt x="865" y="-23" on="1"/>
        <pt x="714" y="-23" on="0"/>
        <pt x="438" y="94" on="0"/>
        <pt x="234" y="298" on="0"/>
        <pt x="114" y="593" on="0"/>
      </contour>
      <contour>
        <pt x="343" y="812" on="1"/>
        <pt x="343" y="703" on="0"/>
        <pt x="390" y="488" on="0"/>
        <pt x="484" y="293" on="0"/>
        <pt x="615" y="144" on="0"/>
        <pt x="798" y="56" on="0"/>
        <pt x="902" y="56" on="1"/>
        <pt x="1003" y="56" on="0"/>
        <pt x="1170" y="133" on="0"/>
        <pt x="1281" y="263" on="0"/>
        <pt x="1358" y="435" on="0"/>
        <pt x="1392" y="620" on="0"/>
        <pt x="1392" y="717" on="1"/>
        <pt x="1392" y="826" on="0"/>
        <pt x="1345" y="1040" on="0"/>
        <pt x="1250" y="1233" on="0"/>
        <pt x="1118" y="1381" on="0"/>
        <pt x="935" y="1469" on="0"/>
        <pt x="831" y="1469" on="1"/>
        <pt x="730" y="1469" on="0"/>
        <pt x="564" y="1391" on="0"/>
        <pt x="453" y="1263" on="0"/>
        <pt x="377" y="1091" on="0"/>
        <pt x="343" y="908" on="0"/>
      </contour>
      <contour>
        <pt x="559" y="1714" on="1"/>
        <pt x="559" y="1754" on="0"/>
        <pt x="592" y="1796" on="1"/>
        <pt x="661" y="1879" on="0"/>
        <pt x="752" y="1879" on="1"/>
        <pt x="781" y="1879" on="0"/>
        <pt x="841" y="1862" on="0"/>
        <pt x="876" y="1845" on="0"/>
        <pt x="907" y="1828" on="1"/>
        <pt x="1005" y="1772" on="0"/>
        <pt x="1049" y="1772" on="1"/>
        <pt x="1075" y="1772" on="0"/>
        <pt x="1121" y="1789" on="0"/>
        <pt x="1154" y="1813" on="0"/>
        <pt x="1178" y="1838" on="0"/>
        <pt x="1196" y="1859" on="0"/>
        <pt x="1199" y="1861" on="1"/>
        <pt x="1206" y="1861" on="0"/>
        <pt x="1213" y="1846" on="0"/>
        <pt x="1213" y="1837" on="1"/>
        <pt x="1213" y="1798" on="0"/>
        <pt x="1181" y="1756" on="1"/>
        <pt x="1110" y="1670" on="0"/>
        <pt x="1021" y="1670" on="1"/>
        <pt x="992" y="1670" on="0"/>
        <pt x="931" y="1687" on="0"/>
        <pt x="896" y="1704" on="0"/>
        <pt x="865" y="1721" on="1"/>
        <pt x="833" y="1740" on="0"/>
        <pt x="797" y="1759" on="0"/>
        <pt x="743" y="1777" on="0"/>
        <pt x="722" y="1777" on="1"/>
        <pt x="700" y="1777" on="0"/>
        <pt x="659" y="1765" on="0"/>
        <pt x="631" y="1747" on="0"/>
        <pt x="606" y="1725" on="0"/>
        <pt x="590" y="1706" on="0"/>
        <pt x="576" y="1691" on="0"/>
        <pt x="573" y="1689" on="1"/>
        <pt x="567" y="1689" on="0"/>
        <pt x="559" y="1706" on="0"/>
      </contour>
    </TTGlyph>
    <TTGlyph name="P" xMin="96" yMin="-7" xMax="1202" yMax="1536">
      <contour>
        <pt x="104" y="60" on="1"/>
        <pt x="140" y="60" on="0"/>
        <pt x="260" y="81" on="0"/>
        <pt x="264" y="97" on="1"/>
        <pt x="276" y="135" on="0"/>
        <pt x="276" y="269" on="1"/>
        <pt x="276" y="1260" on="1"/>
        <pt x="276" y="1394" on="0"/>
        <pt x="264" y="1431" on="1"/>
        <pt x="260" y="1448" on="0"/>
        <pt x="140" y="1469" on="0"/>
        <pt x="104" y="1469" on="1"/>
        <pt x="96" y="1478" on="0"/>
        <pt x="96" y="1502" on="1"/>
        <pt x="96" y="1503" on="0"/>
        <pt x="96" y="1505" on="1"/>
        <pt x="96" y="1527" on="0"/>
        <pt x="104" y="1536" on="1"/>
        <pt x="128" y="1535" on="0"/>
        <pt x="253" y="1528" on="0"/>
        <pt x="337" y="1524" on="0"/>
        <pt x="378" y="1524" on="1"/>
        <pt x="418" y="1524" on="0"/>
        <pt x="633" y="1529" on="0"/>
        <pt x="708" y="1529" on="1"/>
        <pt x="760" y="1529" on="0"/>
        <pt x="864" y="1511" on="0"/>
        <pt x="962" y="1475" on="0"/>
        <pt x="1049" y="1424" on="0"/>
        <pt x="1121" y="1353" on="0"/>
        <pt x="1173" y="1270" on="0"/>
        <pt x="1202" y="1168" on="0"/>
        <pt x="1202" y="1111" on="1"/>
        <pt x="1202" y="972" on="0"/>
        <pt x="1074" y="759" on="0"/>
        <pt x="842" y="645" on="0"/>
        <pt x="691" y="645" on="1"/>
        <pt x="670" y="645" on="0"/>
        <pt x="608" y="655" on="0"/>
        <pt x="592" y="664" on="1"/>
        <pt x="559" y="685" on="0"/>
        <pt x="559" y="715" on="1"/>
        <pt x="559" y="719" on="0"/>
        <pt x="565" y="728" on="0"/>
        <pt x="571" y="726" on="1"/>
        <pt x="630" y="710" on="0"/>
        <pt x="659" y="710" on="1"/>
        <pt x="729" y="710" on="0"/>
        <pt x="849" y="758" on="0"/>
        <pt x="938" y="849" on="0"/>
        <pt x="988" y="987" on="0"/>
        <pt x="988" y="1072" on="1"/>
        <pt x="988" y="1249" on="0"/>
        <pt x="794" y="1455" on="0"/>
        <pt x="606" y="1455" on="1"/>
        <pt x="500" y="1455" on="0"/>
        <pt x="490" y="1431" on="1"/>
        <pt x="478" y="1404" on="0"/>
        <pt x="478" y="1257" on="1"/>
        <pt x="478" y="269" on="1"/>
        <pt x="478" y="135" on="0"/>
        <pt x="490" y="97" on="1"/>
        <pt x="494" y="81" on="0"/>
        <pt x="614" y="60" on="0"/>
        <pt x="650" y="60" on="1"/>
        <pt x="657" y="51" on="0"/>
        <pt x="658" y="2" on="0"/>
        <pt x="650" y="-7" on="1"/>
        <pt x="625" y="-6" on="0"/>
        <pt x="503" y="1" on="0"/>
        <pt x="419" y="5" on="0"/>
        <pt x="337" y="5" on="0"/>
        <pt x="253" y="1" on="0"/>
        <pt x="128" y="-6" on="0"/>
        <pt x="104" y="-7" on="1"/>
        <pt x="96" y="1" on="0"/>
        <pt x="96" y="24" on="1"/>
        <pt x="96" y="50" on="0"/>
      </contour>
    </TTGlyph>
    <TTGlyph name="Q" xMin="114" yMin="-316" xMax="1798" yMax="1547">
      <contour>
        <pt x="114" y="761" on="1"/>
        <pt x="114" y="920" on="0"/>
        <pt x="235" y="1212" on="0"/>
        <pt x="437" y="1423" on="0"/>
        <pt x="715" y="1547" on="0"/>
        <pt x="865" y="1547" on="1"/>
        <pt x="952" y="1547" on="0"/>
        <pt x="1119" y="1509" on="0"/>
        <pt x="1269" y="1435" on="0"/>
        <pt x="1400" y="1332" on="0"/>
        <pt x="1505" y="1197" on="0"/>
        <pt x="1581" y="1041" on="0"/>
        <pt x="1622" y="858" on="0"/>
        <pt x="1622" y="761" on="1"/>
        <pt x="1622" y="656" on="0"/>
        <pt x="1569" y="456" on="0"/>
        <pt x="1471" y="285" on="0"/>
        <pt x="1338" y="143" on="0"/>
        <pt x="1173" y="38" on="0"/>
        <pt x="1081" y="9" on="1"/>
        <pt x="1137" y="-17" on="0"/>
        <pt x="1253" y="-86" on="0"/>
        <pt x="1325" y="-128" on="0"/>
        <pt x="1415" y="-169" on="0"/>
        <pt x="1521" y="-188" on="0"/>
        <pt x="1589" y="-188" on="1"/>
        <pt x="1705" y="-188" on="0"/>
        <pt x="1754" y="-174" on="1"/>
        <pt x="1783" y="-174" on="0"/>
        <pt x="1796" y="-190" on="1"/>
        <pt x="1798" y="-193" on="0"/>
        <pt x="1798" y="-197" on="1"/>
        <pt x="1687" y="-256" on="0"/>
        <pt x="1510" y="-316" on="0"/>
        <pt x="1413" y="-316" on="1"/>
        <pt x="1344" y="-316" on="0"/>
        <pt x="1200" y="-266" on="0"/>
        <pt x="1065" y="-187" on="0"/>
        <pt x="931" y="-103" on="0"/>
        <pt x="762" y="-21" on="0"/>
        <pt x="680" y="0" on="1"/>
        <pt x="559" y="30" on="0"/>
        <pt x="352" y="168" on="0"/>
        <pt x="200" y="362" on="0"/>
        <pt x="114" y="619" on="0"/>
      </contour>
      <contour>
        <pt x="343" y="812" on="1"/>
        <pt x="343" y="703" on="0"/>
        <pt x="390" y="488" on="0"/>
        <pt x="484" y="293" on="0"/>
        <pt x="615" y="144" on="0"/>
        <pt x="798" y="56" on="0"/>
        <pt x="902" y="56" on="1"/>
        <pt x="1003" y="56" on="0"/>
        <pt x="1170" y="133" on="0"/>
        <pt x="1281" y="263" on="0"/>
        <pt x="1358" y="435" on="0"/>
        <pt x="1392" y="620" on="0"/>
        <pt x="1392" y="717" on="1"/>
        <pt x="1392" y="826" on="0"/>
        <pt x="1345" y="1040" on="0"/>
        <pt x="1250" y="1233" on="0"/>
        <pt x="1118" y="1381" on="0"/>
        <pt x="935" y="1469" on="0"/>
        <pt x="831" y="1469" on="1"/>
        <pt x="730" y="1469" on="0"/>
        <pt x="564" y="1391" on="0"/>
        <pt x="453" y="1263" on="0"/>
        <pt x="377" y="1091" on="0"/>
        <pt x="343" y="908" on="0"/>
      </contour>
    </TTGlyph>
    <TTGlyph name="R" xMin="96" yMin="-7" xMax="1504" yMax="1536">
      <contour>
        <pt x="104" y="60" on="1"/>
        <pt x="140" y="60" on="0"/>
        <pt x="260" y="81" on="0"/>
        <pt x="264" y="97" on="1"/>
        <pt x="276" y="135" on="0"/>
        <pt x="276" y="269" on="1"/>
        <pt x="276" y="1260" on="1"/>
        <pt x="276" y="1394" on="0"/>
        <pt x="264" y="1431" on="1"/>
        <pt x="260" y="1448" on="0"/>
        <pt x="140" y="1469" on="0"/>
        <pt x="104" y="1469" on="1"/>
        <pt x="96" y="1478" on="0"/>
        <pt x="96" y="1502" on="1"/>
        <pt x="96" y="1503" on="0"/>
        <pt x="96" y="1505" on="1"/>
        <pt x="96" y="1527" on="0"/>
        <pt x="104" y="1536" on="1"/>
        <pt x="128" y="1535" on="0"/>
        <pt x="253" y="1528" on="0"/>
        <pt x="337" y="1524" on="0"/>
        <pt x="378" y="1524" on="1"/>
        <pt x="418" y="1524" on="0"/>
        <pt x="633" y="1529" on="0"/>
        <pt x="708" y="1529" on="1"/>
        <pt x="772" y="1529" on="0"/>
        <pt x="903" y="1497" on="0"/>
        <pt x="1026" y="1430" on="0"/>
        <pt x="1121" y="1337" on="0"/>
        <pt x="1179" y="1204" on="0"/>
        <pt x="1179" y="1128" on="1"/>
        <pt x="1179" y="1067" on="0"/>
        <pt x="1124" y="943" on="0"/>
        <pt x="1034" y="843" on="0"/>
        <pt x="922" y="765" on="0"/>
        <pt x="863" y="745" on="1"/>
        <pt x="952" y="596" on="0"/>
        <pt x="1117" y="357" on="0"/>
        <pt x="1237" y="200" on="1"/>
        <pt x="1289" y="131" on="0"/>
        <pt x="1406" y="67" on="0"/>
        <pt x="1499" y="60" on="1"/>
        <pt x="1504" y="52" on="0"/>
        <pt x="1504" y="37" on="1"/>
        <pt x="1504" y="31" on="0"/>
        <pt x="1503" y="24" on="1"/>
        <pt x="1500" y="0" on="0"/>
        <pt x="1496" y="-7" on="1"/>
        <pt x="1270" y="-7" on="0"/>
        <pt x="1190" y="21" on="1"/>
        <pt x="1188" y="22" on="0"/>
        <pt x="1184" y="23" on="1"/>
        <pt x="1172" y="27" on="0"/>
        <pt x="1157" y="33" on="0"/>
        <pt x="1129" y="45" on="0"/>
        <pt x="1107" y="59" on="0"/>
        <pt x="1079" y="79" on="0"/>
        <pt x="1052" y="107" on="0"/>
        <pt x="1039" y="123" on="1"/>
        <pt x="1009" y="164" on="0"/>
        <pt x="771" y="517" on="0"/>
        <pt x="670" y="673" on="1"/>
        <pt x="652" y="701" on="0"/>
        <pt x="601" y="701" on="1"/>
        <pt x="478" y="701" on="1"/>
        <pt x="478" y="269" on="1"/>
        <pt x="478" y="135" on="0"/>
        <pt x="490" y="97" on="1"/>
        <pt x="494" y="81" on="0"/>
        <pt x="614" y="60" on="0"/>
        <pt x="650" y="60" on="1"/>
        <pt x="657" y="51" on="0"/>
        <pt x="658" y="2" on="0"/>
        <pt x="650" y="-7" on="1"/>
        <pt x="625" y="-6" on="0"/>
        <pt x="503" y="1" on="0"/>
        <pt x="419" y="5" on="0"/>
        <pt x="337" y="5" on="0"/>
        <pt x="253" y="1" on="0"/>
        <pt x="128" y="-6" on="0"/>
        <pt x="104" y="-7" on="1"/>
        <pt x="96" y="1" on="0"/>
        <pt x="96" y="24" on="1"/>
        <pt x="96" y="50" on="0"/>
      </contour>
      <contour>
        <pt x="478" y="773" on="1"/>
        <pt x="603" y="773" on="1"/>
        <pt x="671" y="773" on="0"/>
        <pt x="800" y="820" on="0"/>
        <pt x="901" y="905" on="0"/>
        <pt x="963" y="1033" on="0"/>
        <pt x="963" y="1107" on="1"/>
        <pt x="963" y="1184" on="0"/>
        <pt x="923" y="1309" on="0"/>
        <pt x="839" y="1403" on="0"/>
        <pt x="700" y="1455" on="0"/>
        <pt x="606" y="1455" on="1"/>
        <pt x="500" y="1455" on="0"/>
        <pt x="490" y="1431" on="1"/>
        <pt x="478" y="1404" on="0"/>
        <pt x="478" y="1257" on="1"/>
      </contour>
    </TTGlyph>
    <TTGlyph name="S" xMin="114" yMin="-23" xMax="1065" yMax="1545">
      <contour>
        <pt x="114" y="404" on="1"/>
        <pt x="125" y="415" on="0"/>
        <pt x="159" y="432" on="0"/>
        <pt x="174" y="432" on="1"/>
        <pt x="195" y="432" on="0"/>
        <pt x="200" y="411" on="1"/>
        <pt x="204" y="388" on="0"/>
        <pt x="220" y="338" on="0"/>
        <pt x="251" y="266" on="0"/>
        <pt x="291" y="201" on="0"/>
        <pt x="353" y="135" on="0"/>
        <pt x="426" y="86" on="0"/>
        <pt x="527" y="56" on="0"/>
        <pt x="585" y="56" on="1"/>
        <pt x="661" y="56" on="0"/>
        <pt x="786" y="120" on="0"/>
        <pt x="863" y="251" on="0"/>
        <pt x="863" y="339" on="1"/>
        <pt x="863" y="370" on="0"/>
        <pt x="853" y="425" on="0"/>
        <pt x="831" y="471" on="0"/>
        <pt x="807" y="509" on="0"/>
        <pt x="767" y="545" on="0"/>
        <pt x="732" y="572" on="0"/>
        <pt x="678" y="604" on="0"/>
        <pt x="638" y="626" on="0"/>
        <pt x="576" y="661" on="0"/>
        <pt x="554" y="673" on="1"/>
        <pt x="550" y="675" on="0"/>
        <pt x="541" y="681" on="1"/>
        <pt x="490" y="711" on="0"/>
        <pt x="436" y="743" on="0"/>
        <pt x="340" y="808" on="0"/>
        <pt x="285" y="856" on="0"/>
        <pt x="215" y="930" on="0"/>
        <pt x="178" y="1000" on="0"/>
        <pt x="151" y="1089" on="0"/>
        <pt x="151" y="1137" on="1"/>
        <pt x="151" y="1226" on="0"/>
        <pt x="228" y="1382" on="0"/>
        <pt x="355" y="1486" on="0"/>
        <pt x="519" y="1545" on="0"/>
        <pt x="606" y="1545" on="1"/>
        <pt x="656" y="1545" on="0"/>
        <pt x="746" y="1534" on="0"/>
        <pt x="804" y="1519" on="0"/>
        <pt x="913" y="1490" on="0"/>
        <pt x="956" y="1480" on="1"/>
        <pt x="971" y="1379" on="0"/>
        <pt x="988" y="1151" on="1"/>
        <pt x="990" y="1140" on="0"/>
        <pt x="955" y="1125" on="0"/>
        <pt x="940" y="1125" on="1"/>
        <pt x="923" y="1125" on="0"/>
        <pt x="914" y="1134" on="1"/>
        <pt x="910" y="1171" on="0"/>
        <pt x="879" y="1256" on="0"/>
        <pt x="822" y="1346" on="0"/>
        <pt x="749" y="1419" on="0"/>
        <pt x="646" y="1466" on="0"/>
        <pt x="589" y="1466" on="1"/>
        <pt x="550" y="1466" on="0"/>
        <pt x="481" y="1449" on="0"/>
        <pt x="430" y="1420" on="0"/>
        <pt x="389" y="1380" on="0"/>
        <pt x="362" y="1334" on="0"/>
        <pt x="344" y="1283" on="0"/>
        <pt x="336" y="1233" on="0"/>
        <pt x="336" y="1209" on="1"/>
        <pt x="336" y="1175" on="0"/>
        <pt x="353" y="1112" on="0"/>
        <pt x="377" y="1064" on="0"/>
        <pt x="422" y="1013" on="0"/>
        <pt x="460" y="979" on="0"/>
        <pt x="524" y="934" on="0"/>
        <pt x="567" y="907" on="0"/>
        <pt x="641" y="862" on="0"/>
        <pt x="661" y="849" on="1"/>
        <pt x="680" y="837" on="0"/>
        <pt x="764" y="786" on="0"/>
        <pt x="815" y="754" on="0"/>
        <pt x="896" y="697" on="0"/>
        <pt x="947" y="652" on="0"/>
        <pt x="1007" y="586" on="0"/>
        <pt x="1041" y="523" on="0"/>
        <pt x="1065" y="443" on="0"/>
        <pt x="1065" y="401" on="1"/>
        <pt x="1065" y="308" on="0"/>
        <pt x="983" y="147" on="0"/>
        <pt x="848" y="39" on="0"/>
        <pt x="673" y="-23" on="0"/>
        <pt x="580" y="-23" on="1"/>
        <pt x="525" y="-23" on="0"/>
        <pt x="399" y="-7" on="0"/>
        <pt x="315" y="10" on="0"/>
        <pt x="187" y="39" on="0"/>
        <pt x="162" y="44" on="1"/>
        <pt x="144" y="135" on="0"/>
        <pt x="114" y="376" on="0"/>
      </contour>
    </TTGlyph>
    <TTGlyph name="T" xMin="28" yMin="-7" xMax="1422" yMax="1583">
      <contour>
        <pt x="28" y="1174" on="1"/>
        <pt x="60" y="1330" on="0"/>
        <pt x="88" y="1573" on="1"/>
        <pt x="108" y="1583" on="0"/>
        <pt x="142" y="1566" on="1"/>
        <pt x="164" y="1555" on="0"/>
        <pt x="245" y="1534" on="0"/>
        <pt x="271" y="1534" on="1"/>
        <pt x="1179" y="1534" on="1"/>
        <pt x="1205" y="1534" on="0"/>
        <pt x="1295" y="1557" on="0"/>
        <pt x="1318" y="1568" on="1"/>
        <pt x="1336" y="1578" on="0"/>
        <pt x="1344" y="1578" on="1"/>
        <pt x="1344" y="1578" on="0"/>
        <pt x="1345" y="1578" on="1"/>
        <pt x="1353" y="1578" on="0"/>
        <pt x="1362" y="1573" on="1"/>
        <pt x="1390" y="1330" on="0"/>
        <pt x="1422" y="1174" on="1"/>
        <pt x="1403" y="1155" on="0"/>
        <pt x="1378" y="1158" on="1"/>
        <pt x="1353" y="1158" on="0"/>
        <pt x="1346" y="1169" on="1"/>
        <pt x="1320" y="1298" on="0"/>
        <pt x="1206" y="1452" on="0"/>
        <pt x="1123" y="1452" on="1"/>
        <pt x="828" y="1452" on="1"/>
        <pt x="828" y="269" on="1"/>
        <pt x="828" y="135" on="0"/>
        <pt x="840" y="97" on="1"/>
        <pt x="844" y="81" on="0"/>
        <pt x="965" y="60" on="0"/>
        <pt x="1000" y="60" on="1"/>
        <pt x="1007" y="51" on="0"/>
        <pt x="1008" y="2" on="0"/>
        <pt x="1000" y="-7" on="1"/>
        <pt x="975" y="-6" on="0"/>
        <pt x="853" y="1" on="0"/>
        <pt x="769" y="5" on="0"/>
        <pt x="688" y="5" on="0"/>
        <pt x="603" y="1" on="0"/>
        <pt x="478" y="-6" on="0"/>
        <pt x="455" y="-7" on="1"/>
        <pt x="446" y="2" on="0"/>
        <pt x="447" y="51" on="0"/>
        <pt x="455" y="60" on="1"/>
        <pt x="490" y="60" on="0"/>
        <pt x="610" y="81" on="0"/>
        <pt x="615" y="97" on="1"/>
        <pt x="626" y="135" on="0"/>
        <pt x="626" y="269" on="1"/>
        <pt x="626" y="1452" on="1"/>
        <pt x="327" y="1452" on="1"/>
        <pt x="244" y="1452" on="0"/>
        <pt x="130" y="1298" on="0"/>
        <pt x="104" y="1169" on="1"/>
        <pt x="97" y="1158" on="0"/>
        <pt x="72" y="1158" on="1"/>
        <pt x="47" y="1155" on="0"/>
      </contour>
    </TTGlyph>
    <TTGlyph name="Thorn" xMin="96" yMin="-7" xMax="1202" yMax="1536">
      <contour>
        <pt x="96" y="2" on="0"/>
        <pt x="97" y="51" on="0"/>
        <pt x="104" y="60" on="1"/>
        <pt x="140" y="60" on="0"/>
        <pt x="260" y="81" on="0"/>
        <pt x="264" y="97" on="1"/>
        <pt x="276" y="135" on="0"/>
        <pt x="276" y="269" on="1"/>
        <pt x="276" y="1260" on="1"/>
        <pt x="276" y="1394" on="0"/>
        <pt x="264" y="1431" on="1"/>
        <pt x="260" y="1448" on="0"/>
        <pt x="140" y="1469" on="0"/>
        <pt x="104" y="1469" on="1"/>
        <pt x="97" y="1478" on="0"/>
        <pt x="96" y="1527" on="0"/>
        <pt x="104" y="1536" on="1"/>
        <pt x="128" y="1535" on="0"/>
        <pt x="253" y="1528" on="0"/>
        <pt x="337" y="1524" on="0"/>
        <pt x="378" y="1524" on="1"/>
        <pt x="410" y="1524" on="0"/>
        <pt x="483" y="1527" on="0"/>
        <pt x="539" y="1530" on="0"/>
        <pt x="623" y="1535" on="0"/>
        <pt x="650" y="1536" on="1"/>
        <pt x="658" y="1527" on="0"/>
        <pt x="657" y="1478" on="0"/>
        <pt x="650" y="1469" on="1"/>
        <pt x="614" y="1469" on="0"/>
        <pt x="494" y="1448" on="0"/>
        <pt x="490" y="1431" on="1"/>
        <pt x="478" y="1394" on="0"/>
        <pt x="478" y="1260" on="1"/>
        <pt x="478" y="1114" on="1"/>
        <pt x="517" y="1141" on="0"/>
        <pt x="643" y="1174" on="0"/>
        <pt x="723" y="1181" on="0"/>
        <pt x="754" y="1181" on="1"/>
        <pt x="801" y="1181" on="0"/>
        <pt x="903" y="1156" on="0"/>
        <pt x="1004" y="1109" on="0"/>
        <pt x="1093" y="1036" on="0"/>
        <pt x="1162" y="947" on="0"/>
        <pt x="1202" y="828" on="0"/>
        <pt x="1202" y="763" on="1"/>
        <pt x="1202" y="624" on="0"/>
        <pt x="1074" y="411" on="0"/>
        <pt x="842" y="297" on="0"/>
        <pt x="691" y="297" on="1"/>
        <pt x="670" y="297" on="0"/>
        <pt x="608" y="307" on="0"/>
        <pt x="592" y="316" on="1"/>
        <pt x="559" y="337" on="0"/>
        <pt x="559" y="367" on="1"/>
        <pt x="559" y="371" on="0"/>
        <pt x="565" y="380" on="0"/>
        <pt x="571" y="378" on="1"/>
        <pt x="630" y="362" on="0"/>
        <pt x="659" y="362" on="1"/>
        <pt x="729" y="362" on="0"/>
        <pt x="849" y="410" on="0"/>
        <pt x="938" y="501" on="0"/>
        <pt x="988" y="639" on="0"/>
        <pt x="988" y="724" on="1"/>
        <pt x="988" y="894" on="0"/>
        <pt x="813" y="1090" on="0"/>
        <pt x="668" y="1090" on="1"/>
        <pt x="655" y="1090" on="0"/>
        <pt x="613" y="1084" on="0"/>
        <pt x="558" y="1070" on="0"/>
        <pt x="509" y="1040" on="0"/>
        <pt x="496" y="1021" on="1"/>
        <pt x="478" y="992" on="0"/>
        <pt x="478" y="835" on="1"/>
        <pt x="478" y="269" on="1"/>
        <pt x="478" y="135" on="0"/>
        <pt x="490" y="97" on="1"/>
        <pt x="494" y="81" on="0"/>
        <pt x="614" y="60" on="0"/>
        <pt x="650" y="60" on="1"/>
        <pt x="657" y="51" on="0"/>
        <pt x="658" y="2" on="0"/>
        <pt x="650" y="-7" on="1"/>
        <pt x="625" y="-6" on="0"/>
        <pt x="503" y="1" on="0"/>
        <pt x="419" y="5" on="0"/>
        <pt x="337" y="5" on="0"/>
        <pt x="253" y="1" on="0"/>
        <pt x="128" y="-6" on="0"/>
        <pt x="104" y="-7" on="1"/>
      </contour>
    </TTGlyph>
    <TTGlyph name="U" xMin="59" yMin="-9" xMax="1640" yMax="1538">
      <contour>
        <pt x="59" y="1505" on="1"/>
        <pt x="59" y="1527" on="0"/>
        <pt x="67" y="1536" on="1"/>
        <pt x="91" y="1535" on="0"/>
        <pt x="216" y="1528" on="0"/>
        <pt x="300" y="1524" on="0"/>
        <pt x="382" y="1524" on="0"/>
        <pt x="466" y="1528" on="0"/>
        <pt x="588" y="1535" on="0"/>
        <pt x="612" y="1536" on="1"/>
        <pt x="621" y="1527" on="0"/>
        <pt x="620" y="1478" on="0"/>
        <pt x="612" y="1469" on="1"/>
        <pt x="577" y="1469" on="0"/>
        <pt x="457" y="1448" on="0"/>
        <pt x="452" y="1431" on="1"/>
        <pt x="441" y="1394" on="0"/>
        <pt x="441" y="1260" on="1"/>
        <pt x="441" y="687" on="1"/>
        <pt x="441" y="402" on="0"/>
        <pt x="554" y="260" on="1"/>
        <pt x="661" y="125" on="0"/>
        <pt x="872" y="125" on="1"/>
        <pt x="1313" y="125" on="0"/>
        <pt x="1322" y="636" on="1"/>
        <pt x="1322" y="1264" on="1"/>
        <pt x="1322" y="1337" on="0"/>
        <pt x="1315" y="1399" on="0"/>
        <pt x="1299" y="1424" on="1"/>
        <pt x="1290" y="1440" on="0"/>
        <pt x="1165" y="1471" on="0"/>
        <pt x="1132" y="1471" on="1"/>
        <pt x="1124" y="1482" on="0"/>
        <pt x="1123" y="1529" on="0"/>
        <pt x="1128" y="1538" on="1"/>
        <pt x="1154" y="1537" on="0"/>
        <pt x="1229" y="1532" on="0"/>
        <pt x="1278" y="1529" on="0"/>
        <pt x="1349" y="1527" on="0"/>
        <pt x="1385" y="1527" on="1"/>
        <pt x="1432" y="1527" on="0"/>
        <pt x="1505" y="1530" on="0"/>
        <pt x="1594" y="1536" on="0"/>
        <pt x="1633" y="1538" on="1"/>
        <pt x="1639" y="1528" on="0"/>
        <pt x="1640" y="1510" on="1"/>
        <pt x="1640" y="1508" on="0"/>
        <pt x="1640" y="1505" on="1"/>
        <pt x="1640" y="1488" on="0"/>
        <pt x="1633" y="1471" on="1"/>
        <pt x="1601" y="1471" on="0"/>
        <pt x="1463" y="1443" on="0"/>
        <pt x="1452" y="1424" on="1"/>
        <pt x="1437" y="1400" on="0"/>
        <pt x="1429" y="1337" on="0"/>
        <pt x="1429" y="1267" on="1"/>
        <pt x="1429" y="640" on="1"/>
        <pt x="1429" y="470" on="0"/>
        <pt x="1343" y="217" on="0"/>
        <pt x="1180" y="64" on="0"/>
        <pt x="962" y="-9" on="0"/>
        <pt x="824" y="-9" on="1"/>
        <pt x="699" y="-9" on="0"/>
        <pt x="488" y="70" on="0"/>
        <pt x="411" y="144" on="1"/>
        <pt x="329" y="222" on="0"/>
        <pt x="239" y="446" on="0"/>
        <pt x="239" y="582" on="1"/>
        <pt x="239" y="1260" on="1"/>
        <pt x="239" y="1394" on="0"/>
        <pt x="227" y="1431" on="1"/>
        <pt x="223" y="1448" on="0"/>
        <pt x="102" y="1469" on="0"/>
        <pt x="67" y="1469" on="1"/>
        <pt x="59" y="1478" on="0"/>
      </contour>
    </TTGlyph>
    <TTGlyph name="Uacute" xMin="59" yMin="-9" xMax="1641" yMax="1998">
      <contour>
        <pt x="60" y="1478" on="0"/>
        <pt x="59" y="1527" on="0"/>
        <pt x="67" y="1536" on="1"/>
        <pt x="91" y="1535" on="0"/>
        <pt x="216" y="1528" on="0"/>
        <pt x="300" y="1524" on="0"/>
        <pt x="382" y="1524" on="0"/>
        <pt x="466" y="1528" on="0"/>
        <pt x="588" y="1535" on="0"/>
        <pt x="612" y="1536" on="1"/>
        <pt x="621" y="1527" on="0"/>
        <pt x="620" y="1478" on="0"/>
        <pt x="612" y="1469" on="1"/>
        <pt x="577" y="1469" on="0"/>
        <pt x="457" y="1448" on="0"/>
        <pt x="452" y="1431" on="1"/>
        <pt x="441" y="1394" on="0"/>
        <pt x="441" y="1260" on="1"/>
        <pt x="441" y="687" on="1"/>
        <pt x="441" y="402" on="0"/>
        <pt x="554" y="260" on="1"/>
        <pt x="661" y="125" on="0"/>
        <pt x="872" y="125" on="1"/>
        <pt x="1313" y="125" on="0"/>
        <pt x="1322" y="636" on="1"/>
        <pt x="1322" y="1264" on="1"/>
        <pt x="1322" y="1337" on="0"/>
        <pt x="1315" y="1399" on="0"/>
        <pt x="1299" y="1424" on="1"/>
        <pt x="1290" y="1440" on="0"/>
        <pt x="1165" y="1471" on="0"/>
        <pt x="1132" y="1471" on="1"/>
        <pt x="1124" y="1482" on="0"/>
        <pt x="1123" y="1529" on="0"/>
        <pt x="1128" y="1538" on="1"/>
        <pt x="1154" y="1537" on="0"/>
        <pt x="1229" y="1532" on="0"/>
        <pt x="1278" y="1529" on="0"/>
        <pt x="1349" y="1527" on="0"/>
        <pt x="1385" y="1527" on="1"/>
        <pt x="1432" y="1527" on="0"/>
        <pt x="1505" y="1530" on="0"/>
        <pt x="1594" y="1536" on="0"/>
        <pt x="1633" y="1538" on="1"/>
        <pt x="1639" y="1528" on="0"/>
        <pt x="1641" y="1491" on="0"/>
        <pt x="1633" y="1471" on="1"/>
        <pt x="1601" y="1471" on="0"/>
        <pt x="1463" y="1443" on="0"/>
        <pt x="1452" y="1424" on="1"/>
        <pt x="1437" y="1400" on="0"/>
        <pt x="1429" y="1337" on="0"/>
        <pt x="1429" y="1267" on="1"/>
        <pt x="1429" y="640" on="1"/>
        <pt x="1429" y="470" on="0"/>
        <pt x="1343" y="217" on="0"/>
        <pt x="1180" y="64" on="0"/>
        <pt x="962" y="-9" on="0"/>
        <pt x="824" y="-9" on="1"/>
        <pt x="699" y="-9" on="0"/>
        <pt x="488" y="70" on="0"/>
        <pt x="411" y="144" on="1"/>
        <pt x="329" y="222" on="0"/>
        <pt x="239" y="446" on="0"/>
        <pt x="239" y="582" on="1"/>
        <pt x="239" y="1260" on="1"/>
        <pt x="239" y="1394" on="0"/>
        <pt x="227" y="1431" on="1"/>
        <pt x="223" y="1448" on="0"/>
        <pt x="102" y="1469" on="0"/>
        <pt x="67" y="1469" on="1"/>
      </contour>
      <contour>
        <pt x="775" y="1710" on="1"/>
        <pt x="775" y="1723" on="0"/>
        <pt x="997" y="1947" on="0"/>
        <pt x="1056" y="1991" on="1"/>
        <pt x="1070" y="1998" on="0"/>
        <pt x="1097" y="1998" on="1"/>
        <pt x="1158" y="1998" on="0"/>
        <pt x="1204" y="1956" on="0"/>
        <pt x="1204" y="1928" on="1"/>
        <pt x="1204" y="1900" on="0"/>
        <pt x="1086" y="1814" on="0"/>
        <pt x="936" y="1742" on="0"/>
        <pt x="805" y="1689" on="0"/>
        <pt x="789" y="1689" on="1"/>
        <pt x="784" y="1689" on="0"/>
        <pt x="775" y="1704" on="0"/>
      </contour>
    </TTGlyph>
    <TTGlyph name="Ucircumflex" xMin="59" yMin="-9" xMax="1641" yMax="1993">
      <contour>
        <pt x="60" y="1478" on="0"/>
        <pt x="59" y="1527" on="0"/>
        <pt x="67" y="1536" on="1"/>
        <pt x="91" y="1535" on="0"/>
        <pt x="216" y="1528" on="0"/>
        <pt x="300" y="1524" on="0"/>
        <pt x="382" y="1524" on="0"/>
        <pt x="466" y="1528" on="0"/>
        <pt x="588" y="1535" on="0"/>
        <pt x="612" y="1536" on="1"/>
        <pt x="621" y="1527" on="0"/>
        <pt x="620" y="1478" on="0"/>
        <pt x="612" y="1469" on="1"/>
        <pt x="577" y="1469" on="0"/>
        <pt x="457" y="1448" on="0"/>
        <pt x="452" y="1431" on="1"/>
        <pt x="441" y="1394" on="0"/>
        <pt x="441" y="1260" on="1"/>
        <pt x="441" y="687" on="1"/>
        <pt x="441" y="402" on="0"/>
        <pt x="554" y="260" on="1"/>
        <pt x="661" y="125" on="0"/>
        <pt x="872" y="125" on="1"/>
        <pt x="1313" y="125" on="0"/>
        <pt x="1322" y="636" on="1"/>
        <pt x="1322" y="1264" on="1"/>
        <pt x="1322" y="1337" on="0"/>
        <pt x="1315" y="1399" on="0"/>
        <pt x="1299" y="1424" on="1"/>
        <pt x="1290" y="1440" on="0"/>
        <pt x="1165" y="1471" on="0"/>
        <pt x="1132" y="1471" on="1"/>
        <pt x="1124" y="1482" on="0"/>
        <pt x="1123" y="1529" on="0"/>
        <pt x="1128" y="1538" on="1"/>
        <pt x="1154" y="1537" on="0"/>
        <pt x="1229" y="1532" on="0"/>
        <pt x="1278" y="1529" on="0"/>
        <pt x="1349" y="1527" on="0"/>
        <pt x="1385" y="1527" on="1"/>
        <pt x="1432" y="1527" on="0"/>
        <pt x="1505" y="1530" on="0"/>
        <pt x="1594" y="1536" on="0"/>
        <pt x="1633" y="1538" on="1"/>
        <pt x="1639" y="1528" on="0"/>
        <pt x="1641" y="1491" on="0"/>
        <pt x="1633" y="1471" on="1"/>
        <pt x="1601" y="1471" on="0"/>
        <pt x="1463" y="1443" on="0"/>
        <pt x="1452" y="1424" on="1"/>
        <pt x="1437" y="1400" on="0"/>
        <pt x="1429" y="1337" on="0"/>
        <pt x="1429" y="1267" on="1"/>
        <pt x="1429" y="640" on="1"/>
        <pt x="1429" y="470" on="0"/>
        <pt x="1343" y="217" on="0"/>
        <pt x="1180" y="64" on="0"/>
        <pt x="962" y="-9" on="0"/>
        <pt x="824" y="-9" on="1"/>
        <pt x="699" y="-9" on="0"/>
        <pt x="488" y="70" on="0"/>
        <pt x="411" y="144" on="1"/>
        <pt x="329" y="222" on="0"/>
        <pt x="239" y="446" on="0"/>
        <pt x="239" y="582" on="1"/>
        <pt x="239" y="1260" on="1"/>
        <pt x="239" y="1394" on="0"/>
        <pt x="227" y="1431" on="1"/>
        <pt x="223" y="1448" on="0"/>
        <pt x="102" y="1469" on="0"/>
        <pt x="67" y="1469" on="1"/>
      </contour>
      <contour>
        <pt x="582" y="1726" on="1"/>
        <pt x="613" y="1758" on="0"/>
        <pt x="766" y="1914" on="0"/>
        <pt x="821" y="1974" on="1"/>
        <pt x="840" y="1993" on="0"/>
        <pt x="858" y="1993" on="0"/>
        <pt x="877" y="1974" on="1"/>
        <pt x="916" y="1933" on="0"/>
        <pt x="992" y="1854" on="0"/>
        <pt x="1072" y="1770" on="0"/>
        <pt x="1114" y="1726" on="1"/>
        <pt x="1114" y="1714" on="0"/>
        <pt x="1100" y="1687" on="0"/>
        <pt x="1090" y="1687" on="1"/>
        <pt x="849" y="1835" on="1"/>
        <pt x="608" y="1687" on="1"/>
        <pt x="598" y="1687" on="0"/>
        <pt x="582" y="1714" on="0"/>
      </contour>
    </TTGlyph>
    <TTGlyph name="Udieresis" xMin="59" yMin="-9" xMax="1641" yMax="1921">
      <contour>
        <pt x="60" y="1478" on="0"/>
        <pt x="59" y="1527" on="0"/>
        <pt x="67" y="1536" on="1"/>
        <pt x="91" y="1535" on="0"/>
        <pt x="216" y="1528" on="0"/>
        <pt x="300" y="1524" on="0"/>
        <pt x="382" y="1524" on="0"/>
        <pt x="466" y="1528" on="0"/>
        <pt x="588" y="1535" on="0"/>
        <pt x="612" y="1536" on="1"/>
        <pt x="621" y="1527" on="0"/>
        <pt x="620" y="1478" on="0"/>
        <pt x="612" y="1469" on="1"/>
        <pt x="577" y="1469" on="0"/>
        <pt x="457" y="1448" on="0"/>
        <pt x="452" y="1431" on="1"/>
        <pt x="441" y="1394" on="0"/>
        <pt x="441" y="1260" on="1"/>
        <pt x="441" y="687" on="1"/>
        <pt x="441" y="402" on="0"/>
        <pt x="554" y="260" on="1"/>
        <pt x="661" y="125" on="0"/>
        <pt x="872" y="125" on="1"/>
        <pt x="1313" y="125" on="0"/>
        <pt x="1322" y="636" on="1"/>
        <pt x="1322" y="1264" on="1"/>
        <pt x="1322" y="1337" on="0"/>
        <pt x="1315" y="1399" on="0"/>
        <pt x="1299" y="1424" on="1"/>
        <pt x="1290" y="1440" on="0"/>
        <pt x="1165" y="1471" on="0"/>
        <pt x="1132" y="1471" on="1"/>
        <pt x="1124" y="1482" on="0"/>
        <pt x="1123" y="1529" on="0"/>
        <pt x="1128" y="1538" on="1"/>
        <pt x="1154" y="1537" on="0"/>
        <pt x="1229" y="1532" on="0"/>
        <pt x="1278" y="1529" on="0"/>
        <pt x="1349" y="1527" on="0"/>
        <pt x="1385" y="1527" on="1"/>
        <pt x="1432" y="1527" on="0"/>
        <pt x="1505" y="1530" on="0"/>
        <pt x="1594" y="1536" on="0"/>
        <pt x="1633" y="1538" on="1"/>
        <pt x="1639" y="1528" on="0"/>
        <pt x="1641" y="1491" on="0"/>
        <pt x="1633" y="1471" on="1"/>
        <pt x="1601" y="1471" on="0"/>
        <pt x="1463" y="1443" on="0"/>
        <pt x="1452" y="1424" on="1"/>
        <pt x="1437" y="1400" on="0"/>
        <pt x="1429" y="1337" on="0"/>
        <pt x="1429" y="1267" on="1"/>
        <pt x="1429" y="640" on="1"/>
        <pt x="1429" y="470" on="0"/>
        <pt x="1343" y="217" on="0"/>
        <pt x="1180" y="64" on="0"/>
        <pt x="962" y="-9" on="0"/>
        <pt x="824" y="-9" on="1"/>
        <pt x="699" y="-9" on="0"/>
        <pt x="488" y="70" on="0"/>
        <pt x="411" y="144" on="1"/>
        <pt x="329" y="222" on="0"/>
        <pt x="239" y="446" on="0"/>
        <pt x="239" y="582" on="1"/>
        <pt x="239" y="1260" on="1"/>
        <pt x="239" y="1394" on="0"/>
        <pt x="227" y="1431" on="1"/>
        <pt x="223" y="1448" on="0"/>
        <pt x="102" y="1469" on="0"/>
        <pt x="67" y="1469" on="1"/>
      </contour>
      <contour>
        <pt x="520" y="1756" on="0"/>
        <pt x="520" y="1854" on="0"/>
        <pt x="587" y="1921" on="0"/>
        <pt x="684" y="1921" on="0"/>
        <pt x="752" y="1854" on="0"/>
        <pt x="752" y="1756" on="0"/>
        <pt x="684" y="1689" on="0"/>
        <pt x="587" y="1689" on="0"/>
      </contour>
      <contour>
        <pt x="940" y="1756" on="0"/>
        <pt x="940" y="1854" on="0"/>
        <pt x="1007" y="1921" on="0"/>
        <pt x="1104" y="1921" on="0"/>
        <pt x="1172" y="1854" on="0"/>
        <pt x="1172" y="1756" on="0"/>
        <pt x="1104" y="1689" on="0"/>
        <pt x="1007" y="1689" on="0"/>
      </contour>
    </TTGlyph>
    <TTGlyph name="Ugrave" xMin="59" yMin="-9" xMax="1641" yMax="1998">
      <contour>
        <pt x="60" y="1478" on="0"/>
        <pt x="59" y="1527" on="0"/>
        <pt x="67" y="1536" on="1"/>
        <pt x="91" y="1535" on="0"/>
        <pt x="216" y="1528" on="0"/>
        <pt x="300" y="1524" on="0"/>
        <pt x="382" y="1524" on="0"/>
        <pt x="466" y="1528" on="0"/>
        <pt x="588" y="1535" on="0"/>
        <pt x="612" y="1536" on="1"/>
        <pt x="621" y="1527" on="0"/>
        <pt x="620" y="1478" on="0"/>
        <pt x="612" y="1469" on="1"/>
        <pt x="577" y="1469" on="0"/>
        <pt x="457" y="1448" on="0"/>
        <pt x="452" y="1431" on="1"/>
        <pt x="441" y="1394" on="0"/>
        <pt x="441" y="1260" on="1"/>
        <pt x="441" y="687" on="1"/>
        <pt x="441" y="402" on="0"/>
        <pt x="554" y="260" on="1"/>
        <pt x="661" y="125" on="0"/>
        <pt x="872" y="125" on="1"/>
        <pt x="1313" y="125" on="0"/>
        <pt x="1322" y="636" on="1"/>
        <pt x="1322" y="1264" on="1"/>
        <pt x="1322" y="1337" on="0"/>
        <pt x="1315" y="1399" on="0"/>
        <pt x="1299" y="1424" on="1"/>
        <pt x="1290" y="1440" on="0"/>
        <pt x="1165" y="1471" on="0"/>
        <pt x="1132" y="1471" on="1"/>
        <pt x="1124" y="1482" on="0"/>
        <pt x="1123" y="1529" on="0"/>
        <pt x="1128" y="1538" on="1"/>
        <pt x="1154" y="1537" on="0"/>
        <pt x="1229" y="1532" on="0"/>
        <pt x="1278" y="1529" on="0"/>
        <pt x="1349" y="1527" on="0"/>
        <pt x="1385" y="1527" on="1"/>
        <pt x="1432" y="1527" on="0"/>
        <pt x="1505" y="1530" on="0"/>
        <pt x="1594" y="1536" on="0"/>
        <pt x="1633" y="1538" on="1"/>
        <pt x="1639" y="1528" on="0"/>
        <pt x="1641" y="1491" on="0"/>
        <pt x="1633" y="1471" on="1"/>
        <pt x="1601" y="1471" on="0"/>
        <pt x="1463" y="1443" on="0"/>
        <pt x="1452" y="1424" on="1"/>
        <pt x="1437" y="1400" on="0"/>
        <pt x="1429" y="1337" on="0"/>
        <pt x="1429" y="1267" on="1"/>
        <pt x="1429" y="640" on="1"/>
        <pt x="1429" y="470" on="0"/>
        <pt x="1343" y="217" on="0"/>
        <pt x="1180" y="64" on="0"/>
        <pt x="962" y="-9" on="0"/>
        <pt x="824" y="-9" on="1"/>
        <pt x="699" y="-9" on="0"/>
        <pt x="488" y="70" on="0"/>
        <pt x="411" y="144" on="1"/>
        <pt x="329" y="222" on="0"/>
        <pt x="239" y="446" on="0"/>
        <pt x="239" y="582" on="1"/>
        <pt x="239" y="1260" on="1"/>
        <pt x="239" y="1394" on="0"/>
        <pt x="227" y="1431" on="1"/>
        <pt x="223" y="1448" on="0"/>
        <pt x="102" y="1469" on="0"/>
        <pt x="67" y="1469" on="1"/>
      </contour>
      <contour>
        <pt x="545" y="1928" on="1"/>
        <pt x="545" y="1956" on="0"/>
        <pt x="592" y="1998" on="0"/>
        <pt x="652" y="1998" on="1"/>
        <pt x="680" y="1998" on="0"/>
        <pt x="694" y="1991" on="1"/>
        <pt x="723" y="1969" on="0"/>
        <pt x="821" y="1878" on="0"/>
        <pt x="909" y="1789" on="0"/>
        <pt x="974" y="1716" on="0"/>
        <pt x="974" y="1704" on="0"/>
        <pt x="965" y="1689" on="0"/>
        <pt x="960" y="1689" on="1"/>
        <pt x="945" y="1689" on="0"/>
        <pt x="813" y="1742" on="0"/>
        <pt x="664" y="1814" on="0"/>
        <pt x="545" y="1900" on="0"/>
      </contour>
    </TTGlyph>
    <TTGlyph name="V" xMin="-17" yMin="-5" xMax="1516" yMax="1536">
      <contour>
        <pt x="-17" y="1469" on="0"/>
        <pt x="-17" y="1532" on="0"/>
        <pt x="-14" y="1536" on="1"/>
        <pt x="23" y="1534" on="0"/>
        <pt x="126" y="1528" on="0"/>
        <pt x="208" y="1524" on="0"/>
        <pt x="255" y="1524" on="1"/>
        <pt x="311" y="1524" on="0"/>
        <pt x="543" y="1536" on="1"/>
        <pt x="547" y="1526" on="0"/>
        <pt x="545" y="1470" on="0"/>
        <pt x="538" y="1469" on="1"/>
        <pt x="527" y="1469" on="0"/>
        <pt x="489" y="1462" on="0"/>
        <pt x="436" y="1448" on="0"/>
        <pt x="399" y="1415" on="0"/>
        <pt x="399" y="1392" on="1"/>
        <pt x="399" y="1346" on="0"/>
        <pt x="438" y="1234" on="1"/>
        <pt x="655" y="642" on="0"/>
        <pt x="784" y="299" on="1"/>
        <pt x="793" y="317" on="0"/>
        <pt x="914" y="610" on="0"/>
        <pt x="1092" y="1051" on="0"/>
        <pt x="1155" y="1213" on="1"/>
        <pt x="1197" y="1320" on="0"/>
        <pt x="1197" y="1376" on="1"/>
        <pt x="1197" y="1402" on="0"/>
        <pt x="1158" y="1440" on="0"/>
        <pt x="1102" y="1458" on="0"/>
        <pt x="1058" y="1466" on="0"/>
        <pt x="1044" y="1466" on="1"/>
        <pt x="1035" y="1470" on="0"/>
        <pt x="1035" y="1525" on="0"/>
        <pt x="1044" y="1534" on="1"/>
        <pt x="1216" y="1524" on="0"/>
        <pt x="1285" y="1524" on="1"/>
        <pt x="1322" y="1524" on="0"/>
        <pt x="1384" y="1527" on="0"/>
        <pt x="1423" y="1530" on="0"/>
        <pt x="1484" y="1534" on="0"/>
        <pt x="1513" y="1536" on="1"/>
        <pt x="1516" y="1530" on="0"/>
        <pt x="1516" y="1515" on="1"/>
        <pt x="1516" y="1508" on="0"/>
        <pt x="1516" y="1498" on="1"/>
        <pt x="1514" y="1469" on="0"/>
        <pt x="1508" y="1469" on="1"/>
        <pt x="1483" y="1469" on="0"/>
        <pt x="1385" y="1438" on="0"/>
        <pt x="1360" y="1408" on="1"/>
        <pt x="1340" y="1385" on="0"/>
        <pt x="1272" y="1245" on="0"/>
        <pt x="1244" y="1174" on="1"/>
        <pt x="1049" y="684" on="0"/>
        <pt x="793" y="74" on="1"/>
        <pt x="761" y="-5" on="0"/>
        <pt x="705" y="-5" on="1"/>
        <pt x="703" y="-5" on="0"/>
        <pt x="697" y="1" on="0"/>
        <pt x="692" y="11" on="0"/>
        <pt x="688" y="20" on="0"/>
        <pt x="683" y="31" on="0"/>
        <pt x="682" y="32" on="1"/>
        <pt x="636" y="153" on="0"/>
        <pt x="342" y="935" on="0"/>
        <pt x="241" y="1192" on="1"/>
        <pt x="186" y="1337" on="0"/>
        <pt x="135" y="1415" on="1"/>
        <pt x="118" y="1440" on="0"/>
        <pt x="17" y="1469" on="0"/>
        <pt x="-14" y="1469" on="1"/>
      </contour>
    </TTGlyph>
    <TTGlyph name="W" xMin="-13" yMin="-5" xMax="2101" yMax="1536">
      <contour>
        <pt x="-13" y="1469" on="0"/>
        <pt x="-13" y="1532" on="0"/>
        <pt x="-9" y="1536" on="1"/>
        <pt x="26" y="1534" on="0"/>
        <pt x="139" y="1528" on="0"/>
        <pt x="226" y="1524" on="0"/>
        <pt x="274" y="1524" on="1"/>
        <pt x="319" y="1524" on="0"/>
        <pt x="397" y="1528" on="0"/>
        <pt x="494" y="1534" on="0"/>
        <pt x="524" y="1536" on="1"/>
        <pt x="528" y="1526" on="0"/>
        <pt x="526" y="1470" on="0"/>
        <pt x="520" y="1469" on="1"/>
        <pt x="512" y="1469" on="0"/>
        <pt x="484" y="1465" on="0"/>
        <pt x="442" y="1455" on="0"/>
        <pt x="406" y="1439" on="0"/>
        <pt x="380" y="1410" on="0"/>
        <pt x="380" y="1392" on="1"/>
        <pt x="380" y="1363" on="0"/>
        <pt x="415" y="1241" on="1"/>
        <pt x="438" y="1158" on="0"/>
        <pt x="528" y="861" on="0"/>
        <pt x="646" y="472" on="0"/>
        <pt x="684" y="343" on="1"/>
        <pt x="746" y="546" on="0"/>
        <pt x="1009" y="1374" on="0"/>
        <pt x="1035" y="1459" on="1"/>
        <pt x="1040" y="1475" on="0"/>
        <pt x="1060" y="1504" on="0"/>
        <pt x="1084" y="1524" on="0"/>
        <pt x="1109" y="1536" on="0"/>
        <pt x="1118" y="1536" on="1"/>
        <pt x="1129" y="1536" on="0"/>
        <pt x="1146" y="1499" on="1"/>
        <pt x="1147" y="1495" on="0"/>
        <pt x="1202" y="1319" on="0"/>
        <pt x="1276" y="1086" on="0"/>
        <pt x="1367" y="799" on="0"/>
        <pt x="1471" y="480" on="0"/>
        <pt x="1515" y="350" on="1"/>
        <pt x="1551" y="478" on="0"/>
        <pt x="1647" y="810" on="0"/>
        <pt x="1720" y="1071" on="0"/>
        <pt x="1759" y="1216" on="1"/>
        <pt x="1786" y="1327" on="0"/>
        <pt x="1786" y="1378" on="1"/>
        <pt x="1786" y="1404" on="0"/>
        <pt x="1746" y="1443" on="0"/>
        <pt x="1688" y="1460" on="0"/>
        <pt x="1643" y="1469" on="0"/>
        <pt x="1629" y="1469" on="1"/>
        <pt x="1620" y="1472" on="0"/>
        <pt x="1620" y="1527" on="0"/>
        <pt x="1629" y="1536" on="1"/>
        <pt x="1649" y="1535" on="0"/>
        <pt x="1763" y="1527" on="0"/>
        <pt x="1840" y="1524" on="0"/>
        <pt x="1879" y="1524" on="1"/>
        <pt x="1926" y="1524" on="0"/>
        <pt x="1991" y="1528" on="0"/>
        <pt x="2063" y="1534" on="0"/>
        <pt x="2097" y="1536" on="1"/>
        <pt x="2101" y="1530" on="0"/>
        <pt x="2101" y="1513" on="1"/>
        <pt x="2101" y="1506" on="0"/>
        <pt x="2100" y="1498" on="1"/>
        <pt x="2098" y="1469" on="0"/>
        <pt x="2093" y="1469" on="1"/>
        <pt x="2073" y="1469" on="0"/>
        <pt x="1977" y="1434" on="0"/>
        <pt x="1946" y="1408" on="1"/>
        <pt x="1930" y="1394" on="0"/>
        <pt x="1902" y="1347" on="0"/>
        <pt x="1877" y="1281" on="0"/>
        <pt x="1863" y="1232" on="1"/>
        <pt x="1812" y="1056" on="0"/>
        <pt x="1693" y="637" on="0"/>
        <pt x="1584" y="252" on="0"/>
        <pt x="1531" y="74" on="1"/>
        <pt x="1523" y="44" on="0"/>
        <pt x="1466" y="-5" on="0"/>
        <pt x="1443" y="-5" on="1"/>
        <pt x="1437" y="-5" on="0"/>
        <pt x="1422" y="23" on="0"/>
        <pt x="1420" y="32" on="1"/>
        <pt x="1388" y="126" on="0"/>
        <pt x="1286" y="433" on="0"/>
        <pt x="1187" y="734" on="0"/>
        <pt x="1096" y="1009" on="0"/>
        <pt x="1068" y="1094" on="1"/>
        <pt x="1039" y="1179" on="1"/>
        <pt x="978" y="976" on="0"/>
        <pt x="756" y="289" on="0"/>
        <pt x="691" y="74" on="1"/>
        <pt x="683" y="44" on="0"/>
        <pt x="627" y="-5" on="0"/>
        <pt x="603" y="-5" on="1"/>
        <pt x="597" y="-5" on="0"/>
        <pt x="582" y="23" on="0"/>
        <pt x="580" y="32" on="1"/>
        <pt x="503" y="279" on="0"/>
        <pt x="253" y="1092" on="0"/>
        <pt x="209" y="1234" on="1"/>
        <pt x="206" y="1243" on="0"/>
        <pt x="190" y="1298" on="0"/>
        <pt x="185" y="1313" on="0"/>
        <pt x="172" y="1353" on="0"/>
        <pt x="164" y="1368" on="0"/>
        <pt x="150" y="1395" on="0"/>
        <pt x="135" y="1413" on="0"/>
        <pt x="125" y="1422" on="1"/>
        <pt x="103" y="1443" on="0"/>
        <pt x="17" y="1469" on="0"/>
        <pt x="-9" y="1469" on="1"/>
      </contour>
    </TTGlyph>
</ttFont>
